<?xml version="1.0" encoding="UTF-8"?>
<!DOCTYPE svg PUBLIC "-//W3C//DTD SVG 1.1//EN" "http://www.w3.org/Graphics/SVG/1.1/DTD/svg11.dtd">
<svg xmlns="http://www.w3.org/2000/svg" version="1.1" width="461px" height="109px" style="shape-rendering:geometricPrecision; text-rendering:geometricPrecision; image-rendering:optimizeQuality; fill-rule:evenodd; clip-rule:evenodd" xmlns:xlink="http://www.w3.org/1999/xlink">
<g><path style="opacity:1" fill="#2d5b9a" d="M -0.5,-0.5 C 153.167,-0.5 306.833,-0.5 460.5,-0.5C 460.5,35.8333 460.5,72.1667 460.5,108.5C 306.833,108.5 153.167,108.5 -0.5,108.5C -0.5,72.1667 -0.5,35.8333 -0.5,-0.5 Z"/></g>
<g><path style="opacity:1" fill="#b2bfd5" d="M 55.5,28.5 C 62.3134,27.5088 69.3134,27.1755 76.5,27.5C 76.5,28.5 76.5,29.5 76.5,30.5C 69.7808,28.5953 62.7808,27.9287 55.5,28.5 Z"/></g>
<g><path style="opacity:1" fill="#fafbfc" d="M 422.5,77.5 C 417.025,78.4889 411.358,78.8222 405.5,78.5C 404.265,75.6987 402.765,73.0321 401,70.5C 399.023,73.3116 396.856,75.9783 394.5,78.5C 384.188,79.4986 373.855,79.8319 363.5,79.5C 363.5,77.1667 363.5,74.8333 363.5,72.5C 359.774,72.1774 356.107,72.5108 352.5,73.5C 351.544,75.0754 350.877,76.742 350.5,78.5C 340.167,78.5 329.833,78.5 319.5,78.5C 319.5,74.5 319.5,70.5 319.5,66.5C 319.665,63.1501 319.498,59.8168 319,56.5C 315.407,64.0223 311.573,71.3556 307.5,78.5C 304.232,79.487 300.898,79.8204 297.5,79.5C 296.781,71.9414 295.281,64.6081 293,57.5C 290.224,64.6029 288.391,71.9362 287.5,79.5C 281.5,79.5 275.5,79.5 269.5,79.5C 273.705,62.0148 278.539,44.6815 284,27.5C 290.41,26.5223 296.91,26.189 303.5,26.5C 304.258,34.2337 305.425,41.9004 307,49.5C 311.088,42.3242 314.922,34.9909 318.5,27.5C 324.798,26.5037 331.132,26.1703 337.5,26.5C 337.246,41.1752 337.08,55.8418 337,70.5C 342.706,58.9221 348.539,47.4221 354.5,36C 360.528,35.1697 366.528,35.3364 372.5,36.5C 374.619,48.4931 376.785,60.4931 379,72.5C 384.021,66.9804 388.854,61.3137 393.5,55.5C 390.422,49.0087 387.088,42.6754 383.5,36.5C 389.137,35.3368 394.804,35.1701 400.5,36C 401.479,38.1373 402.812,39.9706 404.5,41.5C 406.507,39.9918 408.174,38.1584 409.5,36C 416.192,35.1691 422.858,35.3358 429.5,36.5C 423.248,43.2464 417.581,50.4131 412.5,58C 415.966,64.4328 419.3,70.9328 422.5,77.5 Z"/></g>
<g><path style="opacity:1" fill="#fcfdfd" d="M 55.5,28.5 C 62.7808,27.9287 69.7808,28.5953 76.5,30.5C 77.7148,37.791 78.7148,45.1244 79.5,52.5C 79.5,53.5 79.5,54.5 79.5,55.5C 66.6557,55.8287 53.989,55.4954 41.5,54.5C 45.6741,45.4799 50.3407,36.8133 55.5,28.5 Z"/></g>
<g><path style="opacity:1" fill="#fbfbfc" d="M 98.5,55.5 C 92.7291,56.1128 87.3958,55.4461 82.5,53.5C 88.4557,36.6039 100.122,30.9372 117.5,36.5C 117.143,41.3134 116.143,45.98 114.5,50.5C 109.384,47.5796 104.55,47.9129 100,51.5C 99.2086,52.745 98.7086,54.0783 98.5,55.5 Z"/></g>
<g><path style="opacity:1" fill="#f3f5f8" d="M 199.5,34.5 C 198.504,34.4142 197.671,34.7476 197,35.5C 196.313,42.4566 195.146,49.2899 193.5,56C 186.174,56.4997 178.841,56.6663 171.5,56.5C 174.451,42.5575 183.117,34.8908 197.5,33.5C 197.844,30.4377 198.511,27.4377 199.5,24.5C 200.666,27.8369 200.666,31.1702 199.5,34.5 Z"/></g>
<g><path style="opacity:1" fill="#fafbfc" d="M 199.5,34.5 C 211.793,36.1252 218.126,43.1252 218.5,55.5C 211.167,55.5 203.833,55.5 196.5,55.5C 196.5,54.5 196.5,53.5 196.5,52.5C 197.315,46.4617 198.315,40.4617 199.5,34.5 Z"/></g>
<g><path style="opacity:1" fill="#f9fafb" d="M 169.5,55.5 C 163.729,56.1128 158.396,55.4461 153.5,53.5C 153.833,50.8333 154.167,48.1667 154.5,45.5C 155.634,43.0336 155.801,40.367 155,37.5C 154.495,39.5183 153.995,41.5183 153.5,43.5C 153.714,45.1439 153.38,46.6439 152.5,48C 149.518,48.498 146.518,48.6646 143.5,48.5C 142.908,51.1272 142.575,53.7938 142.5,56.5C 136.833,56.5 131.167,56.5 125.5,56.5C 125.575,53.7938 125.908,51.1272 126.5,48.5C 123.5,48.5 120.5,48.5 117.5,48.5C 118.275,44.186 118.941,39.8526 119.5,35.5C 137.643,35.8413 155.643,35.8413 173.5,35.5C 172.163,42.195 170.83,48.8617 169.5,55.5 Z"/></g>
<g><path style="opacity:1" fill="#fafbfc" d="M 231.5,78.5 C 226.305,78.8205 221.305,78.4872 216.5,77.5C 216.983,70.7537 217.983,64.087 219.5,57.5C 222.385,57.8064 225.052,57.4731 227.5,56.5C 224.841,56.0826 222.508,55.0826 220.5,53.5C 220.634,47.7267 221.468,42.06 223,36.5C 228.446,35.1941 233.946,35.1941 239.5,36.5C 242.609,43.051 245.442,49.7177 248,56.5C 248.953,49.4492 250.12,42.4492 251.5,35.5C 256.833,35.5 262.167,35.5 267.5,35.5C 265.167,50.1667 262.833,64.8333 260.5,79.5C 255.156,79.666 249.823,79.4994 244.5,79C 241.792,72.3804 238.792,65.8804 235.5,59.5C 234.157,65.9601 232.824,72.2935 231.5,78.5 Z"/></g>
<g><path style="opacity:1" fill="#889dc2" d="M 154.5,45.5 C 154.672,44.5084 154.338,43.8417 153.5,43.5C 153.995,41.5183 154.495,39.5183 155,37.5C 155.801,40.367 155.634,43.0336 154.5,45.5 Z"/></g>
<g><path style="opacity:1" fill="#97a7c6" d="M 82.5,53.5 C 87.3958,55.4461 92.7291,56.1128 98.5,55.5C 93.0247,56.4889 87.358,56.8222 81.5,56.5C 81.2627,55.209 81.596,54.209 82.5,53.5 Z"/></g>
<g><path style="opacity:1" fill="#93a5c4" d="M 153.5,53.5 C 158.396,55.4461 163.729,56.1128 169.5,55.5C 164.025,56.4889 158.358,56.8222 152.5,56.5C 152.263,55.209 152.596,54.209 153.5,53.5 Z"/></g>
<g><path style="opacity:1" fill="#95a6c5" d="M 196.5,52.5 C 196.5,53.5 196.5,54.5 196.5,55.5C 203.833,55.5 211.167,55.5 218.5,55.5C 211.018,56.492 203.352,56.8254 195.5,56.5C 195.232,54.901 195.566,53.5676 196.5,52.5 Z"/></g>
<g><path style="opacity:1" fill="#9babc8" d="M 220.5,53.5 C 222.508,55.0826 224.841,56.0826 227.5,56.5C 224.833,56.5 222.167,56.5 219.5,56.5C 219.263,55.209 219.596,54.209 220.5,53.5 Z"/></g>
<g><path style="opacity:1" fill="#cfd6e4" d="M 29.5,56.5 C 32.8499,56.335 36.1832,56.5017 39.5,57C 38.944,57.3826 38.6107,57.8826 38.5,58.5C 35.1016,58.8204 31.7683,58.487 28.5,57.5C 28.6236,56.8933 28.9569,56.56 29.5,56.5 Z"/></g>
<g><path style="opacity:1" fill="#8fa1c3" d="M 79.5,52.5 C 80.4345,53.5676 80.7678,54.901 80.5,56.5C 67.1625,56.3334 53.8292,56.5001 40.5,57C 54.0063,57.169 67.3396,57.669 80.5,58.5C 66.4213,58.1849 52.4213,58.5182 38.5,59.5C 38.5,59.1667 38.5,58.8333 38.5,58.5C 38.6107,57.8826 38.944,57.3826 39.5,57C 36.1832,56.5017 32.8499,56.335 29.5,56.5C 33.3953,55.7752 37.3953,55.1086 41.5,54.5C 53.989,55.4954 66.6557,55.8287 79.5,55.5C 79.5,54.5 79.5,53.5 79.5,52.5 Z"/></g>
<g><path style="opacity:1" fill="#92a4c4" d="M 152.5,58.5 C 157.975,57.5111 163.642,57.1778 169.5,57.5C 169.784,59.4147 169.451,61.0813 168.5,62.5C 168.5,61.1667 168.5,59.8333 168.5,58.5C 163.167,58.5 157.833,58.5 152.5,58.5 Z"/></g>
<g><path style="opacity:1" fill="#95a6c5" d="M 193.5,58.5 C 186.167,58.5 178.833,58.5 171.5,58.5C 171.5,59.8333 171.5,61.1667 171.5,62.5C 170.549,61.0813 170.216,59.4147 170.5,57.5C 178.352,57.1746 186.018,57.508 193.5,58.5 Z"/></g>
<g><path style="opacity:1" fill="#f9fafc" d="M 80.5,58.5 C 80.5,58.8333 80.5,59.1667 80.5,59.5C 81.269,65.0043 82.269,70.3377 83.5,75.5C 83.5,76.8333 83.5,78.1667 83.5,79.5C 77.1667,79.5 70.8333,79.5 64.5,79.5C 64.5,77.1667 64.5,74.8333 64.5,72.5C 60.1539,72.3343 55.8206,72.501 51.5,73C 50.3313,75.0065 49.6646,77.1732 49.5,79.5C 42.8333,79.5 36.1667,79.5 29.5,79.5C 32.4515,72.8598 35.4515,66.1931 38.5,59.5C 52.4213,58.5182 66.4213,58.1849 80.5,58.5 Z"/></g>
<g><path style="opacity:1" fill="#fcfcfd" d="M 81.5,59.5 C 86.9753,58.5111 92.642,58.1778 98.5,58.5C 98.393,60.9032 99.393,62.7365 101.5,64C 105.204,65.4509 108.87,65.9509 112.5,65.5C 111.089,69.7127 110.422,74.046 110.5,78.5C 100.461,81.661 92.1272,79.3277 85.5,71.5C 83.5355,67.6067 82.2021,63.6067 81.5,59.5 Z"/></g>
<g><path style="opacity:1" fill="#fbfbfd" d="M 138.5,78.5 C 133.167,78.5 127.833,78.5 122.5,78.5C 122.5,77.5 122.5,76.5 122.5,75.5C 123.058,69.8197 123.725,64.1531 124.5,58.5C 130.167,58.5 135.833,58.5 141.5,58.5C 140.314,65.1328 139.314,71.7994 138.5,78.5 Z"/></g>
<g><path style="opacity:1" fill="#f7f8fa" d="M 152.5,58.5 C 157.833,58.5 163.167,58.5 168.5,58.5C 168.5,59.8333 168.5,61.1667 168.5,62.5C 167.457,68.0233 166.457,73.5233 165.5,79C 160.177,79.4994 154.844,79.666 149.5,79.5C 150.177,72.4418 151.177,65.4418 152.5,58.5 Z"/></g>
<g><path style="opacity:1" fill="#fbfcfd" d="M 193.5,58.5 C 192.225,64.0864 191.225,69.7531 190.5,75.5C 189.566,76.5676 189.232,77.901 189.5,79.5C 179.214,78.3592 173.214,72.6926 171.5,62.5C 171.5,61.1667 171.5,59.8333 171.5,58.5C 178.833,58.5 186.167,58.5 193.5,58.5 Z"/></g>
<g><path style="opacity:1" fill="#fbfbfd" d="M 195.5,79.5 C 194.167,79.5 192.833,79.5 191.5,79.5C 192.592,72.8691 193.758,66.2024 195,59.5C 202.754,58.3526 210.587,58.1859 218.5,59C 215.391,70.896 207.724,77.7293 195.5,79.5 Z"/></g>
<g><path style="opacity:1" fill="#2e5b9a" d="M 360.5,53.5 C 361.657,56.2727 362.324,59.2727 362.5,62.5C 360.833,62.5 359.167,62.5 357.5,62.5C 358.213,59.4061 359.213,56.4061 360.5,53.5 Z"/></g>
<g><path style="opacity:1" fill="#617daf" d="M 80.5,59.5 C 80.8333,59.5 81.1667,59.5 81.5,59.5C 82.2021,63.6067 83.5355,67.6067 85.5,71.5C 83.8235,72.1834 83.1568,73.5168 83.5,75.5C 82.269,70.3377 81.269,65.0043 80.5,59.5 Z"/></g>
<g><path style="opacity:1" fill="#eaeef4" d="M 424.5,73.5 C 425.946,72.3871 427.613,72.2204 429.5,73C 427.954,74.4396 427.121,76.2729 427,78.5C 426.95,76.256 426.117,74.5893 424.5,73.5 Z"/></g>
<g><path style="opacity:1" fill="#d1d9e6" d="M 430.5,72.5 C 431.5,72.5 432.5,72.5 433.5,72.5C 433.833,76.5 434.167,76.5 434.5,72.5C 435.5,72.5 436.5,72.5 437.5,72.5C 437.808,74.924 437.474,77.2573 436.5,79.5C 435.803,77.6155 434.803,77.2822 433.5,78.5C 432.376,73.2792 431.542,73.2792 431,78.5C 430.505,76.5273 430.338,74.5273 430.5,72.5 Z"/></g>
<g><path style="opacity:1" fill="#9dafcb" d="M 122.5,75.5 C 122.5,76.5 122.5,77.5 122.5,78.5C 127.833,78.5 133.167,78.5 138.5,78.5C 133.025,79.4889 127.358,79.8222 121.5,79.5C 121.232,77.901 121.566,76.5676 122.5,75.5 Z"/></g>
<g><path style="opacity:1" fill="#9eb0cc" d="M 216.5,77.5 C 221.305,78.4872 226.305,78.8205 231.5,78.5C 226.32,79.8147 220.986,79.8147 215.5,78.5C 215.624,77.8933 215.957,77.56 216.5,77.5 Z"/></g>
<g><path style="opacity:1" fill="#9fb0cc" d="M 319.5,66.5 C 319.5,70.5 319.5,74.5 319.5,78.5C 329.833,78.5 340.167,78.5 350.5,78.5C 340.013,79.4944 329.346,79.8278 318.5,79.5C 318.182,74.9677 318.515,70.6344 319.5,66.5 Z"/></g>
<g><path style="opacity:1" fill="#9cafcb" d="M 422.5,77.5 C 423.043,77.56 423.376,77.8933 423.5,78.5C 417.346,79.8166 411.346,79.8166 405.5,78.5C 411.358,78.8222 417.025,78.4889 422.5,77.5 Z"/></g>
<g><path style="opacity:1" fill="#c5cfe0" d="M 190.5,75.5 C 190.232,77.099 190.566,78.4324 191.5,79.5C 192.833,79.5 194.167,79.5 195.5,79.5C 194.122,80.2344 192.622,80.9011 191,81.5C 190.667,84.1667 190.333,86.8333 190,89.5C 188.844,90.9928 188.01,90.8261 187.5,89C 188.361,85.8632 189.027,82.6965 189.5,79.5C 189.232,77.901 189.566,76.5676 190.5,75.5 Z"/></g>
</svg>
