<?xml version="1.0" encoding="UTF-8"?>
<!DOCTYPE svg PUBLIC "-//W3C//DTD SVG 1.1//EN" "http://www.w3.org/Graphics/SVG/1.1/DTD/svg11.dtd">
<svg xmlns="http://www.w3.org/2000/svg" version="1.1" width="1920px" height="784px" style="shape-rendering:geometricPrecision; text-rendering:geometricPrecision; image-rendering:optimizeQuality; fill-rule:evenodd; clip-rule:evenodd" xmlns:xlink="http://www.w3.org/1999/xlink">
<g><path style="opacity:0.988" fill="#fcfcfd" d="M 1299.5,-0.5 C 1301.17,-0.5 1302.83,-0.5 1304.5,-0.5C 1339.26,2.09101 1365.42,18.4243 1383,48.5C 1417.13,148.389 1450.96,248.389 1484.5,348.5C 1330.17,349.667 1175.83,349.833 1021.5,349C 995.912,347.285 973.745,337.785 955,320.5C 954.5,330.161 954.334,339.828 954.5,349.5C 897.166,349.667 839.832,349.5 782.5,349C 742.675,345.472 713.175,326.306 694,291.5C 671.194,326.161 639.028,345.328 597.5,349C 543.168,349.5 488.834,349.667 434.5,349.5C 434.5,302.167 434.5,254.833 434.5,207.5C 444.839,207.666 455.172,207.5 465.5,207C 436.817,173.608 427.983,135.441 439,92.5C 451.029,54.4714 475.529,27.9714 512.5,13C 521.902,9.56627 531.568,7.23293 541.5,6C 598.166,5.50001 654.832,5.33334 711.5,5.5C 711.334,15.8387 711.5,26.172 712,36.5C 729.549,19.8099 750.382,9.64321 774.5,6C 833.832,5.50001 893.166,5.33334 952.5,5.5C 952.334,15.1724 952.5,24.8391 953,34.5C 969.972,18.4326 990.139,8.93264 1013.5,6C 1071.17,5.50001 1128.83,5.33334 1186.5,5.5C 1186.33,53.1678 1186.5,100.834 1187,148.5C 1197.88,114.533 1209.54,80.8667 1222,47.5C 1239.56,18.1354 1265.4,2.13543 1299.5,-0.5 Z"/></g>
<g><path style="opacity:1" fill="#054693" d="M 1161.5,131.5 C 1161.33,185.834 1161.5,240.168 1162,294.5C 1162.51,293.473 1163.01,292.473 1163.5,291.5C 1188.89,216.165 1214.39,140.831 1240,65.5C 1255.44,34.0299 1280.6,20.8632 1315.5,26C 1335.93,31.0944 1351.09,42.9277 1361,61.5C 1391.24,148.879 1421.07,236.379 1450.5,324C 1395.17,324.5 1339.83,324.667 1284.5,324.5C 1284.5,310.833 1284.5,297.167 1284.5,283.5C 1320.84,283.833 1357.17,283.5 1393.5,282.5C 1370.04,214.3 1346.88,145.967 1324,77.5C 1316.16,62.8855 1304.66,59.0522 1289.5,66C 1286.32,68.843 1283.49,72.0097 1281,75.5C 1252.6,158.215 1224.1,240.882 1195.5,323.5C 1134.84,324.667 1074.17,324.833 1013.5,324C 975.092,315.593 952.259,292.093 945,253.5C 944.333,203.5 944.333,153.5 945,103.5C 949.39,69.5619 967.557,46.3952 999.5,34C 1005.09,32.3461 1010.76,31.0128 1016.5,30C 1065.17,29.5 1113.83,29.3333 1162.5,29.5C 1162.5,43.1667 1162.5,56.8333 1162.5,70.5C 1115.5,70.3333 1068.5,70.5 1021.5,71C 1002.66,75.1706 991.163,86.6706 987,105.5C 986.333,153.167 986.333,200.833 987,248.5C 990.991,266.49 1001.82,277.99 1019.5,283C 1053.5,283.5 1087.5,283.667 1121.5,283.5C 1121.5,246.5 1121.5,209.5 1121.5,172.5C 1096.5,172.5 1071.5,172.5 1046.5,172.5C 1046.5,158.833 1046.5,145.167 1046.5,131.5C 1084.83,131.5 1123.17,131.5 1161.5,131.5 Z"/></g>
<g><path style="opacity:1" fill="#054693" d="M 596.5,273.5 C 550.833,273.5 505.167,273.5 459.5,273.5C 459.5,260.167 459.5,246.833 459.5,233.5C 503.501,233.667 547.501,233.5 591.5,233C 595.566,229.255 595.233,225.922 590.5,223C 573.5,222.667 556.5,222.333 539.5,222C 489.263,209.926 462.263,178.093 458.5,126.5C 460.533,85.9043 479.533,56.4043 515.5,38C 525.373,33.6149 535.707,30.9482 546.5,30C 593.165,29.5 639.832,29.3333 686.5,29.5C 686.5,43.1667 686.5,56.8333 686.5,70.5C 640.832,70.3333 595.165,70.5 549.5,71C 524.749,75.7509 508.915,90.2509 502,114.5C 498.426,148.577 512.926,170.744 545.5,181C 563.877,181.067 582.21,181.734 600.5,183C 625.582,190.987 637.415,208.154 636,234.5C 631.563,256.438 618.396,269.438 596.5,273.5 Z"/></g>
<g><path style="opacity:1" fill="#034693" d="M 779.5,30.5 C 829.167,30.5 878.833,30.5 928.5,30.5C 928.5,43.8333 928.5,57.1667 928.5,70.5C 879.832,70.3333 831.166,70.5 782.5,71C 764.557,74.9414 753.057,85.7747 748,103.5C 747.333,152.167 747.333,200.833 748,249.5C 752.012,268.416 763.512,279.582 782.5,283C 831.166,283.5 879.832,283.667 928.5,283.5C 928.5,297.167 928.5,310.833 928.5,324.5C 877.499,324.667 826.499,324.5 775.5,324C 736.656,315.49 713.823,291.657 707,252.5C 706.333,201.833 706.333,151.167 707,100.5C 712.672,68.1555 730.839,45.9889 761.5,34C 767.358,32.0793 773.358,30.9126 779.5,30.5 Z"/></g>
<g><path style="opacity:1" fill="#688ebd" d="M 779.5,30.5 C 829.331,29.5011 879.331,29.1678 929.5,29.5C 929.829,43.3435 929.496,57.0102 928.5,70.5C 928.5,57.1667 928.5,43.8333 928.5,30.5C 878.833,30.5 829.167,30.5 779.5,30.5 Z"/></g>
<g><path style="opacity:1" fill="#064793" d="M 1283.5,274.5 C 1283.67,262.829 1283.5,251.162 1283,239.5C 1282.49,240.527 1281.99,241.527 1281.5,242.5C 1272.1,269.698 1263.1,297.032 1254.5,324.5C 1238.16,324.667 1221.83,324.5 1205.5,324C 1233.6,241.689 1262.1,159.522 1291,77.5C 1300.12,68.85 1308.12,69.85 1315,80.5C 1337.01,145.017 1358.51,209.684 1379.5,274.5C 1347.5,274.5 1315.5,274.5 1283.5,274.5 Z"/></g>
<g><path style="opacity:1" fill="#054693" d="M 546.5,80.5 C 593.167,80.5 639.833,80.5 686.5,80.5C 686.5,94.5 686.5,108.5 686.5,122.5C 642.165,122.333 597.832,122.5 553.5,123C 550.966,125.587 550.966,128.253 553.5,131C 568.833,131.333 584.167,131.667 599.5,132C 644.677,138.842 673.177,164.342 685,208.5C 691.578,258.185 672.745,294.352 628.5,317C 619.811,320.564 610.811,322.897 601.5,324C 553.834,324.5 506.168,324.667 458.5,324.5C 458.5,310.833 458.5,297.167 458.5,283.5C 504.835,283.667 551.168,283.5 597.5,283C 627.156,275.877 642.823,257.044 644.5,226.5C 641.507,197.024 625.507,179.191 596.5,173C 578.448,172.946 560.448,172.279 542.5,171C 517.727,161.305 506.894,143.138 510,116.5C 515.468,97.5304 527.635,85.5304 546.5,80.5 Z"/></g>
<g><path style="opacity:1" fill="#044693" d="M 927.5,80.5 C 927.5,94.1667 927.5,107.833 927.5,121.5C 886.663,121.168 845.997,121.501 805.5,122.5C 801.212,123.454 798.546,126.121 797.5,130.5C 831.493,131.5 865.493,131.833 899.5,131.5C 899.5,145.167 899.5,158.833 899.5,172.5C 851.833,172.5 804.167,172.5 756.5,172.5C 756.333,150.164 756.5,127.831 757,105.5C 759.827,92.9959 767.327,84.8292 779.5,81C 828.832,80.5 878.166,80.3333 927.5,80.5 Z"/></g>
<g><path style="opacity:1" fill="#044693" d="M 1162.5,80.5 C 1162.5,93.8333 1162.5,107.167 1162.5,120.5C 1123,120.168 1083.66,120.501 1044.5,121.5C 1040.58,122.248 1038.08,124.582 1037,128.5C 1036.33,160.5 1036.33,192.5 1037,224.5C 1038.01,228.008 1040.18,230.342 1043.5,231.5C 1052.32,232.493 1061.32,232.827 1070.5,232.5C 1070.5,229.167 1070.5,225.833 1070.5,222.5C 1062.5,222.5 1054.5,222.5 1046.5,222.5C 1046.5,208.833 1046.5,195.167 1046.5,181.5C 1068.17,181.5 1089.83,181.5 1111.5,181.5C 1111.5,212.5 1111.5,243.5 1111.5,274.5C 1081.16,274.667 1050.83,274.5 1020.5,274C 1006.23,270.727 997.728,261.894 995,247.5C 994.333,200.167 994.333,152.833 995,105.5C 998.286,93.404 1005.79,85.2374 1017.5,81C 1065.83,80.5 1114.17,80.3333 1162.5,80.5 Z"/></g>
<g><path style="opacity:1" fill="#507db3" d="M 1162.5,80.5 C 1163.5,93.9898 1163.83,107.656 1163.5,121.5C 1123.83,121.5 1084.17,121.5 1044.5,121.5C 1083.66,120.501 1123,120.168 1162.5,120.5C 1162.5,107.167 1162.5,93.8333 1162.5,80.5 Z"/></g>
<g><path style="opacity:1" fill="#507db3" d="M 927.5,80.5 C 928.496,94.3234 928.829,108.323 928.5,122.5C 887.5,122.5 846.5,122.5 805.5,122.5C 845.997,121.501 886.663,121.168 927.5,121.5C 927.5,107.833 927.5,94.1667 927.5,80.5 Z"/></g>
<g><path style="opacity:1" fill="#bfd0e3" d="M 1161.5,131.5 C 1162.17,184.833 1162.83,238.167 1163.5,291.5C 1163.01,292.473 1162.51,293.473 1162,294.5C 1161.5,240.168 1161.33,185.834 1161.5,131.5 Z"/></g>
<g><path style="opacity:1" fill="#4374ae" d="M 899.5,183.5 C 852.167,183.5 804.833,183.5 757.5,183.5C 757.5,205.833 757.5,228.167 757.5,250.5C 756.503,228.006 756.169,205.339 756.5,182.5C 804.336,182.168 852.003,182.501 899.5,183.5 Z"/></g>
<g><path style="opacity:1" fill="#034693" d="M 899.5,183.5 C 899.5,196.833 899.5,210.167 899.5,223.5C 865.5,223.5 831.5,223.5 797.5,223.5C 797.263,224.791 797.596,225.791 798.5,226.5C 799.927,229.764 802.261,232.264 805.5,234C 846.499,234.5 887.499,234.667 928.5,234.5C 928.5,248.167 928.5,261.833 928.5,275.5C 879.499,275.667 830.499,275.5 781.5,275C 768.592,271.593 760.592,263.426 757.5,250.5C 757.5,228.167 757.5,205.833 757.5,183.5C 804.833,183.5 852.167,183.5 899.5,183.5 Z"/></g>
<g><path style="opacity:1" fill="#f7f9fb" d="M 1313.5,225.5 C 1309.55,226.825 1305.22,227.492 1300.5,227.5C 1295.99,227.499 1291.65,227.166 1287.5,226.5C 1291.5,213.336 1296,200.336 1301,187.5C 1306.06,199.849 1310.23,212.516 1313.5,225.5 Z"/></g>
<g><path style="opacity:1" fill="#80a2c8" d="M 899.5,223.5 C 865.654,223.835 831.988,224.835 798.5,226.5C 797.596,225.791 797.263,224.791 797.5,223.5C 831.5,223.5 865.5,223.5 899.5,223.5 Z"/></g>
<g><path style="opacity:1" fill="#82a3c9" d="M 1313.5,225.5 C 1314.4,226.209 1314.74,227.209 1314.5,228.5C 1305.14,228.832 1295.81,228.498 1286.5,227.5C 1286.62,226.893 1286.96,226.56 1287.5,226.5C 1291.65,227.166 1295.99,227.499 1300.5,227.5C 1305.22,227.492 1309.55,226.825 1313.5,225.5 Z"/></g>
<g><path style="opacity:1" fill="#aac0da" d="M 1046.5,222.5 C 1054.5,222.5 1062.5,222.5 1070.5,222.5C 1070.5,225.833 1070.5,229.167 1070.5,232.5C 1061.32,232.827 1052.32,232.493 1043.5,231.5C 1052.17,231.5 1060.83,231.5 1069.5,231.5C 1069.5,228.833 1069.5,226.167 1069.5,223.5C 1061.65,223.825 1053.98,223.492 1046.5,222.5 Z"/></g>
<g><path style="opacity:1" fill="#bdcfe3" d="M 1283.5,274.5 C 1282.83,263.833 1282.17,253.167 1281.5,242.5C 1281.99,241.527 1282.49,240.527 1283,239.5C 1283.5,251.162 1283.67,262.829 1283.5,274.5 Z"/></g>
<g><path style="opacity:1" fill="#4374ae" d="M 459.5,233.5 C 459.5,246.833 459.5,260.167 459.5,273.5C 505.167,273.5 550.833,273.5 596.5,273.5C 550.67,274.499 504.67,274.832 458.5,274.5C 458.171,260.656 458.504,246.99 459.5,233.5 Z"/></g>
<g><path style="opacity:0.996" fill="#034593" d="M -0.5,409.5 C 31.1667,409.5 62.8333,409.5 94.5,409.5C 94.5,456.167 94.5,502.833 94.5,549.5C 139.833,549.5 185.167,549.5 230.5,549.5C 230.5,502.833 230.5,456.167 230.5,409.5C 262.167,409.5 293.833,409.5 325.5,409.5C 325.5,530.833 325.5,652.167 325.5,773.5C 293.833,773.5 262.167,773.5 230.5,773.5C 230.5,723.833 230.5,674.167 230.5,624.5C 185.167,624.5 139.833,624.5 94.5,624.5C 94.5,674.167 94.5,723.833 94.5,773.5C 62.8333,773.5 31.1667,773.5 -0.5,773.5C -0.5,652.167 -0.5,530.833 -0.5,409.5 Z"/></g>
<g><path style="opacity:0.997" fill="#034593" d="M 386.5,409.5 C 418.167,409.5 449.833,409.5 481.5,409.5C 481.5,530.833 481.5,652.167 481.5,773.5C 449.833,773.5 418.167,773.5 386.5,773.5C 386.5,652.167 386.5,530.833 386.5,409.5 Z"/></g>
<g><path style="opacity:0.988" fill="#034593" d="M 542.5,409.5 C 574.5,409.5 606.5,409.5 638.5,409.5C 638.333,459.168 638.5,508.834 639,558.5C 676.308,509.025 713.808,459.691 751.5,410.5C 791.162,409.333 830.829,409.167 870.5,410C 822.5,467.333 774.5,524.667 726.5,582C 778.833,645.667 831.167,709.333 883.5,773C 842.167,773.667 800.833,773.667 759.5,773C 719.454,721.076 679.288,669.243 639,617.5C 638.5,669.499 638.333,721.499 638.5,773.5C 606.5,773.5 574.5,773.5 542.5,773.5C 542.5,652.167 542.5,530.833 542.5,409.5 Z"/></g>
<g><path style="opacity:0.99" fill="#034593" d="M 1024.5,409.5 C 1059.51,409.167 1094.51,409.5 1129.5,410.5C 1175.24,531.38 1220.57,652.38 1265.5,773.5C 1231.5,773.5 1197.5,773.5 1163.5,773.5C 1135.02,689.905 1105.86,606.572 1076,523.5C 1046.46,606.614 1016.63,689.614 986.5,772.5C 952.505,773.667 918.505,773.833 884.5,773C 931.463,651.944 978.13,530.777 1024.5,409.5 Z"/></g>
<g><path style="opacity:0.993" fill="#034593" d="M 1294.5,409.5 C 1347.83,409.333 1401.17,409.5 1454.5,410C 1531.01,418.195 1566.85,460.695 1562,537.5C 1555.79,584.207 1529.95,613.54 1484.5,625.5C 1521.92,674.68 1559.59,723.68 1597.5,772.5C 1557.84,773.667 1518.17,773.833 1478.5,773C 1449,726.833 1419.5,680.667 1390,634.5C 1389.5,680.832 1389.33,727.165 1389.5,773.5C 1357.83,773.5 1326.17,773.5 1294.5,773.5C 1294.5,652.167 1294.5,530.833 1294.5,409.5 Z M 1389.5,482.5 C 1401.92,482.125 1414.25,482.958 1426.5,485C 1456.13,491.984 1467.96,510.484 1462,540.5C 1457.43,554.737 1447.93,563.904 1433.5,568C 1419.04,571.372 1404.37,572.872 1389.5,572.5C 1389.5,542.5 1389.5,512.5 1389.5,482.5 Z"/></g>
<g><path style="opacity:0.989" fill="#034593" d="M 1919.5,409.5 C 1919.5,485.167 1919.5,560.833 1919.5,636.5C 1918.78,654.599 1916.28,672.599 1912,690.5C 1901.07,726.881 1878.23,752.714 1843.5,768C 1821.8,776.51 1799.47,781.676 1776.5,783.5C 1765.83,783.5 1755.17,783.5 1744.5,783.5C 1646.57,776.404 1598.74,723.737 1601,625.5C 1600.5,553.501 1600.33,481.501 1600.5,409.5C 1632.5,409.5 1664.5,409.5 1696.5,409.5C 1696.33,481.167 1696.5,552.834 1697,624.5C 1697.23,642.099 1701.23,658.766 1709,674.5C 1721.31,691.96 1738.31,700.293 1760,699.5C 1793.47,699.704 1813.47,683.371 1820,650.5C 1821.56,642.908 1822.56,635.241 1823,627.5C 1823.5,554.834 1823.67,482.167 1823.5,409.5C 1855.5,409.5 1887.5,409.5 1919.5,409.5 Z"/></g>
</svg>
