<?xml version="1.0" encoding="UTF-8"?>
<!DOCTYPE svg PUBLIC "-//W3C//DTD SVG 1.1//EN" "http://www.w3.org/Graphics/SVG/1.1/DTD/svg11.dtd">
<svg xmlns="http://www.w3.org/2000/svg" version="1.1" width="546px" height="245px" style="shape-rendering:geometricPrecision; text-rendering:geometricPrecision; image-rendering:optimizeQuality; fill-rule:evenodd; clip-rule:evenodd" xmlns:xlink="http://www.w3.org/1999/xlink">
<g><path style="opacity:0.178" fill="#01421a" d="M 371.5,17.5 C 387.633,16.9284 403.633,17.595 419.5,19.5C 419.5,29.5 419.5,39.5 419.5,49.5C 418.5,49.5 417.5,49.5 416.5,49.5C 416.5,50.5 416.5,51.5 416.5,52.5C 409.5,52.5 402.5,52.5 395.5,52.5C 395.5,56.8333 395.5,61.1667 395.5,65.5C 399.833,65.5 404.167,65.5 408.5,65.5C 408.5,62.5 408.5,59.5 408.5,56.5C 412.167,56.5 415.833,56.5 419.5,56.5C 419.5,62.1667 419.5,67.8333 419.5,73.5C 418.5,73.5 417.5,73.5 416.5,73.5C 416.5,74.5 416.5,75.5 416.5,76.5C 401.5,76.5 386.5,76.5 371.5,76.5C 371.5,75.5 371.5,74.5 371.5,73.5C 370.5,73.5 369.5,73.5 368.5,73.5C 368.5,55.5 368.5,37.5 368.5,19.5C 370.179,19.7148 371.179,19.0481 371.5,17.5 Z M 388.5,28.5 C 395.167,28.5 401.833,28.5 408.5,28.5C 408.5,32.8333 408.5,37.1667 408.5,41.5C 401.833,41.5 395.167,41.5 388.5,41.5C 388.5,37.1667 388.5,32.8333 388.5,28.5 Z"/></g>
<g><path style="opacity:0.952" fill="#007643" d="M 375.5,19.5 C 388.171,19.3334 400.838,19.5001 413.5,20C 414.618,21.0736 415.618,22.2402 416.5,23.5C 417.665,30.8107 417.831,38.144 417,45.5C 416.308,46.0253 415.808,46.6919 415.5,47.5C 408.524,48.3311 401.524,48.8311 394.5,49C 394,49.5 393.5,50 393,50.5C 392.194,56.0838 392.361,61.5838 393.5,67C 399.5,67.6667 405.5,67.6667 411.5,67C 412.423,64.9592 412.756,62.7925 412.5,60.5C 413.833,60.5 415.167,60.5 416.5,60.5C 416.605,64.5483 416.272,68.5483 415.5,72.5C 400.658,73.1274 385.992,72.4607 371.5,70.5C 370.334,54.5104 370.167,38.5104 371,22.5C 372.878,21.9473 374.378,20.9473 375.5,19.5 Z M 388.5,28.5 C 388.5,32.8333 388.5,37.1667 388.5,41.5C 395.167,41.5 401.833,41.5 408.5,41.5C 408.5,37.1667 408.5,32.8333 408.5,28.5C 401.833,28.5 395.167,28.5 388.5,28.5 Z"/></g>
<g><path style="opacity:0.278" fill="#004219" d="M 65.5,17.5 C 81.5139,17.1672 97.5139,17.5006 113.5,18.5C 114.807,27.6723 115.473,37.0056 115.5,46.5C 115.167,55.5 114.833,64.5 114.5,73.5C 113.833,74.1667 113.167,74.8333 112.5,75.5C 97.5484,76.4837 82.5484,76.8171 67.5,76.5C 67.321,74.3944 66.321,72.7277 64.5,71.5C 62.893,53.3442 63.2263,35.3442 65.5,17.5 Z M 102.5,28.5 C 102.5,40.8333 102.5,53.1667 102.5,65.5C 98.8333,65.5 95.1667,65.5 91.5,65.5C 91.8306,58.1365 91.4973,50.8032 90.5,43.5C 88.8163,41.6487 86.9829,39.982 85,38.5C 84.5017,35.1832 84.335,31.8499 84.5,28.5C 90.5,28.5 96.5,28.5 102.5,28.5 Z"/></g>
<g><path style="opacity:0.953" fill="#007846" d="M 71.5,19.5 C 84.6796,18.878 97.6796,19.5447 110.5,21.5C 111.666,37.8231 111.833,54.1565 111,70.5C 110.5,71 110,71.5 109.5,72C 96.1708,72.4999 82.8375,72.6666 69.5,72.5C 67.2607,56.2863 66.9273,39.953 68.5,23.5C 69.3886,21.993 70.3886,20.6597 71.5,19.5 Z M 102.5,28.5 C 102.5,40.8333 102.5,53.1667 102.5,65.5C 98.8333,65.5 95.1667,65.5 91.5,65.5C 91.8306,58.1365 91.4973,50.8032 90.5,43.5C 88.8163,41.6487 86.9829,39.982 85,38.5C 84.5017,35.1832 84.335,31.8499 84.5,28.5C 90.5,28.5 96.5,28.5 102.5,28.5 Z"/></g>
<g><path style="opacity:0.149" fill="#003212" d="M 117.5,22.5 C 118.117,22.6107 118.617,22.944 119,23.5C 119.333,39.1667 119.667,54.8333 120,70.5C 121.009,72.0249 121.509,73.6916 121.5,75.5C 120.526,74.365 119.359,73.365 118,72.5C 117.5,55.8367 117.333,39.17 117.5,22.5 Z"/></g>
<g><path style="opacity:0.027" fill="#002625" d="M 316.5,21.5 C 318.484,36.7977 319.151,52.4643 318.5,68.5C 317.804,52.9615 317.137,37.2949 316.5,21.5 Z"/></g>
<g><path style="opacity:0.333" fill="#033d19" d="M 325.5,17.5 C 338.5,17.5 351.5,17.5 364.5,17.5C 364.5,21.1667 364.5,24.8333 364.5,28.5C 356.5,28.5 348.5,28.5 340.5,28.5C 339.89,35.2517 342.557,40.2517 348.5,43.5C 349.499,53.4778 349.832,63.4778 349.5,73.5C 347.641,73.4609 346.308,74.2942 345.5,76C 338.842,76.4996 332.175,76.6663 325.5,76.5C 325.167,73.5 323.5,71.8333 320.5,71.5C 320.333,55.1633 320.5,38.8299 321,22.5C 323.072,21.2657 324.572,19.5991 325.5,17.5 Z"/></g>
<g><path style="opacity:0.953" fill="#007744" d="M 327.5,19.5 C 339.167,19.5 350.833,19.5 362.5,19.5C 362.5,21.1667 362.5,22.8333 362.5,24.5C 354.804,24.1692 347.138,24.5025 339.5,25.5C 338.217,30.479 338.217,35.479 339.5,40.5C 340.517,42.8371 342.184,44.5037 344.5,45.5C 345.665,53.8134 345.832,62.1467 345,70.5C 344.5,71 344,71.5 343.5,72C 337.833,72.6667 332.167,72.6667 326.5,72C 326,71.5 325.5,71 325,70.5C 324.167,54.1565 324.334,37.8231 325.5,21.5C 326.522,21.1445 327.189,20.4778 327.5,19.5 Z"/></g>
<g><path style="opacity:0.21" fill="#01461e" d="M 80.5,24.5 C 89.0851,24.1834 97.5851,24.5168 106,25.5C 106.5,39.496 106.667,53.496 106.5,67.5C 100.167,67.5 93.8333,67.5 87.5,67.5C 87.8306,60.1365 87.4973,52.8032 86.5,45.5C 84.679,44.2723 83.679,42.6056 83.5,40.5C 82.5,40.5 81.5,40.5 80.5,40.5C 80.5,35.1667 80.5,29.8333 80.5,24.5 Z M 102.5,28.5 C 102.5,40.8333 102.5,53.1667 102.5,65.5C 98.8333,65.5 95.1667,65.5 91.5,65.5C 91.8306,58.1365 91.4973,50.8032 90.5,43.5C 88.8163,41.6487 86.9829,39.982 85,38.5C 84.5017,35.1832 84.335,31.8499 84.5,28.5C 90.5,28.5 96.5,28.5 102.5,28.5 Z"/></g>
<g><path style="opacity:0.012" fill="#0e3939" d="M 102.5,28.5 C 103.83,34.2953 104.496,40.462 104.5,47C 104.496,53.538 103.83,59.7047 102.5,65.5C 102.5,53.1667 102.5,40.8333 102.5,28.5 Z"/></g>
<g><path style="opacity:0.3" fill="#024118" d="M 121.5,75.5 C 121.509,73.6916 121.009,72.0249 120,70.5C 119.667,54.8333 119.333,39.1667 119,23.5C 118.617,22.944 118.117,22.6107 117.5,22.5C 117.5,21.5 117.5,20.5 117.5,19.5C 131.385,18.219 145.385,17.5523 159.5,17.5C 172.5,17.8333 185.5,18.1667 198.5,18.5C 199.727,19.5904 200.56,20.9238 201,22.5C 201.779,40.5246 201.613,58.5246 200.5,76.5C 196.894,76.7892 193.394,76.4558 190,75.5C 189.5,59.8369 189.333,44.1702 189.5,28.5C 183.167,28.5 176.833,28.5 170.5,28.5C 170.177,32.226 170.511,35.8927 171.5,39.5C 173.913,41.4094 175.747,43.7427 177,46.5C 177.667,53.8333 177.667,61.1667 177,68.5C 176.326,71.26 175.493,73.9267 174.5,76.5C 170.167,76.5 165.833,76.5 161.5,76.5C 161.321,74.3944 160.321,72.7277 158.5,71.5C 157.501,57.1821 157.167,42.8488 157.5,28.5C 150.833,28.5 144.167,28.5 137.5,28.5C 136.871,35.5715 139.704,40.9048 146,44.5C 146.5,53.4938 146.666,62.4938 146.5,71.5C 143.5,71.8333 141.833,73.5 141.5,76.5C 134.745,76.7934 128.078,76.4601 121.5,75.5 Z"/></g>
<g><path style="opacity:0.953" fill="#007745" d="M 124.5,19.5 C 148.59,19.0199 172.59,19.5199 196.5,21C 197,21.5 197.5,22 198,22.5C 198.5,39.1633 198.667,55.83 198.5,72.5C 196.833,72.5 195.167,72.5 193.5,72.5C 193.5,56.5 193.5,40.5 193.5,24.5C 184.5,24.5 175.5,24.5 166.5,24.5C 166.172,29.8746 166.505,35.2079 167.5,40.5C 173.955,44.5206 176.288,50.354 174.5,58C 174.318,62.9643 173.651,67.7976 172.5,72.5C 169.482,72.6646 166.482,72.498 163.5,72C 163,71.5 162.5,71 162,70.5C 161.825,54.9257 161.325,39.4257 160.5,24C 152.167,23.3333 143.833,23.3333 135.5,24C 135,24.5 134.5,25 134,25.5C 133.501,30.4889 133.334,35.4889 133.5,40.5C 136.381,41.2737 139.048,42.6071 141.5,44.5C 142.665,53.1475 142.832,61.8142 142,70.5C 141.5,71 141,71.5 140.5,72C 135.167,72.6667 129.833,72.6667 124.5,72C 123.975,71.3076 123.308,70.8076 122.5,70.5C 121.334,54.844 121.167,39.1773 122,23.5C 123.085,22.2644 123.918,20.9311 124.5,19.5 Z"/></g>
<g><path style="opacity:0.291" fill="#043817" d="M 4.5,-0.5 C 7.83333,-0.5 11.1667,-0.5 14.5,-0.5C 15.8098,1.14772 17.1431,2.81439 18.5,4.5C 19.4963,10.7985 19.8297,17.1318 19.5,23.5C 28.8333,23.5 38.1667,23.5 47.5,23.5C 47.2299,15.445 47.5632,7.44496 48.5,-0.5C 51.8333,-0.5 55.1667,-0.5 58.5,-0.5C 58.5,25.1667 58.5,50.8333 58.5,76.5C 54.8936,76.7892 51.3936,76.4558 48,75.5C 47.5001,62.5043 47.3334,49.5043 47.5,36.5C 41.1667,36.5 34.8333,36.5 28.5,36.5C 28.6665,47.8382 28.4999,59.1716 28,70.5C 27.0922,72.4386 25.5922,73.4386 23.5,73.5C 23.5,74.5 23.5,75.5 23.5,76.5C 16.8333,76.5 10.1667,76.5 3.5,76.5C 3.5,75.1667 3.5,73.8333 3.5,72.5C 9.84209,72.6662 16.1754,72.4995 22.5,72C 23,71.5 23.5,71 24,70.5C 24.4999,58.1712 24.6665,45.8378 24.5,33.5C 32.7524,33.1842 40.919,33.5175 49,34.5C 49.4999,47.8292 49.6666,61.1625 49.5,74.5C 52.3938,74.9577 54.8938,74.291 57,72.5C 57.1667,61 57.3333,49.5 57.5,38C 57.499,26.1467 56.8323,14.6467 55.5,3.5C 53.8333,3.5 52.1667,3.5 50.5,3.5C 50.8004,11.2233 50.4671,18.8899 49.5,26.5C 38.1862,27.4988 26.8529,27.8322 15.5,27.5C 15.8306,20.1365 15.4973,12.8032 14.5,5.5C 11.7877,3.73966 8.78773,3.07299 5.5,3.5C 3.82665,4.34301 2.65999,5.67634 2,7.5C 1.33333,28.1667 1.33333,48.8333 2,69.5C 2.5,70 3,70.5 3.5,71C 2.0993,71.4101 0.765972,71.9101 -0.5,72.5C -0.5,49.8333 -0.5,27.1667 -0.5,4.5C 0.5,4.5 1.5,4.5 2.5,4.5C 2.83084,2.67761 3.49751,1.01094 4.5,-0.5 Z"/></g>
<g><path style="opacity:0.176" fill="#00471b" d="M 385.5,24.5 C 394.5,24.5 403.5,24.5 412.5,24.5C 412.5,30.5 412.5,36.5 412.5,42.5C 403.207,43.4183 393.873,43.7517 384.5,43.5C 384.249,37.1082 384.582,30.7748 385.5,24.5 Z M 388.5,28.5 C 388.5,32.8333 388.5,37.1667 388.5,41.5C 395.167,41.5 401.833,41.5 408.5,41.5C 408.5,37.1667 408.5,32.8333 408.5,28.5C 401.833,28.5 395.167,28.5 388.5,28.5 Z"/></g>
<g><path style="opacity:0.183" fill="#003817" d="M 464.5,18.5 C 467.962,17.5184 471.629,17.185 475.5,17.5C 475.334,23.8421 475.5,30.1754 476,36.5C 478.471,38.8199 480.971,41.1532 483.5,43.5C 484.497,50.8032 484.831,58.1365 484.5,65.5C 488.167,65.5 491.833,65.5 495.5,65.5C 495.5,49.5 495.5,33.5 495.5,17.5C 499.833,17.5 504.167,17.5 508.5,17.5C 508.83,35.6744 508.497,53.6744 507.5,71.5C 506.708,54.1977 506.208,36.8644 506,19.5C 503.619,18.565 501.119,18.2317 498.5,18.5C 498.5,34.5 498.5,50.5 498.5,66.5C 492.907,66.8066 487.407,66.4732 482,65.5C 481.828,58.654 481.328,51.9874 480.5,45.5C 478.563,44.4097 476.73,43.0764 475,41.5C 473.644,33.9048 473.144,26.2382 473.5,18.5C 470.5,18.5 467.5,18.5 464.5,18.5 Z"/></g>
<g><path style="opacity:0.799" fill="#005d2b" d="M 5.5,3.5 C 4.5209,26.1214 4.18757,48.788 4.5,71.5C 10.1764,71.6661 15.8431,71.4994 21.5,71C 22,70.5 22.5,70 23,69.5C 23.4999,57.1712 23.6665,44.8378 23.5,32.5C 32.1731,32.3336 40.8397,32.5002 49.5,33C 50,33.5 50.5,34 51,34.5C 51.4999,47.1623 51.6666,59.8289 51.5,72.5C 52.8333,72.5 54.1667,72.5 55.5,72.5C 55.5,49.5 55.5,26.5 55.5,3.5C 56.8323,14.6467 57.499,26.1467 57.5,38C 57.3333,49.5 57.1667,61 57,72.5C 54.8938,74.291 52.3938,74.9577 49.5,74.5C 49.6666,61.1625 49.4999,47.8292 49,34.5C 40.919,33.5175 32.7524,33.1842 24.5,33.5C 24.6665,45.8378 24.4999,58.1712 24,70.5C 23.5,71 23,71.5 22.5,72C 16.1754,72.4995 9.84209,72.6662 3.5,72.5C 3.5,73.8333 3.5,75.1667 3.5,76.5C 2.59603,75.791 2.26269,74.791 2.5,73.5C 1.5,73.5 0.5,73.5 -0.5,73.5C -0.5,73.1667 -0.5,72.8333 -0.5,72.5C 0.765972,71.9101 2.0993,71.4101 3.5,71C 3,70.5 2.5,70 2,69.5C 1.33333,48.8333 1.33333,28.1667 2,7.5C 2.65999,5.67634 3.82665,4.34301 5.5,3.5 Z"/></g>
<g><path style="opacity:0.953" fill="#007846" d="M 5.5,3.5 C 8.78773,3.07299 11.7877,3.73966 14.5,5.5C 15.4973,12.8032 15.8306,20.1365 15.5,27.5C 26.8529,27.8322 38.1862,27.4988 49.5,26.5C 50.4671,18.8899 50.8004,11.2233 50.5,3.5C 52.1667,3.5 53.8333,3.5 55.5,3.5C 55.5,26.5 55.5,49.5 55.5,72.5C 54.1667,72.5 52.8333,72.5 51.5,72.5C 51.6666,59.8289 51.4999,47.1623 51,34.5C 50.5,34 50,33.5 49.5,33C 40.8397,32.5002 32.1731,32.3336 23.5,32.5C 23.6665,44.8378 23.4999,57.1712 23,69.5C 22.5,70 22,70.5 21.5,71C 15.8431,71.4994 10.1764,71.6661 4.5,71.5C 4.18757,48.788 4.5209,26.1214 5.5,3.5 Z"/></g>
<g><path style="opacity:0.439" fill="#024219" d="M 464.5,19.5 C 466.485,35.1317 467.151,51.1317 466.5,67.5C 460.242,67.8097 454.076,67.4764 448,66.5C 447.831,59.4764 447.331,52.4764 446.5,45.5C 444.878,44.0672 443.545,42.4005 442.5,40.5C 441.833,34.1667 441.167,27.8333 440.5,21.5C 436.299,18.872 432.133,18.872 428,21.5C 426.923,38.6286 427.423,55.6286 429.5,72.5C 453.833,72.5 478.167,72.5 502.5,72.5C 504.415,54.9637 505.081,37.2971 504.5,19.5C 502.833,19.5 501.167,19.5 499.5,19.5C 499.5,35.5 499.5,51.5 499.5,67.5C 493.167,67.5 486.833,67.5 480.5,67.5C 480.5,60.1667 480.5,52.8333 480.5,45.5C 481.328,51.9874 481.828,58.654 482,65.5C 487.407,66.4732 492.907,66.8066 498.5,66.5C 498.5,50.5 498.5,34.5 498.5,18.5C 501.119,18.2317 503.619,18.565 506,19.5C 506.208,36.8644 506.708,54.1977 507.5,71.5C 506.032,72.8057 504.699,74.3057 503.5,76C 478.5,76.6667 453.5,76.6667 428.5,76C 427.352,74.3513 426.019,72.8513 424.5,71.5C 423.167,54.8333 423.167,38.1667 424.5,21.5C 426.925,18.5741 430.091,17.2407 434,17.5C 437.292,17.8241 440.459,18.4908 443.5,19.5C 443.334,25.1764 443.501,30.8431 444,36.5C 445.983,38.9837 448.15,41.3171 450.5,43.5C 451.497,50.8032 451.831,58.1365 451.5,65.5C 455.833,65.5 460.167,65.5 464.5,65.5C 464.5,50.1667 464.5,34.8333 464.5,19.5 Z"/></g>
<g><path style="opacity:0.953" fill="#007644" d="M 464.5,19.5 C 464.5,19.1667 464.5,18.8333 464.5,18.5C 467.5,18.5 470.5,18.5 473.5,18.5C 473.144,26.2382 473.644,33.9048 475,41.5C 476.73,43.0764 478.563,44.4097 480.5,45.5C 480.5,52.8333 480.5,60.1667 480.5,67.5C 486.833,67.5 493.167,67.5 499.5,67.5C 499.5,51.5 499.5,35.5 499.5,19.5C 501.167,19.5 502.833,19.5 504.5,19.5C 505.081,37.2971 504.415,54.9637 502.5,72.5C 478.167,72.5 453.833,72.5 429.5,72.5C 427.423,55.6286 426.923,38.6286 428,21.5C 432.133,18.872 436.299,18.872 440.5,21.5C 441.167,27.8333 441.833,34.1667 442.5,40.5C 443.545,42.4005 444.878,44.0672 446.5,45.5C 447.331,52.4764 447.831,59.4764 448,66.5C 454.076,67.4764 460.242,67.8097 466.5,67.5C 467.151,51.1317 466.485,35.1317 464.5,19.5 Z"/></g>
<g><path style="opacity:0.192" fill="#014219" d="M 211.5,17.5 C 227.339,16.8699 243.006,17.5366 258.5,19.5C 259.833,29.5 259.833,39.5 258.5,49.5C 257.713,50.2421 257.047,51.0754 256.5,52C 249.508,52.4996 242.508,52.6663 235.5,52.5C 235.5,56.8333 235.5,61.1667 235.5,65.5C 239.833,65.5 244.167,65.5 248.5,65.5C 248.5,62.5 248.5,59.5 248.5,56.5C 252.167,56.5 255.833,56.5 259.5,56.5C 259.911,63.334 259.244,70.0007 257.5,76.5C 242.255,76.8242 227.089,76.4908 212,75.5C 211.692,74.6919 211.192,74.0253 210.5,73.5C 210.167,64.5 209.833,55.5 209.5,46.5C 209.552,36.6742 210.218,27.0075 211.5,17.5 Z M 229.5,28.5 C 235.833,28.5 242.167,28.5 248.5,28.5C 248.5,32.8333 248.5,37.1667 248.5,41.5C 242.167,41.5 235.833,41.5 229.5,41.5C 229.5,37.1667 229.5,32.8333 229.5,28.5 Z"/></g>
<g><path style="opacity:0.952" fill="#007643" d="M 215.5,19.5 C 228.171,19.3334 240.838,19.5001 253.5,20C 254.931,20.4652 256.097,21.2986 257,22.5C 257.667,30.5 257.667,38.5 257,46.5C 256.5,47 256,47.5 255.5,48C 248.174,48.4997 240.841,48.6663 233.5,48.5C 233.5,54.8333 233.5,61.1667 233.5,67.5C 239.878,67.7054 246.211,67.3721 252.5,66.5C 252.5,64.5 252.5,62.5 252.5,60.5C 254.167,60.5 255.833,60.5 257.5,60.5C 257.68,64.682 257.013,68.682 255.5,72.5C 240.991,73.1264 226.657,72.4598 212.5,70.5C 211.334,54.5104 211.167,38.5104 212,22.5C 213.729,22.0257 214.895,21.0257 215.5,19.5 Z M 229.5,28.5 C 229.5,32.8333 229.5,37.1667 229.5,41.5C 235.833,41.5 242.167,41.5 248.5,41.5C 248.5,37.1667 248.5,32.8333 248.5,28.5C 242.167,28.5 235.833,28.5 229.5,28.5 Z"/></g>
<g><path style="opacity:0.369" fill="#00491c" d="M 225.5,24.5 C 233.84,24.3336 242.173,24.5003 250.5,25C 251,25.5 251.5,26 252,26.5C 252.167,29.1667 252.333,31.8333 252.5,34.5C 252.438,37.6128 251.771,40.4461 250.5,43C 242.173,43.4997 233.84,43.6664 225.5,43.5C 225.5,37.1667 225.5,30.8333 225.5,24.5 Z M 229.5,28.5 C 229.5,32.8333 229.5,37.1667 229.5,41.5C 235.833,41.5 242.167,41.5 248.5,41.5C 248.5,37.1667 248.5,32.8333 248.5,28.5C 242.167,28.5 235.833,28.5 229.5,28.5 Z"/></g>
<g><path style="opacity:0.192" fill="#00431a" d="M 270.5,-0.5 C 274.167,-0.5 277.833,-0.5 281.5,-0.5C 284.906,4.92195 286.239,10.922 285.5,17.5C 295.19,17.1682 304.856,17.5016 314.5,18.5C 315.612,19.2652 316.279,20.2652 316.5,21.5C 317.137,37.2949 317.804,52.9615 318.5,68.5C 317.493,71.3583 315.827,73.8583 313.5,76C 298.833,76.6667 284.167,76.6667 269.5,76C 268.953,75.0754 268.287,74.2421 267.5,73.5C 266.167,50.5 266.167,27.5 267.5,4.5C 268.695,2.87942 269.695,1.21275 270.5,-0.5 Z M 285.5,28.5 C 292.167,28.5 298.833,28.5 305.5,28.5C 305.5,40.8333 305.5,53.1667 305.5,65.5C 301.833,65.5 298.167,65.5 294.5,65.5C 294.666,58.4921 294.5,51.4921 294,44.5C 291.349,42.3501 288.849,40.0168 286.5,37.5C 285.516,34.5719 285.183,31.5719 285.5,28.5 Z"/></g>
<g><path style="opacity:0.953" fill="#007846" d="M 272.5,3.5 C 276.007,2.99353 279.174,3.66019 282,5.5C 282.197,10.0855 282.697,14.5855 283.5,19C 293.184,19.1679 302.851,19.6679 312.5,20.5C 312.808,21.3081 313.308,21.9747 314,22.5C 315.075,39.2958 314.575,55.9624 312.5,72.5C 298.5,72.5 284.5,72.5 270.5,72.5C 269.898,49.376 270.564,26.376 272.5,3.5 Z M 285.5,28.5 C 285.183,31.5719 285.516,34.5719 286.5,37.5C 288.849,40.0168 291.349,42.3501 294,44.5C 294.5,51.4921 294.666,58.4921 294.5,65.5C 298.167,65.5 301.833,65.5 305.5,65.5C 305.5,53.1667 305.5,40.8333 305.5,28.5C 298.833,28.5 292.167,28.5 285.5,28.5 Z"/></g>
<g><path style="opacity:0.223" fill="#00451b" d="M 284.5,24.5 C 291.841,24.3337 299.174,24.5003 306.5,25C 307.416,25.3742 308.25,25.8742 309,26.5C 309.667,39.8333 309.667,53.1667 309,66.5C 302.924,67.4764 296.758,67.8097 290.5,67.5C 290.83,60.8002 290.497,54.1335 289.5,47.5C 282.472,40.9531 280.805,33.2865 284.5,24.5 Z M 285.5,28.5 C 285.183,31.5719 285.516,34.5719 286.5,37.5C 288.849,40.0168 291.349,42.3501 294,44.5C 294.5,51.4921 294.666,58.4921 294.5,65.5C 298.167,65.5 301.833,65.5 305.5,65.5C 305.5,53.1667 305.5,40.8333 305.5,28.5C 298.833,28.5 292.167,28.5 285.5,28.5 Z"/></g>
<g><path style="opacity:1" fill="#fefffe" d="M 93.5,244.5 C 69.8333,244.5 46.1667,244.5 22.5,244.5C 21.5705,242.564 20.2372,240.897 18.5,239.5C 17.1667,219.833 17.1667,200.167 18.5,180.5C 21.1926,177.473 24.1926,174.807 27.5,172.5C 28.1667,164.5 28.8333,156.5 29.5,148.5C 31.1603,146.007 33.1603,143.84 35.5,142C 48.8333,141.333 62.1667,141.333 75.5,142C 76.4692,146.737 76.8025,151.57 76.5,156.5C 69.1667,156.5 61.8333,156.5 54.5,156.5C 54.5,162.5 54.5,168.5 54.5,174.5C 63.8333,174.5 73.1667,174.5 82.5,174.5C 82.5,169.5 82.5,164.5 82.5,159.5C 87.8333,159.5 93.1667,159.5 98.5,159.5C 98.5,164.5 98.5,169.5 98.5,174.5C 103.544,174.173 108.544,174.506 113.5,175.5C 115.359,179.922 116.026,184.588 115.5,189.5C 109.833,189.5 104.167,189.5 98.5,189.5C 98.5,206.167 98.5,222.833 98.5,239.5C 95.7361,239.999 94.0695,241.665 93.5,244.5 Z M 54.5,189.5 C 63.8333,189.5 73.1667,189.5 82.5,189.5C 82.5,202.5 82.5,215.5 82.5,228.5C 73.1667,228.5 63.8333,228.5 54.5,228.5C 54.5,215.5 54.5,202.5 54.5,189.5 Z"/></g>
<g><path style="opacity:1" fill="#fefefe" d="M 302.5,244.5 C 297.167,244.5 291.833,244.5 286.5,244.5C 285.19,242.852 283.857,241.186 282.5,239.5C 281.5,211.841 281.167,184.175 281.5,156.5C 275.833,156.5 270.167,156.5 264.5,156.5C 264.817,185.877 264.484,215.211 263.5,244.5C 258.5,244.5 253.5,244.5 248.5,244.5C 248.5,215.167 248.5,185.833 248.5,156.5C 239.167,156.5 229.833,156.5 220.5,156.5C 220.172,161.875 220.505,167.208 221.5,172.5C 224.877,175.708 228.044,179.042 231,182.5C 231.833,200.842 231.666,219.176 230.5,237.5C 228.822,240.173 226.822,242.506 224.5,244.5C 215.833,244.5 207.167,244.5 198.5,244.5C 197.952,242.606 196.952,240.94 195.5,239.5C 194.167,208.5 194.167,177.5 195.5,146.5C 196.648,144.851 197.981,143.351 199.5,142C 216.5,141.333 233.5,141.333 250.5,142C 252.679,143.257 254.679,144.757 256.5,146.5C 257.354,145.052 258.354,143.719 259.5,142.5C 273.154,141.334 286.821,141.167 300.5,142C 302.626,144.016 304.626,146.183 306.5,148.5C 307.833,178.167 307.833,207.833 306.5,237.5C 305.408,240.024 304.074,242.357 302.5,244.5 Z"/></g>
<g><path style="opacity:1" fill="#fefffe" d="M 460.5,244.5 C 440.833,244.5 421.167,244.5 401.5,244.5C 400.952,242.606 399.952,240.94 398.5,239.5C 397.167,215.5 397.167,191.5 398.5,167.5C 399.5,166.5 400.5,165.5 401.5,164.5C 414.483,163.501 427.483,163.168 440.5,163.5C 440.334,158.156 440.501,152.823 441,147.5C 442.697,146.043 444.197,144.377 445.5,142.5C 450.5,141.167 455.5,141.167 460.5,142.5C 461.646,143.719 462.646,145.052 463.5,146.5C 464.833,177.5 464.833,208.5 463.5,239.5C 462.305,241.121 461.305,242.787 460.5,244.5 Z M 412.5,178.5 C 421.833,178.5 431.167,178.5 440.5,178.5C 440.666,182.846 440.499,187.179 440,191.5C 437.35,194.651 434.516,197.651 431.5,200.5C 430.502,209.81 430.168,219.143 430.5,228.5C 424.5,228.5 418.5,228.5 412.5,228.5C 412.5,211.833 412.5,195.167 412.5,178.5 Z"/></g>
<g><path style="opacity:1" fill="#fefffe" d="M 383.5,244.5 C 364.167,244.5 344.833,244.5 325.5,244.5C 324.498,242.989 323.831,241.322 323.5,239.5C 321.857,239.52 320.524,238.853 319.5,237.5C 318.334,215.841 318.167,194.174 319,172.5C 320.276,169.111 322.442,166.445 325.5,164.5C 344.825,163.334 364.158,163.167 383.5,164C 385,165.5 386.5,167 388,168.5C 388.833,192.174 388.666,215.84 387.5,239.5C 386.143,241.186 384.81,242.852 383.5,244.5 Z M 344.5,178.5 C 354.167,178.5 363.833,178.5 373.5,178.5C 373.5,195.167 373.5,211.833 373.5,228.5C 367.5,228.5 361.5,228.5 355.5,228.5C 355.832,219.143 355.498,209.81 354.5,200.5C 351.473,197.473 348.473,194.473 345.5,191.5C 344.508,187.217 344.174,182.884 344.5,178.5 Z"/></g>
<g><path style="opacity:1" fill="#fefefe" d="M 545.5,170.5 C 545.5,176.833 545.5,183.167 545.5,189.5C 540.5,189.5 535.5,189.5 530.5,189.5C 530.5,185.833 530.5,182.167 530.5,178.5C 521.167,178.5 511.833,178.5 502.5,178.5C 502.5,184.5 502.5,190.5 502.5,196.5C 514.851,196.168 527.185,196.501 539.5,197.5C 541.247,199.59 543.247,201.257 545.5,202.5C 545.5,214.833 545.5,227.167 545.5,239.5C 543.188,240.478 541.522,242.145 540.5,244.5C 520.5,244.5 500.5,244.5 480.5,244.5C 479.931,241.665 478.264,239.999 475.5,239.5C 475.5,232.5 475.5,225.5 475.5,218.5C 480.511,218.334 485.511,218.501 490.5,219C 491.451,222.057 491.784,225.223 491.5,228.5C 497.167,228.5 502.833,228.5 508.5,228.5C 508.5,222.833 508.5,217.167 508.5,211.5C 499.143,211.832 489.81,211.498 480.5,210.5C 479.149,208.981 477.649,207.648 476,206.5C 475.187,194.121 475.354,181.787 476.5,169.5C 478.35,167.482 480.35,165.649 482.5,164C 501.509,163.167 520.509,163.334 539.5,164.5C 541.55,166.617 543.55,168.617 545.5,170.5 Z"/></g>
</svg>
