<?xml version="1.0" encoding="UTF-8" standalone="no"?>
<!-- Generator: Adobe Illustrator 26.0.3, SVG Export Plug-In . SVG Version: 6.00 Build 0)  -->

<svg
   version="1.1"
   id="Layer_1"
   x="0px"
   y="0px"
   viewBox="0 0 4689.0001 982"
   xml:space="preserve"
   width="4689"
   height="982"
   sodipodi:docname="laserdisc.svg"
   inkscape:version="1.3.2 (091e20e, 2023-11-25, custom)"
   xmlns:inkscape="http://www.inkscape.org/namespaces/inkscape"
   xmlns:sodipodi="http://sodipodi.sourceforge.net/DTD/sodipodi-0.dtd"
   xmlns:xlink="http://www.w3.org/1999/xlink"
   xmlns="http://www.w3.org/2000/svg"
   xmlns:svg="http://www.w3.org/2000/svg"><sodipodi:namedview
   id="namedview1"
   pagecolor="#090909"
   bordercolor="#000000"
   borderopacity="0.25"
   inkscape:showpageshadow="2"
   inkscape:pageopacity="0.0"
   inkscape:pagecheckerboard="0"
   inkscape:deskcolor="#d1d1d1"
   inkscape:zoom="0.40456387"
   inkscape:cx="2344.5"
   inkscape:cy="490.65182"
   inkscape:window-width="2560"
   inkscape:window-height="1316"
   inkscape:window-x="-12"
   inkscape:window-y="-12"
   inkscape:window-maximized="1"
   inkscape:current-layer="Layer_1" /><defs
   id="defs148"><linearGradient
   id="linearGradient34773"
   gradientUnits="userSpaceOnUse"
   x1="15.196"
   y1="312.37051"
   x2="3854.196"
   y2="312.37051"
   gradientTransform="translate(1160.9631,-2.2896484e-5)">
				<stop
   offset="0"
   style="stop-color:#f3dd42;stop-opacity:1"
   id="stop34769" />
				<stop
   offset="1"
   style="stop-color:#d7861b;stop-opacity:1"
   id="stop34771" />
			</linearGradient>
	
	

		
	
			<linearGradient
   id="SVGID_1_"
   gradientUnits="userSpaceOnUse"
   x1="15.196"
   y1="312.37051"
   x2="3854.196"
   y2="312.37051"
   gradientTransform="translate(1160.9631,-2.2896484e-5)">
				<stop
   offset="0"
   style="stop-color:#FF2422"
   id="stop4" />
				<stop
   offset="1"
   style="stop-color:#C24FFF"
   id="stop6" />
			</linearGradient>
			
		<linearGradient
   xlink:href="#linearGradient34773"
   id="linearGradient6574"
   gradientUnits="userSpaceOnUse"
   gradientTransform="translate(833.68668,630.53366)"
   x1="15.196"
   y1="312.37051"
   x2="3588.2239"
   y2="316.50259" /></defs>
<style
   type="text/css"
   id="style2">
	.st0{fill:#FFFFFF;}
	.st1{fill:#FF0000;}
	.st2{fill:url(#SVGID_1_);}
	.st3{fill:url(#SVGID_00000060022068257817767130000001067164073883981741_);}
	.st4{fill:url(#SVGID_00000144308182761068376180000004131709304805192586_);}
	.st5{fill:url(#SVGID_00000000935997520668853970000011105419993307822477_);}
	.st6{fill:url(#SVGID_00000018200174457167754170000000853354448091225986_);}
	.st7{fill:url(#SVGID_00000072987630451721579260000010409738167651109522_);}
	.st8{fill:#3636FF;}
	.st9{display:none;}
	.st10{display:inline;}
	.st11{enable-background:new    ;}
	.st12{fill:url(#SVGID_00000099639162208554751810000013272208193612295339_);}
	.st13{fill:url(#SVGID_00000158736166008707814920000018426778185460247990_);}
	.st14{fill:url(#SVGID_00000133527000259551881150000004185836194023049859_);}
	.st15{fill:url(#SVGID_00000093164219829473752460000004603917870326250679_);}
	.st16{fill:url(#SVGID_00000156556395246081825560000005894267688922753411_);}
	.st17{fill:url(#SVGID_00000135690321830567168220000000437954853257014148_);}
	.st18{fill:url(#SVGID_00000040565659643257570880000002075315462357006765_);}
	.st19{fill:url(#SVGID_00000017508175736194757820000008863537906517323707_);}
	.st20{fill:url(#SVGID_00000126293465477839731700000000626789561221784705_);}
	.st21{fill:url(#SVGID_00000087403315896914670680000008996143154280075168_);}
	.st22{fill:url(#SVGID_00000151540686432933406660000011628697137491540393_);}
	.st23{fill:url(#SVGID_00000143589059756432772880000012524823099024141722_);}
	.st24{fill:url(#SVGID_00000052088033699595628130000015515451372212444082_);}
	.st25{fill:url(#SVGID_00000126294377186336552610000001799937443100725399_);}
	.st26{fill:url(#SVGID_00000070835762807858034660000013936331226864194476_);}
	.st27{fill:url(#SVGID_00000092457199491666826160000016742156659903073436_);}
	.st28{fill:url(#SVGID_00000138556585880754416440000017272986633013561527_);}
	.st29{fill:url(#SVGID_00000032624778419303139080000015394367773870234245_);}
	.st30{fill:url(#SVGID_00000040539262103052545880000003837399106474199717_);}
	.st31{fill:url(#SVGID_00000115483974547727894610000006699104590764616355_);}
	.st32{fill:url(#SVGID_00000041285316495664937430000010139118778734034608_);}
	.st33{fill:url(#SVGID_00000178199001922562380240000009661348160359078294_);}
	.st34{fill:url(#SVGID_00000145019290134935790460000010249637267404127883_);}
	.st35{fill:url(#SVGID_00000117636406951782473700000003654222835714608307_);}
	.st36{fill:url(#SVGID_00000158745280490234840560000003483236744759648947_);}
	.st37{fill:url(#SVGID_00000146474604070782972690000015670225624893543309_);}
	.st38{fill:url(#SVGID_00000173847499186819278890000011550608873747634579_);}
	.st39{fill:url(#SVGID_00000141427567100195222880000010417319602782459071_);}
</style>

<g
   id="g1579"
   transform="matrix(6.3149202,0,0,6.3149202,-1808.9749,-4903.7453)"
   style="fill:#000000;opacity:1"><path
     id="path40"
     style="stroke-width:4.22495;fill:#000000"
     d="m 1023.9945,801.46735 c -0.097,0.11631 -0.1858,0.28751 -0.1302,0.21248 0.043,-0.0576 0.087,-0.13199 0.1302,-0.21248 z" /><polygon
     fill-rule="evenodd"
     clip-rule="evenodd"
     points="5.7451172,0 15.874512,0 12.246094,21.316895 2.4189453,21.316895 "
     id="polygon4"
     transform="matrix(4.2249535,0,0,4.2249535,286.4604,776.57085)"
     style="fill:#000000" /><polygon
     fill-rule="evenodd"
     clip-rule="evenodd"
     points="11.490234,26.910645 19.805664,26.910645 18.595703,35.527832 0,35.527832 1.8144531,24.492676 11.79248,24.492676 "
     id="polygon6"
     transform="matrix(4.2249535,0,0,4.2249535,286.4604,776.57085)"
     style="fill:#000000" /><polygon
     fill-rule="evenodd"
     clip-rule="evenodd"
     points="131.83398,1.8144531 141.05566,1.8144531 140.14941,7.8613281 130.92676,7.8613281 "
     id="polygon8"
     transform="matrix(4.2249535,0,0,4.2249535,286.4604,776.57085)"
     style="fill:#000000" /><polygon
     fill-rule="evenodd"
     clip-rule="evenodd"
     points="130.54883,10.431641 139.77051,10.431641 138.1084,21.619629 128.88574,21.619629 "
     id="polygon10"
     transform="matrix(4.2249535,0,0,4.2249535,286.4604,776.57085)"
     style="fill:#000000" /><polygon
     fill-rule="evenodd"
     clip-rule="evenodd"
     points="128.43262,24.492676 137.6543,24.492676 135.99121,35.527832 126.76855,35.527832 "
     id="polygon12"
     transform="matrix(4.2249535,0,0,4.2249535,286.4604,776.57085)"
     style="fill:#000000" /><polygon
     fill-rule="evenodd"
     clip-rule="evenodd"
     points="86.251465,24.492676 95.473633,24.492676 93.810547,35.527832 84.588379,35.527832 "
     id="polygon14"
     transform="matrix(4.2249535,0,0,4.2249535,286.4604,776.57085)"
     style="fill:#000000" /><path
     fill-rule="evenodd"
     clip-rule="evenodd"
     d="m 412.61076,880.05129 c -0.32786,3.01192 -0.55495,6.84903 -0.21674,10.29832 0.46415,4.20844 2.09802,7.57522 6.09191,7.57522 5.26058,0 8.42929,-4.62933 10.24674,-10.09207 1.02738,-2.84685 1.76181,-5.19867 2.29402,-7.88051 l 36.31027,-0.0989 -7.39777,46.95309 h -32.28131 l 1.89587,-9.34935 c -7.99809,10.17453 -14.40363,12.62534 -27.86446,12.62534 -25.70664,0 -29.81397,-28.51844 -28.18424,-50.02277 l 39.10558,-0.008 z"
     id="path16"
     style="stroke-width:4.22495;fill:#000000" /><path
     fill-rule="evenodd"
     clip-rule="evenodd"
     d="m 432.64629,867.91279 c 0.0296,-2.6736 -0.004,-4.25796 -0.13393,-6.13113 -0.3756,-4.84387 -1.89177,-9.04613 -6.72735,-9.04613 -5.04806,0 -8.06827,5.0481 -10.18282,11.15033 -0.30124,0.94896 -0.56526,1.86493 -1.75145,4.01041 l -39.44387,-0.0254 c 5.23581,-22.48407 17.01946,-48.78689 42.69514,-49.31708 7.00996,-0.1445 20.10359,0.81283 25.22593,10.82851 l 1.11813,0.21674 1.65656,-9.05023 h 31.63557 l -7.2864,47.36363 z"
     id="path18"
     style="stroke-width:4.22495;fill:#000000" /><path
     fill-rule="evenodd"
     clip-rule="evenodd"
     d="m 479.0465,867.91279 c -2.35592,-4.70356 -3.33995,-10.33133 -2.40336,-17.02978 3.20378,-22.92781 20.43986,-34.56502 46.30946,-34.56502 11.14619,0 18.89471,2.61791 27.8067,8.08479 l -4.2435,29.44057 c -6.46946,-5.41322 -18.18505,-8.28898 -25.12694,-8.28898 -2.94386,0 -6.60149,0.69522 -7.50094,4.18989 -1.30999,5.07282 4.3735,7.86196 11.2865,10.30449 5.71644,2.02173 10.57476,4.52201 14.4531,7.81452 l -60.58102,0.0494 z"
     id="path20"
     style="stroke-width:4.22495;fill:#000000" /><path
     fill-rule="evenodd"
     clip-rule="evenodd"
     d="m 548.46528,880.15028 c 1.75973,4.82735 2.28578,10.63666 1.42964,16.76778 -3.50084,25.02791 -24.97839,34.4433 -47.90206,34.4433 -15.14422,0 -21.51469,-2.82214 -33.55619,-9.97651 l 5.38432,-32.94145 c 4.10121,5.25647 17.99941,13.64034 27.29925,13.16174 3.57097,-0.18167 10.78309,-2.64059 11.34011,-6.63449 0.55905,-3.99393 -1.15941,-6.93982 -10.13123,-9.79496 -4.19812,-1.32858 -8.18792,-2.73963 -11.72175,-4.91814 l 57.85791,-0.10731 z"
     id="path22"
     style="stroke-width:4.22495;fill:#000000" /><path
     fill-rule="evenodd"
     clip-rule="evenodd"
     d="m 591.11297,880.06777 c -1.55136,9.39063 -1.90617,24.13669 6.65515,25.17645 5.51428,0.67663 11.2617,-3.79587 13.00491,-15.12567 h 34.63309 c -6.03628,35.59853 -26.89901,42.05975 -51.71652,41.8782 -27.03928,-0.19815 -43.22736,-22.21404 -41.24281,-51.9785 l 38.66618,0.0494 z"
     id="path24"
     style="stroke-width:4.22495;fill:#000000" /><path
     fill-rule="evenodd"
     clip-rule="evenodd"
     d="m 954.57246,867.90455 c 5.07898,-27.90574 18.67395,-50.70152 57.54844,-51.58656 7.6289,-0.17322 13.694,2.40958 16.8668,4.25385 l -5.0254,30.21628 c -15.4268,-6.25492 -23.8189,6.02385 -26.78135,17.16594 z"
     id="path26"
     style="stroke-width:4.22495;fill:#000000" /><path
     fill-rule="evenodd"
     clip-rule="evenodd"
     d="m 996.28973,880.06777 c 1.03972,6.95634 5.04597,13.44228 12.84817,13.44228 l 8.4829,-0.64363 -4.9429,33.8161 c -6.0238,1.59264 -11.7713,2.54985 -19.56926,2.44257 -29.67781,-0.4208 -41.84107,-22.23876 -40.11644,-49.09856 l 43.29753,0.0422 z"
     id="path28"
     style="stroke-width:4.22495;fill:#000000" /><path
     fill-rule="evenodd"
     clip-rule="evenodd"
     d="m 777.05013,880.06777 c -4.6458,7.52569 -9.2916,13.07095 -19.82922,12.11374 l 1.81952,-12.14674 -41.03237,0.0254 -7.41843,46.61476 h 41.51925 c 34.35661,0 57.94456,-15.02664 69.50543,-46.71379 l -44.56418,0.10731 z"
     id="path30"
     style="stroke-width:4.22495;fill:#000000" /><path
     fill-rule="evenodd"
     clip-rule="evenodd"
     d="m 760.58765,867.93754 8.13223,-52.40138 c 16.60685,0 20.43572,12.77385 17.24224,35.7677 -0.79627,5.74948 -1.91441,11.81457 -3.41211,16.72444 l 43.2026,0.0494 c 1.56374,-6.46946 2.24865,-13.65062 3.00783,-21.24442 5.74742,-57.48865 -25.54779,-70.26254 -56.84709,-70.26254 h -38.96531 l -5.42974,40.87972 c -6.3869,1.27699 -22.0366,3.19347 -30.34209,14.3727 -1.59674,1.59674 -2.55395,0.95721 -2.23623,-0.95928 l 1.59674,-10.21995 h -36.72495 l -7.02643,47.26874 h 38.96526 c 1.59264,-6.70876 19.16084,-16.60893 30.02028,-11.49897 l -1.82365,11.45769 40.64042,0.0659 z"
     id="path32-3"
     style="stroke-width:4.22495;fill:#000000" /><path
     fill-rule="evenodd"
     clip-rule="evenodd"
     d="m 878.907,867.91279 c -2.35591,-4.70356 -3.34202,-10.33133 -2.40543,-17.02978 3.20585,-22.92781 20.43986,-34.56502 46.30946,-34.56502 11.14826,0 18.89674,2.61791 27.80877,8.08479 l -4.24557,29.44057 c -6.46946,-5.41322 -18.18711,-8.28898 -25.12694,-8.28898 -2.94179,0 -6.60149,0.69522 -7.50094,4.18989 -1.30792,5.07282 4.3735,7.86196 11.28853,10.30449 5.71442,2.02173 10.57476,4.52201 14.44904,7.81452 l -60.57692,0.0494 z"
     id="path34"
     style="stroke-width:4.22495;fill:#000000" /><path
     fill-rule="evenodd"
     clip-rule="evenodd"
     d="m 948.32164,880.15028 c 1.7618,4.82735 2.28578,10.63666 1.43171,16.76778 -3.49877,25.02791 -24.97839,34.4433 -47.90206,34.4433 -15.14629,0 -21.51672,-2.82214 -33.55619,-9.97651 l 5.38433,-32.94145 c 4.10116,5.25647 17.99733,13.64034 27.29717,13.16174 3.57304,-0.18167 10.78516,-2.64059 11.34218,-6.63449 0.56112,-3.99393 -1.15941,-6.93982 -10.12916,-9.79496 -4.20019,-1.32858 -8.18998,-2.73963 -11.72179,-4.91814 l 57.85381,-0.10731 z"
     id="path36"
     style="stroke-width:4.22495;fill:#000000" /><path
     fill-rule="evenodd"
     clip-rule="evenodd"
     d="m 606.75848,816.31799 c -31.26423,0.21252 -46.64982,22.15215 -52.72112,51.57828 l 94.39923,0.0254 c 1.04386,-13.65269 0.55081,-26.87426 -3.57511,-32.87542 -7.1956,-10.46952 -16.66875,-18.87198 -38.103,-18.72758 z m 0.60861,24.64834 c 7.3627,0 8.55925,7.99192 7.91764,14.09005 h -19.14018 c 0.58381,-5.67728 4.28271,-14.09005 11.22254,-14.09005 z"
     id="path42"
     style="stroke-width:4.22495;fill:#000000" /><path
     style="opacity:1;fill:#f9f9f9;fill-rule:evenodd;stroke-width:2.47199998;stroke-dasharray:none"
     d="m 3740.0564,566.93602 c -10.2924,-24.72092 -11.952,-36.53048 -10.6863,-76.04558 1.4192,-44.3073 5.4843,-61.91048 22.6025,-97.87463 25.5719,-53.72517 71.0448,-94.39513 130.6234,-116.82674 38.4861,-14.49022 60.6769,-18.0617 121.7161,-19.58949 75.9077,-1.89994 100.5859,3.17185 159.9021,32.8626 26.3448,13.18694 26.4216,13.2516 25.3111,21.31339 -0.6126,4.44747 -3.3398,24.77095 -6.0606,45.16328 -7.0104,52.54509 -17.4726,120.71469 -18.8746,122.98314 -0.6528,1.05614 -5.8377,-0.93916 -11.5221,-4.43401 -45.4093,-27.91825 -131.3417,-47.5532 -166.0028,-37.9305 -5.4735,1.51957 -13.9649,6.86288 -19.1564,12.0544 -8.1677,8.16768 -9.325,10.78199 -9.325,21.06505 0,25.67159 10.7622,34.09094 82.291,64.37686 32.2356,13.64885 72.7876,34.84367 70.5317,36.86392 -0.4439,0.39756 -83.4009,1.53402 -184.3487,2.52546 l -183.5416,1.80261 z"
     id="path29"
     transform="matrix(0.15835513,0,0,0.15835513,286.46045,776.53322)" /><path
     style="opacity:1;fill:#f9f9f9;fill-rule:evenodd;stroke-width:6.11028;stroke-dasharray:none"
     d="M 67.973496,563.77078 C 67.97526,559.49647 154.67732,7.421877 155.89633,3.9229024 c 1.0374,-2.97766909 20.39861,-3.24751374 131.34438,-1.8305964 71.5702,0.9140413 130.69179,2.2260593 131.38132,2.9155954 0.68953,0.6895361 -3.42121,28.7648716 -9.135,62.3896366 -70.34946,413.996112 -84.32663,495.641342 -84.95914,496.273822 -2.00861,2.00861 -256.555223,2.10726 -256.554394,0.0994 z"
     id="path31"
     transform="matrix(0.15835513,0,0,0.15835513,286.46045,776.53322)" /><path
     style="opacity:1;fill:#f9f9f9;fill-rule:evenodd;stroke-width:6.11028;stroke-dasharray:none"
     d="M 67.973496,563.95097 C 67.974428,561.87202 143.02102,81.577084 151.45677,29.661571 l 4.41807,-27.1897734 130.71709,0.6115472 c 71.8944,0.3363508 131.292,1.1864497 131.99466,1.8891083 0.70265,0.7026587 -2.84638,25.4544139 -7.88677,55.0038979 -5.04037,29.549485 -26.33418,154.812439 -47.31957,278.362119 -20.98539,123.54968 -38.47813,224.95866 -38.87278,225.35331 -1.83803,1.83805 -256.534798,2.09539 -256.533974,0.25919 z"
     id="path32"
     transform="matrix(0.15835513,0,0,0.15835513,286.46045,776.53322)" /><path
     style="opacity:1;fill:#f9f9f9;fill-rule:evenodd;stroke-width:6.11028;stroke-dasharray:none"
     d="M 67.973496,563.95097 C 67.974428,561.87202 143.02102,81.577084 151.45677,29.661571 l 4.41807,-27.1897734 130.71709,0.6115472 c 71.8944,0.3363508 131.292,1.1864497 131.99466,1.8891083 0.70265,0.7026587 -2.84638,25.4544139 -7.88677,55.0038979 -5.04037,29.549485 -26.33418,154.812439 -47.31957,278.362119 -20.98539,123.54968 -38.47813,224.95866 -38.87278,225.35331 -1.83803,1.83805 -256.534798,2.09539 -256.533974,0.25919 z"
     id="path33"
     transform="matrix(0.15835513,0,0,0.15835513,286.46045,776.53322)" /></g><path
   style="fill:#0000ff;stroke-width:2.4718"
   d="M 66.712055,561.73787 C 67.435078,558.66699 86.949447,434.35663 110.07732,285.49262 133.20519,136.62861 152.74723,11.771936 153.50407,8.0333421 l 1.37607,-6.7974433 h 133.28067 c 105.04167,0 133.25485,0.654644 133.15882,3.089747 -0.067,1.6993608 -21.55971,128.7806542 -47.76151,282.4028742 l -47.63962,279.31312 -130.26052,0.63983 -130.260512,0.63982 z"
   id="path1"
   inkscape:label="path1" /><path
   style="fill:#0000ff;stroke-width:2.4718"
   d="M 2.5122357,939.90103 C 3.3374263,935.48269 14.252385,869.57839 26.767699,793.44702 L 49.522815,655.02636 181.1026,654.38675 c 124.18363,-0.60366 131.57539,-0.39525 131.50149,3.70769 -0.0431,2.39102 -1.6763,16.02655 -3.62939,30.30118 -1.95309,14.27464 -3.58631,27.33293 -3.62939,29.01844 -0.0609,2.38441 24.4789,3.20729 110.57032,3.70769 l 110.64866,0.64314 -15.84854,113.08474 -15.84853,113.08474 H 247.93956 1.0118894 Z"
   id="path2" /><path
   style="fill:#0000ff;stroke-width:2.4718"
   d="m 558.9032,567.91838 c 10.76707,-45.37177 32.3005,-105.38484 51.71267,-144.12176 32.74342,-65.3394 82.1886,-116.99876 133.85329,-139.84734 52.36752,-23.1594 132.24348,-22.9271 183.612,0.53401 19.53991,8.92429 37.96368,23.70474 47.07497,37.76588 8.96625,13.83727 16.20565,17.56693 18.06471,9.30674 0.6534,-2.90325 3.17063,-16.12364 5.59385,-29.37866 l 4.40581,-24.10002 h 98.7276 98.7276 l -1.3127,6.79744 c -0.722,3.73859 -11.0807,70.47713 -23.0193,148.30786 l -21.7066,141.51041 H 1039.2314 923.82572 l -1.03991,-29.16692 c -0.88006,-24.68332 -1.97181,-31.04723 -7.10212,-41.39903 -7.84366,-15.82676 -19.03383,-23.36236 -34.69247,-23.36236 -29.09701,0 -45.82859,17.11328 -65.24997,66.73853 l -10.15731,25.95388 -124.14963,0.64084 -124.14963,0.64083 z"
   id="path3" /><path
   style="fill:#0000ff;stroke-width:2.4718"
   d="m 692.10332,965.33256 c -28.81094,-6.22008 -55.97175,-20.82054 -76.1613,-40.94097 -44.60423,-44.45156 -65.96706,-116.91534 -65.96706,-223.76357 v -46.83756 h 122.64792 122.64793 l -1.63128,22.86413 c -1.97815,27.72564 1.58906,57.59844 8.49435,71.13392 15.40785,30.20184 57.25378,25.27884 80.53782,-9.47495 9.55354,-14.25963 30.6575,-69.69067 30.6575,-80.52412 0,-3.62626 10.61598,-3.99898 113.8991,-3.99898 h 113.8991 l -1.4007,6.79744 c -0.7703,3.7386 -10.8569,67.41828 -22.4145,141.51041 -11.5577,74.09214 -21.6039,137.21567 -22.325,140.27452 l -1.3109,5.56154 H 993.61554 c -55.03339,0 -100.01435,-0.83423 -99.95769,-1.85385 0.0567,-1.01961 2.68647,-14.36732 5.84402,-29.66157 3.15755,-15.29425 5.04585,-27.80772 4.19625,-27.80772 -0.84961,0 -6.4489,6.14588 -12.44286,13.6575 -13.24587,16.59975 -38.90787,37.85273 -56.18653,46.53307 -25.99026,13.0568 -45.57282,16.88729 -91.05766,17.8115 -23.11131,0.46962 -46.46979,-0.10673 -51.90775,-1.28074 z"
   id="path4" /><path
   style="fill:#0000ff;stroke-width:2.4718"
   d="m 1213.9846,567.89549 c -12.6851,-24.61767 -16.7817,-65.90581 -10.3535,-104.34906 22.7556,-136.08851 123.8891,-210.10895 287.157,-210.17261 41.5771,-0.0162 70.4229,3.9791 101.0495,13.99593 18.8646,6.16989 61.7389,26.30197 71.2042,33.43464 4.2715,3.21881 3.8973,7.29388 -8.6053,93.71091 l -13.0709,90.34577 -14.3329,-9.26376 c -29.4137,-19.01098 -74.7723,-33.72471 -120.9563,-39.23655 -47.8896,-5.71541 -71.1979,5.58441 -71.1979,34.51668 0,24.27324 16.118,36.94628 75.2273,59.14875 29.3351,11.01876 54.8546,23.8116 72.4377,36.31266 l 11.7501,8.35409 h -188.4032 -188.4031 z"
   id="path5" /><path
   style="fill:#0000ff;stroke-width:2.4718"
   d="m 1321.1758,974.98048 c -33.8305,-2.52022 -60.3127,-8.17376 -87.6308,-18.70787 -21.1489,-8.1552 -73.4698,-35.2658 -79.7156,-41.30549 -2.3084,-2.23216 0.727,-25.40234 13.5948,-103.77421 l 16.5668,-100.9004 7.0612,7.38262 c 20.2437,21.16522 70.7856,50.87713 108.6802,63.8894 17.5614,6.03029 23.9297,6.9389 48.6332,6.9389 24.1722,0 30.6008,-0.87689 42.9619,-5.86014 28.6069,-11.53258 41.9256,-30.72475 36.1659,-52.11472 -5.6182,-20.86433 -19.8475,-30.47094 -71.874,-48.52422 -18.2642,-6.33772 -39.3254,-14.6689 -46.8026,-18.51372 l -13.5949,-6.99059 179.557,-0.11889 179.5571,-0.11889 4.5919,17.92053 c 3.5199,13.73711 4.5349,26.28738 4.348,53.7616 -0.2995,43.99703 -6.8982,72.47664 -25.4861,109.99499 -28.1032,56.72444 -77.7566,96.98505 -147.507,119.60358 -44.6934,14.49312 -113.4543,21.58342 -169.107,17.43752 z"
   id="path6" /><path
   style="fill:#0000ff;stroke-width:2.4718"
   d="m 1894.191,976.52696 c -53.164,-9.3955 -97.8167,-32.94664 -134.5418,-70.96133 -51.003,-52.794 -77.7077,-125.38718 -78.4945,-213.37714 l -0.3323,-37.16213 120.8287,-0.64166 120.8288,-0.64166 -1.5359,10.52885 c -8.3511,57.24902 -2.4547,108.68499 15.1961,132.55862 19.6731,26.60886 63.0662,21.5406 87.0293,-10.1649 9.9787,-13.2028 21.6524,-41.36268 23.8779,-57.59926 l 1.5089,-11.00915 h 108.3614 108.3613 l -1.449,8.03334 c -9.7457,54.031 -30.7417,108.89085 -56.0509,146.454 -11.8438,17.5784 -40.2896,46.58246 -56.5134,57.62262 -29.8095,20.28516 -70.6415,35.93393 -114.5044,43.88348 -30.4802,5.52415 -116.8368,7.02408 -142.5702,2.47632 z"
   id="path7" /><path
   style="fill:#0000ff;stroke-width:2.4718"
   d="m 1943.4508,575.31101 c -138.3279,-0.35283 -251.5018,-1.47045 -251.4975,-2.48364 0.026,-6.07738 18.9457,-71.97842 26.3698,-91.85054 33.675,-90.13805 86.5933,-156.31196 154.0636,-192.65545 24.8723,-13.39773 65.0533,-26.52819 96.3471,-31.48466 32.3787,-5.12828 105.1011,-3.65283 133.53,2.70917 37.0061,8.28144 66.1846,20.72188 92.7032,39.52468 27.4085,19.43374 67.434,66.13412 76.2806,89.00165 13.8316,35.75311 19.5257,99.82048 14.795,166.46662 l -1.606,22.62589 -44.7402,-0.60611 c -24.6071,-0.33334 -157.9176,-0.89479 -296.2456,-1.24761 z m 133.6833,-103.81562 c -0.8586,-23.79815 -1.7257,-27.98503 -8.3068,-40.11032 -10.4632,-19.27781 -21.4512,-25.20446 -44.8873,-24.2111 -15.0667,0.63861 -19.3839,1.88527 -28.4256,8.20837 -18.4049,12.8709 -34.5288,42.19081 -40.3736,73.41563 l -1.735,9.26924 h 62.3435 62.3434 z"
   id="path8" /><path
   style="fill:#0000ff;stroke-width:2.4718"
   d="m 2828.3544,575.3119 c -68.1977,-0.52588 -88.3667,-1.37949 -88.3663,-3.73993 3e-4,-1.68218 2.2596,-16.9041 5.0206,-33.82648 2.7611,-16.92237 4.5241,-32.06072 3.9177,-33.64076 -1.8192,-4.74086 -23.4537,-8.84998 -46.0319,-8.74298 -26.3478,0.12486 -57.1823,8.54874 -85.1422,23.26056 -21.6017,11.36629 -50.8791,36.93419 -55.7453,48.68235 l -3.0604,7.38828 h -122.2505 -122.2505 l 1.379,-6.79745 c 0.7585,-3.73859 10.2987,-67.41828 21.2005,-141.51041 10.9018,-74.09213 20.4016,-137.21566 21.1106,-140.27451 l 1.2893,-5.56155 h 113.6556 c 106.61,0 113.6532,0.26815 113.6176,4.32565 -0.021,2.37911 -2.1266,17.67335 -4.6793,33.98722 -6.7088,42.87486 -1.79,47.60059 21.7315,20.87875 26.8451,-30.49758 70.4798,-54.21413 125.0213,-67.95214 18.1426,-4.56978 38.5382,-9.04517 45.3236,-9.94527 l 12.3371,-1.63658 4.3814,-33.70322 c 2.4098,-18.53677 10.0837,-76.52711 17.0533,-128.867426 L 2820.539,2.4717976 2952.6712,1.7318474 c 81.2971,-0.45527 144.4948,0.3015838 164.2655,1.9672394 144.0069,12.1323712 237.2132,73.1585672 281.3743,184.2278932 26.0642,65.55391 34.4723,151.28067 24.9608,254.49132 -4.1961,45.53152 -11.4747,101.03823 -15.9678,121.7695 l -2.8125,12.97693 h -134.5081 c -73.9795,0 -134.5082,-0.45753 -134.5082,-1.01675 0,-0.55919 2.6883,-12.51651 5.974,-26.57182 8.3841,-35.86445 15.6713,-83.84829 18.8965,-124.42698 9.0688,-114.10191 -23.0045,-173.23064 -96.8336,-178.51779 l -18.8194,-1.34774 -1.5477,8.36344 c -0.8513,4.59989 -12.1117,76.77045 -25.0231,160.379 -12.9114,83.60856 -24.067,154.51825 -24.7902,157.5771 -1.3002,5.49923 -1.7367,5.55497 -38.9627,4.97583 -20.7063,-0.32215 -77.4129,-0.89237 -126.0146,-1.26712 z"
   id="path9" /><path
   style="fill:#0000ff;stroke-width:2.4718"
   d="m 2680.5744,946.32259 c -0.05,-1.15275 10.2394,-67.44141 22.8642,-147.30812 l 22.9541,-145.21221 127.9155,-0.006 c 89.7179,-0.004 127.9156,0.78893 127.9156,2.65583 0,1.46395 -2.2965,17.71531 -5.1033,36.11415 -2.8068,18.39883 -4.5101,34.99799 -3.7853,36.88703 3.2225,8.3975 49.3641,0.51984 70.1469,-11.97603 15.6731,-9.42361 32.6513,-27.17205 46.3919,-48.4965 l 9.7602,-15.14714 139.0186,-0.0216 139.0186,-0.0216 -3.9792,10.50514 c -10.0785,26.6075 -35.0092,74.7867 -51.5944,99.70715 -28.439,42.73175 -74.6781,88.49409 -116.4341,115.23356 -48.139,30.82691 -115.0125,53.33235 -190.0707,63.9659 -23.7146,3.35967 -334.8838,6.2579 -335.0186,3.12038 z"
   id="path10" /><path
   style="fill:#0000ff;stroke-width:2.4718"
   d="m 2258.9996,941.13693 c 0.7728,-3.7386 10.2953,-66.30597 21.1609,-139.03862 10.8656,-72.73264 20.3828,-135.85617 21.1493,-140.27451 l 1.3937,-8.03334 h 121.006 c 95.1227,0 121.0199,0.6609 121.0706,3.08975 0.035,1.69936 -9.6572,67.88174 -21.5392,147.07195 l -21.6035,143.98221 h -122.0216 -122.0215 z"
   id="path11" /><path
   style="fill:#0000ff;stroke-width:2.4718"
   d="m 3440.9515,570.36729 c 0.5403,-2.3791 9.9135,-64.94648 20.8293,-139.03861 10.9158,-74.09214 20.5042,-138.32797 21.3075,-142.74631 l 1.4606,-8.03335 h 120.843 c 114.4731,0 120.8429,0.23325 120.8429,4.42489 0,3.46191 -34.4083,238.89475 -40.9875,280.44979 l -1.4676,9.26924 h -121.9053 c -114.8266,0 -121.8482,-0.25119 -120.9229,-4.32565 z"
   id="path12" /><path
   style="fill:#0000ff;stroke-width:2.4718"
   d="m 3495.5173,203.30535 c 0.5203,-3.05885 5.3827,-35.59388 10.8054,-72.30008 5.4227,-36.706193 10.4928,-69.797383 11.2667,-73.535976 l 1.4072,-6.797444 h 120.9217 c 104.0066,0 120.9217,0.501557 120.9217,3.585509 0,1.97203 -5.0054,36.69271 -11.1231,77.157061 -6.1177,40.46436 -11.1231,74.44477 -11.1231,75.51202 0,1.06725 -54.905,1.94046 -122.0112,1.94046 h -122.0112 z"
   id="path13" /><path
   style="fill:#0000ff;stroke-width:2.4718"
   d="m 3384.1054,943.60872 c 1.4036,-6.14792 43.0419,-283.94169 43.0419,-287.15803 0,-1.86329 36.6683,-2.66023 122.4011,-2.66023 h 122.4011 l -1.26,5.56154 c -1.2009,5.30091 -43.3266,284.64257 -43.3266,287.30504 0,0.70254 -54.9551,1.27733 -122.1225,1.27733 -115.0356,0 -122.0653,-0.25104 -121.135,-4.32565 z"
   id="path14" /><path
   style="fill:#0000ff;stroke-width:2.4718"
   d="m 3845.0271,974.9154 c -53.7869,-4.11997 -89.8168,-16.01967 -147.8278,-48.82349 -12.5631,-7.10409 -20.3874,-13.08503 -20.3923,-15.58795 -0.01,-3.8381 28.154,-178.41393 31.1672,-193.2078 l 1.4137,-6.94053 13.0657,12.35696 c 25.5808,24.19326 75.6535,51.75735 112.4907,61.92402 24.6749,6.81003 54.381,6.83687 74.4761,0.0673 30.2005,-10.1738 44.193,-23.97999 44.2106,-43.62168 0.024,-27.19352 -14.7283,-39.05307 -74.1447,-59.60483 -15.6341,-5.40774 -35.0995,-13.01533 -43.2565,-16.90576 l -14.8307,-7.0735 176.7335,-0.63956 c 97.2034,-0.35177 177.968,-0.16842 179.4768,0.40742 3.6835,1.40584 7.6931,18.13861 10.7112,44.70068 6.1264,53.91585 -10.001,117.61794 -41.4364,163.67098 -11.0336,16.16429 -40.5764,45.45053 -57.2951,56.79756 -29.3987,19.95297 -76.5552,38.3821 -118.6463,46.36791 -18.8458,3.57555 -82.5963,9.20559 -95.1642,8.40431 -2.719,-0.17337 -16.5572,-1.20478 -30.7515,-2.29205 z"
   id="path15" /><path
   style="fill:#0000ff;stroke-width:2.4718"
   d="m 3736.2786,560.94925 c -8.143,-21.76421 -9.9188,-32.63819 -9.9833,-61.1324 -0.1409,-62.17115 22.029,-120.89051 61.5403,-162.99679 21.4264,-22.83357 40.6892,-37.18076 68.1686,-50.77282 44.4444,-21.98339 81.7738,-30.08142 147.072,-31.90498 54.7123,-1.52793 78.7622,1.39837 117.3137,14.27424 19.0618,6.36649 66.0602,28.91826 70.8366,33.99031 1.7232,1.82982 -23.3955,177.56554 -25.7112,179.88123 -0.8182,0.81823 -4.6106,-0.73484 -8.4274,-3.45127 -44.8778,-31.93904 -146.549,-54.17136 -177.3343,-38.77745 -19.5455,9.77355 -26.8008,31.82517 -15.7983,48.01647 9.9283,14.6104 24.7111,23.49312 67.0443,40.28567 38.8632,15.41611 67.6135,30.0206 80.9543,41.12305 l 6.0609,5.04395 -188.297,0.0822 -188.297,0.0822 z"
   id="path17" /><path
   style="fill:#0000ff;stroke-width:2.4718"
   d="m 4255.7875,575.31635 c -34.9711,-0.75343 -35.2435,-0.80348 -34.0511,-6.25301 12.9265,-59.07415 24.2344,-94.32812 42.1973,-131.55517 33.1854,-68.77485 78.1663,-115.3422 140.8096,-145.77574 50.7275,-24.64457 98.1784,-35.50766 164.3745,-37.63079 36.0756,-1.15706 43.3533,-0.69356 63.0309,4.01432 12.2354,2.92733 29.8253,8.81357 39.0886,13.08053 14.1612,6.52303 16.6538,8.57365 15.657,12.88097 -0.6521,2.81757 -7.5647,44.05367 -15.3615,91.63577 -7.7967,47.5821 -14.9393,87.38848 -15.8724,88.45862 -0.933,1.07013 -4.7907,0.76927 -8.5725,-0.66858 -3.7819,-1.43786 -14.6938,-3.72304 -24.2488,-5.07818 -28.8569,-4.09265 -56.6178,3.42615 -79.845,21.62531 -18.7708,14.7075 -42.2649,52.24446 -51.8874,82.9015 l -4.461,14.21283 -97.8026,-0.54443 c -53.7914,-0.29946 -113.6664,-0.88622 -133.0556,-1.30395 z"
   id="path19" /><path
   style="fill:#0000ff;stroke-width:2.4718"
   d="m 4438.1125,961.3609 c -3.3987,-0.59573 -14.5218,-2.30811 -24.7179,-3.80533 -101.847,-14.95522 -173.943,-86.23179 -196.3699,-194.13793 -5.0784,-24.43488 -9.0419,-76.82349 -7.1683,-94.74928 l 1.555,-14.8779 h 135.2808 135.2809 l 1.5769,9.8616 c 6.1486,38.45101 34.1808,69.88585 67.0293,75.1654 5.438,0.87401 22.1226,0.58682 37.077,-0.6382 14.9544,-1.22501 27.3629,-2.08246 27.5745,-1.90544 0.2116,0.17702 -6.5068,47.55898 -14.9298,105.29324 l -15.3147,104.97139 -10.138,2.93523 c -22.5334,6.52404 -58.3796,11.13649 -93.4793,12.02831 -20.3923,0.51812 -39.8577,0.45464 -43.2565,-0.14109 z"
   id="path21" /><path
   style="opacity:1;fill:#f9f9f9;fill-rule:evenodd;stroke-width:6.11028;stroke-dasharray:none"
   d="M 67.973496,563.95097 C 67.974428,561.87202 143.02102,81.577084 151.45677,29.661571 l 4.41807,-27.1897734 130.71709,0.6115472 c 71.8944,0.3363508 131.26041,1.1548772 131.92448,1.8189471 0.66407,0.6640702 -7.40143,52.1112391 -17.92335,114.3270381 -44.92977,265.66841 -75.42507,443.80194 -76.08979,444.46665 -1.83528,1.83529 -256.530596,2.08845 -256.529774,0.25499 z"
   id="path35" /><path
   style="opacity:1;fill:#f9f9f9;fill-rule:evenodd;stroke-width:6.11028;stroke-dasharray:none"
   d="m 3.7076964,944.44911 c 0,-3.55954 43.3321486,-269.04769 45.9275066,-281.38941 l 1.429443,-6.79744 H 180.99505 310.92546 l -1.65103,16.68463 c -0.90807,9.17655 -2.32522,23.45621 -3.14925,31.73257 l -1.4982,15.04794 41.49945,1.6367 c 22.82468,0.90018 72.51683,1.63669 110.42699,1.63669 H 525.481 l -1.3869,8.03334 c -0.76279,4.41834 -7.50531,52.5257 -14.98337,106.90525 -7.47807,54.37954 -14.15556,101.3746 -14.83889,104.43345 l -1.2424,5.56154 H 248.36857 c -208.888223,0 -244.6608736,-0.50959 -244.6608736,-3.48526 z"
   id="path37" /><path
   style="opacity:1;fill:#f9f9f9;fill-rule:evenodd;stroke-width:6.11028;stroke-dasharray:none"
   d="m 559.86215,571.56831 c 0,-8.624 18.65582,-67.2565 32.62732,-102.54288 31.00752,-78.31248 72.00974,-133.71611 123.73451,-167.19437 36.13979,-23.39106 72.4717,-33.64102 119.2436,-33.64102 61.64433,0 111.89173,19.73972 138.13446,54.2662 16.10677,21.19103 18.86394,19.597 25.45637,-14.71744 3.00359,-15.63412 5.52099,-28.70375 5.59419,-29.04362 0.073,-0.33988 43.8535,-0.61795 97.2895,-0.61795 h 97.1564 l -22.8784,147.6899 c -12.5832,81.22945 -22.9343,147.96798 -23.0025,148.30786 -0.068,0.33987 -51.139,0.61795 -113.4908,0.61795 H 926.36015 l -1.57189,-11.46808 c -0.86451,-6.30746 -1.57187,-17.49415 -1.57187,-24.85931 0,-21.80212 -4.49484,-34.7996 -16.29265,-47.11249 l -10.58266,-11.04465 -18.5143,0.93493 c -16.22147,0.81915 -19.68471,1.87355 -27.96496,8.51407 -13.75711,11.03279 -26.82647,34.31827 -42.71086,76.09741 l -2.4585,6.46632 -105.73052,0.0176 c -58.15179,0.01 -113.23861,0.72666 -122.41516,1.59332 -14.11374,1.33297 -16.68463,0.98415 -16.68463,-2.26372 z"
   id="path38" /><path
   style="opacity:1;fill:#f9f9f9;fill-rule:evenodd;stroke-width:6.11028;stroke-dasharray:none"
   d="m 675.69485,959.41627 c -24.14007,-8.59892 -43.96019,-21.65362 -62.14975,-40.93549 -27.1438,-28.77387 -43.83573,-65.00591 -53.94436,-117.09337 -4.59358,-23.6697 -9.43378,-89.27795 -9.56678,-129.67642 l -0.059,-17.92053 h 121.73603 121.73603 l 0.0459,36.45901 c 0.0524,41.55758 2.68805,53.79179 14.31566,66.44986 19.48461,21.21133 56.6973,12.18495 76.13673,-18.46786 8.03653,-12.67228 20.62646,-43.47379 26.93725,-65.90253 l 4.17297,-14.83079 36.83173,-1.53473 c 20.25745,-0.84411 71.00034,-1.67834 112.76194,-1.85385 59.7751,-0.25122 75.7034,0.33827 74.8639,2.77064 -1.3091,3.79348 -45.7427,284.12126 -45.7427,288.58716 0,2.59269 -18.595,2.85589 -98.25386,1.39066 -54.03962,-0.99399 -98.6663,-2.21968 -99.17037,-2.72375 -0.5041,-0.50408 1.36283,-12.91181 4.14866,-27.57273 2.78587,-14.6609 4.60828,-27.11313 4.04982,-27.67158 -0.55845,-0.55846 -10.21156,8.37078 -21.45134,19.84275 -25.45087,25.97662 -45.98538,39.71776 -71.9547,48.15022 -18.49522,6.00558 -24.25344,6.62299 -69.59937,7.46271 -46.94701,0.86935 -50.26206,0.62116 -65.84442,-4.92938 z"
   id="path39" /><path
   style="opacity:1;fill:#f9f9f9;fill-rule:evenodd;stroke-width:6.11028;stroke-dasharray:none"
   d="m 1305.9624,972.30835 c -37.8436,-4.33858 -65.1879,-13.11848 -108.3765,-34.79832 l -40.7846,-20.47313 -0.8304,-9.88719 c -0.4568,-5.43795 0.4582,-18.22951 2.0333,-28.42567 9.1261,-59.07882 25.1571,-157.44543 26.1229,-160.29137 0.8084,-2.38228 3.5929,-1.17042 9.7675,4.25096 25.7871,22.64132 86.0365,55.47227 116.0595,63.24275 18.8694,4.88373 58.3415,4.96836 74.5337,0.15979 26.6584,-7.91669 45.4471,-26.99178 45.4471,-46.13982 0,-13.3214 -8.9091,-28.16158 -21.918,-36.50932 -6.4641,-4.14801 -27.8135,-13.58774 -47.4431,-20.97718 -19.6297,-7.38944 -40.6656,-15.56659 -46.7464,-18.17144 l -11.0562,-4.7361 174.0147,-1.7015 c 95.7081,-0.93583 174.8516,-0.84187 175.8745,0.20881 1.0229,1.05068 3.7612,11.35243 6.0851,22.89277 3.3037,16.40616 3.9157,28.26637 2.8061,54.37955 -1.7161,40.38499 -7.3052,63.89031 -22.9284,96.42794 -39.9508,83.20326 -116.1128,128.90225 -234.4535,140.67757 -30.9183,3.07647 -70.7025,3.02417 -98.2073,-0.1291 z"
   id="path41" /><path
   style="opacity:1;fill:#f9f9f9;fill-rule:evenodd;stroke-width:6.11028;stroke-dasharray:none"
   d="m 1212.4289,560.56323 c -18.3393,-49.01607 -11.4019,-116.83865 17.8965,-174.964 43.2925,-85.88834 132.3339,-130.18166 261.4044,-130.03467 62.4909,0.0712 96.9508,8.08771 149.0519,34.67449 l 22.7381,11.60309 -0.5239,13.45347 c -0.6849,17.58974 -20.7518,161.19987 -22.8659,163.64147 -0.8954,1.03408 -10.192,-3.0003 -20.6592,-8.96529 -43.7556,-24.93517 -122.8919,-41.97848 -156.9639,-33.80474 -18.8245,4.51592 -27.6337,15.42006 -27.6121,34.17845 0.03,26.23921 11.7005,35.96501 71.9654,59.97442 36.126,14.39258 62.878,27.9828 78.5133,39.88544 5.7116,4.34799 0.085,4.48758 -180.8815,4.48758 h -186.7765 z"
   id="path43" /><path
   style="opacity:1;fill:#f9f9f9;fill-rule:evenodd;stroke-width:6.11028;stroke-dasharray:none"
   d="m 1987.8742,574.60487 c -160.1177,-0.93377 -291.8202,-2.39488 -292.6723,-3.24691 -0.852,-0.85205 1.0103,-11.29525 4.1384,-23.20711 25.2027,-95.9707 57.4614,-157.43232 109.9655,-209.51458 32.1842,-31.92562 57.3867,-48.53727 95.3342,-62.83721 40.7237,-15.34612 68.3499,-19.96801 119.3537,-19.96801 52.9827,0 74.3563,2.7462 107.9317,13.86768 38.4403,12.73293 58.707,25.19486 87.9932,54.10675 54.1394,53.44739 65.3322,85.51018 65.404,187.35516 0.033,47.01609 -1.3766,66.49314 -4.7465,65.57304 -0.8683,-0.2371 -132.5842,-1.19507 -292.7019,-2.12881 z m 90.5428,-100.63768 c -1.7573,-35.16278 -10.309,-54.46892 -28.2326,-63.73757 -8.8513,-4.57719 -36.8681,-4.74008 -47.4898,-0.27611 -18.6437,7.83541 -39.6882,40.23673 -47.1955,72.66497 l -3.5765,15.44873 h 63.8494 63.8495 z"
   id="path44" /><path
   style="opacity:1;fill:#f9f9f9;fill-rule:evenodd;stroke-width:6.11028;stroke-dasharray:none"
   d="m 1886.4189,973.57462 c -48.1007,-10.31955 -87.4178,-31.72072 -121.6031,-66.19125 -54.3693,-54.82288 -78.5555,-117.02179 -82.0303,-210.9544 l -1.4858,-40.16671 103.5768,-0.0176 c 56.9673,-0.01 111.2724,-0.74416 120.678,-1.63223 16.1647,-1.52624 16.996,-1.35608 15.1801,3.10732 -1.0565,2.59709 -2.4672,22.51892 -3.1347,44.27074 -1.4008,45.64619 2.0543,68.0211 13.6815,88.60163 21.952,38.85554 77.8206,28.8808 101.6885,-18.1554 6.4546,-12.71987 12.9367,-31.86724 16.1084,-47.5821 l 1.372,-6.79744 h 106.2402 c 103.3538,0 106.2402,0.12976 106.2402,4.77654 0,7.54335 -13.8574,59.01994 -20.8721,77.53435 -9.343,24.65968 -21.9282,50.30487 -33.3323,67.92192 -13.1272,20.27893 -44.3649,51.72882 -63.826,64.25952 -32.1346,20.69097 -82.1996,37.35232 -127.3748,42.38967 -34.5226,3.84948 -110.4886,3.05883 -131.1066,-1.36458 z"
   id="path45" /><path
   style="opacity:1;fill:#f9f9f9;fill-rule:evenodd;stroke-width:6.11028;stroke-dasharray:none"
   d="m 3191.7086,575.31346 c -29.5689,-0.3943 -53.7559,-1.52948 -53.7489,-2.52257 0.01,-0.99312 2.7241,-14.5972 6.038,-30.23132 16.6345,-78.47738 22.614,-157.40259 15.1687,-200.21561 -10.868,-62.49398 -41.0764,-92.00952 -99.6623,-97.37655 -14.4756,-1.3261 -15.4879,-1.07648 -16.6586,4.10792 -1.4055,6.22418 -50.7345,321.6021 -50.7345,324.36364 0,2.35535 -246.2357,0.55101 -248.608,-1.82172 -1.0117,-1.0119 0.01,-14.91576 2.2693,-30.89747 5.7812,-40.88704 5.9931,-39.46786 -6.4026,-42.89283 -5.7779,-1.59643 -21.6283,-2.84696 -35.2232,-2.77901 -27.7702,0.13886 -56.9923,7.29155 -82.5991,20.21784 -21.0317,10.61677 -50.6954,35.11626 -58.3658,48.20478 l -6.5768,11.22238 h -120.8056 c -95.5679,0 -120.5818,-0.64549 -119.7345,-3.08975 1.2141,-3.50212 43.2661,-283.5029 43.2661,-288.08484 0,-3.39643 102.451,-4.15398 180.321,-1.33337 l 45.1646,1.63599 -1.4947,12.57685 c -0.8221,6.91728 -2.2204,23.42189 -3.1073,36.6769 -1.5185,22.69479 -1.3351,24.10003 3.144,24.10003 2.6161,0 11.9544,-7.31024 20.7518,-16.24495 36.7189,-37.29216 81.8644,-59.16077 152.8696,-74.05056 15.4634,-3.24267 28.7271,-6.50765 29.475,-7.25549 0.9315,-0.93155 34.292,-243.849864 35.0607,-255.2981042 0.023,-0.3398722 65.0545,-0.6179494 144.515,-0.6179494 115.6329,0 150.2967,0.7580714 173.6438,3.797469 158.8237,20.6761576 249.2378,103.6552246 278.1712,255.2960346 4.9279,25.82756 5.5113,36.68765 5.5346,103.02484 0.02,56.35404 -1.0351,82.75722 -4.3948,109.99499 -5.2561,42.61365 -13.6231,96.12616 -15.5061,99.173 -1.2348,1.99785 -77.3067,2.11259 -211.7706,0.31943 z"
   id="path46" /><path
   style="opacity:1;fill:#f9f9f9;fill-rule:evenodd;stroke-width:6.11028;stroke-dasharray:none"
   d="m 2683.1363,941.61908 c 0,-4.56855 40.8384,-268.44939 43.5538,-281.42666 l 1.505,-7.19292 125.0322,1.70902 c 68.7676,0.93996 125.5236,2.20058 126.1244,2.80137 0.6008,0.6008 -0.7346,14.7478 -2.9677,31.43778 -6.2624,46.8058 -7.0379,43.94031 11.8917,43.94031 23.5835,0 51.9684,-9.67287 67.0833,-22.86039 15.9512,-13.91703 21.0594,-19.72073 34.8128,-39.5525 l 11.5709,-16.68463 h 136.915 136.915 l -1.6092,5.56154 c -2.6338,9.10258 -32.6961,70.59761 -42.4701,86.8761 -29.2997,48.79867 -75.6994,97.38928 -124.1032,129.96306 -38.9428,26.20687 -102.5121,49.62628 -168.3151,62.0085 -26.815,5.04581 -37.7042,5.42051 -192.1822,6.61303 -156.6268,1.20908 -163.7566,1.07004 -163.7566,-3.19361 z"
   id="path47" /><path
   style="opacity:1;fill:#f9f9f9;fill-rule:evenodd;stroke-width:6.11028;stroke-dasharray:none"
   d="m 2271.979,863.2753 c 7.0994,-46.56248 17.1445,-112.46679 22.3222,-146.454 l 9.4141,-61.79494 34.6052,-0.80049 c 19.0328,-0.44026 72.7018,-0.0331 119.2642,0.90475 l 84.6591,1.70524 v 5.5575 c 0,5.54531 -38.2732,265.85161 -40.984,278.74357 l -1.4293,6.79744 h -120.3799 -120.3798 z"
   id="path48" /><path
   style="opacity:1;fill:#f9f9f9;fill-rule:evenodd;stroke-width:6.11028;stroke-dasharray:none"
   d="m 3478.4371,572.86025 c -20.0524,-0.42419 -36.4089,-1.57577 -36.3477,-2.55903 0.061,-0.98328 9.8228,-66.30169 21.6925,-145.15204 l 21.5811,-143.36426 118.1226,0.36443 c 64.9674,0.20043 118.8436,1.08552 119.725,1.96687 1.7029,1.70291 -6.4768,62.04482 -27.4945,202.8279 l -12.9157,86.51292 -83.9521,0.0872 c -46.1737,0.048 -100.3587,-0.25984 -120.4112,-0.68402 z"
   id="path49" /><path
   style="opacity:1;fill:#f9f9f9;fill-rule:evenodd;stroke-width:6.11028;stroke-dasharray:none"
   d="m 3421.3234,946.27013 -36.7214,-0.94272 1.4697,-7.96576 c 1.9742,-10.6992 29.1625,-190.63404 36.347,-240.54699 l 5.7261,-39.78102 68.0936,-1.6168 c 111.6321,-2.65055 173.1466,-2.13063 173.136,1.46337 -0.01,1.69936 -7.1138,49.80672 -15.7973,106.90524 -8.6834,57.09852 -18.3359,121.33436 -21.4499,142.74631 l -5.6619,38.93081 -34.7743,0.006 c -19.1259,0.004 -57.0205,0.39737 -84.2102,0.87514 -27.1898,0.47775 -65.9606,0.44441 -86.1574,-0.0741 z"
   id="path50" /><path
   style="opacity:1;fill:#f9f9f9;fill-rule:evenodd;stroke-width:6.11028;stroke-dasharray:none"
   d="m 3496.5267,204.54125 c 0.093,-2.37911 5.3764,-37.69491 11.741,-78.47957 l 11.572,-74.153931 44.4924,-0.792227 c 24.4708,-0.435725 78.1397,-0.02988 119.2642,0.901876 66.8125,1.513768 74.7826,2.124341 74.872,5.735822 0.055,2.222946 -4.6129,36.401018 -10.3731,75.95127 l -10.4733,71.90955 -82.9372,1.62246 c -45.6155,0.89236 -99.8999,1.62425 -120.6321,1.62643 -34.3179,0.004 -37.6798,-0.38356 -37.5259,-4.32168 z"
   id="path51" /><path
   style="opacity:1;fill:#f9f9f9;fill-rule:evenodd;stroke-width:6.11028;stroke-dasharray:none"
   d="m 3741.568,570.64126 c -8.7558,-16.52878 -12.8601,-39.27454 -12.8079,-70.98057 0.082,-49.45897 10.6145,-88.466 34.9706,-129.5068 11.9974,-20.21594 49.2662,-57.0233 71.6997,-70.81203 51.5459,-31.68256 102.0738,-43.51081 185.8694,-43.51081 59.8581,0 89.9474,7.04161 142.3156,33.30525 26.968,13.525 27.0215,13.56962 25.9099,21.63927 -0.6126,4.44747 -3.3398,24.77095 -6.0606,45.16328 -7.0104,52.54509 -17.4726,120.71469 -18.8746,122.98314 -0.6528,1.05614 -5.8377,-0.93916 -11.5221,-4.43401 -25.2981,-15.55359 -67.6615,-30.32703 -105.3171,-36.72729 -44.2108,-7.51445 -66.3914,-4.43792 -80.4866,11.16379 -7.2922,8.07157 -8.6805,11.43815 -8.6805,21.05037 0,18.32701 9.4307,30.08006 34.3281,42.78178 5.8819,3.00072 27.5378,12.64713 48.1242,21.4365 33.1618,14.1584 72.5913,34.7357 70.3704,36.72458 -0.4439,0.39756 -83.2909,1.53291 -184.1045,2.52299 -177.2018,1.74032 -183.3784,1.6472 -185.734,-2.79944 z"
   id="path52" /><path
   style="opacity:1;fill:#f9f9f9;fill-rule:evenodd;stroke-width:6.11028;stroke-dasharray:none"
   d="m 3841.1734,973.70031 c -35.1132,-4.90632 -47.3938,-7.41079 -66.7385,-13.61046 -21.7101,-6.95776 -63.6034,-26.83573 -84.6591,-40.16992 -8.2042,-5.19562 -10.4985,-8.13476 -10.4749,-13.41917 0.025,-5.56371 14.2365,-96.68422 27.3273,-175.2144 l 2.9452,-17.66832 16.6845,13.96062 c 30.6111,25.61358 76.2649,49.71057 111.0393,58.60872 11.4955,2.9415 23.1322,3.7973 42.0206,3.09035 22.1851,-0.83035 28.4552,-2.03976 41.6003,-8.0241 8.7028,-3.96203 19.252,-11.22385 24.1,-16.59005 7.6649,-8.48419 8.6221,-11.0657 8.6221,-23.25418 0,-28.45638 -11.5918,-38.31259 -70.4462,-59.89841 -14.9544,-5.48476 -33.3075,-12.76221 -40.7847,-16.1721 l -13.5949,-6.19979 174.688,-0.20252 174.688,-0.20253 2.6173,8.03335 c 3.8597,11.84673 7.5499,40.37209 7.5944,58.70519 0.078,32.04139 -9.0029,71.84714 -24.4865,107.3371 -14.3118,32.80429 -52.9695,75.50708 -86.1955,95.21482 -32.1444,19.06621 -76.8079,34.59498 -117.9429,41.00675 -23.6818,3.69133 -103.1983,6.82164 -118.6038,4.66905 z"
   id="path53" /><path
   style="opacity:1;fill:#f9f9f9;fill-rule:evenodd;stroke-width:6.11028;stroke-dasharray:none"
   d="m 4412.1587,956.36085 c -98.7849,-18.69596 -165.5356,-81.84093 -190.3145,-180.03406 -8.9314,-35.39288 -14.2001,-99.73168 -9.5791,-116.97479 l 1.4904,-5.56154 h 133.1417 133.1417 l 1.4805,6.79744 c 6.9087,31.72021 20.199,54.12571 39.8116,67.11653 17.4149,11.53517 27.5021,13.42701 61.9997,11.62793 16.6537,-0.86851 30.2795,-1.20321 30.2795,-0.74379 0,2.05084 -27.3772,191.65475 -28.6954,198.73309 -1.1441,6.14355 -3.253,8.51223 -9.3784,10.53379 -32.1534,10.6116 -126.3409,15.51495 -163.3777,8.5054 z"
   id="path54" /><path
   style="opacity:1;fill:#f9f9f9;fill-rule:evenodd;stroke-width:6.11028;stroke-dasharray:none"
   d="m 4349.9495,574.80849 c -68.2022,-0.74329 -124.7884,-2.13684 -125.7471,-3.09676 -4.9642,-4.97059 21.4753,-91.26298 39.8843,-130.17308 43.6268,-92.2115 111.7391,-148.60991 209.6747,-173.61509 46.5912,-11.89579 127.9224,-16.1593 158.4859,-8.30809 20.9025,5.36947 47.2224,15.66014 50.6662,19.80974 2.2917,2.76127 -0.3478,22.91313 -12.1752,92.9541 -8.3056,49.18567 -15.4559,89.78317 -15.8893,90.21666 -0.4336,0.43349 -9.0554,-0.96956 -19.1597,-3.11788 -65.3749,-13.89963 -118.3269,22.91236 -144.3969,100.38406 -4.6309,13.76151 -6.2626,16.08327 -11.3727,16.18224 -3.2813,0.0635 -61.7679,-0.4926 -129.9702,-1.2359 z"
   id="path55" /></svg>
