<?xml version="1.0" encoding="UTF-8"?>
<!DOCTYPE svg PUBLIC "-//W3C//DTD SVG 1.1//EN" "http://www.w3.org/Graphics/SVG/1.1/DTD/svg11.dtd">
<svg xmlns="http://www.w3.org/2000/svg" version="1.1" width="410px" height="123px" style="shape-rendering:geometricPrecision; text-rendering:geometricPrecision; image-rendering:optimizeQuality; fill-rule:evenodd; clip-rule:evenodd" xmlns:xlink="http://www.w3.org/1999/xlink">
<g><path style="opacity:1" fill="#f84122" d="M -0.5,-0.5 C 136.167,-0.5 272.833,-0.5 409.5,-0.5C 409.5,40.5 409.5,81.5 409.5,122.5C 272.833,122.5 136.167,122.5 -0.5,122.5C -0.5,81.5 -0.5,40.5 -0.5,-0.5 Z"/></g>
<g><path style="opacity:1" fill="#ffc8bf" d="M 12.5,12.5 C 140.332,11.5004 268.332,11.1671 396.5,11.5C 396.5,44.1667 396.5,76.8333 396.5,109.5C 268.167,109.5 139.833,109.5 11.5,109.5C 11.1684,76.9957 11.5018,44.6624 12.5,12.5 Z"/></g>
<g><path style="opacity:1" fill="#fffcfc" d="M 12.5,12.5 C 140.167,12.5 267.833,12.5 395.5,12.5C 395.5,44.5 395.5,76.5 395.5,108.5C 267.833,108.5 140.167,108.5 12.5,108.5C 12.5,76.5 12.5,44.5 12.5,12.5 Z"/></g>
<g><path style="opacity:1" fill="#fcb9ae" d="M 265.5,89.5 C 266.043,89.56 266.376,89.8933 266.5,90.5C 259.678,91.8181 253.011,91.8181 246.5,90.5C 253.022,90.8235 259.355,90.4902 265.5,89.5 Z"/></g>
<g><path style="opacity:1" fill="#fcb8ad" d="M 201.5,89.5 C 202.043,89.56 202.376,89.8933 202.5,90.5C 196.346,91.8166 190.346,91.8166 184.5,90.5C 190.358,90.8222 196.025,90.4889 201.5,89.5 Z"/></g>
<g><path style="opacity:1" fill="#fcbdb3" d="M 134.5,89.5 C 139.975,90.4889 145.642,90.8222 151.5,90.5C 145.654,91.8166 139.654,91.8166 133.5,90.5C 133.624,89.8933 133.957,89.56 134.5,89.5 Z"/></g>
<g><path style="opacity:1" fill="#fdd9d4" d="M 289.5,44.5 C 289.833,44.5 290.167,44.5 290.5,44.5C 290.5,47.1667 290.5,49.8333 290.5,52.5C 300.167,52.5 309.833,52.5 319.5,52.5C 319.5,57.5 319.5,62.5 319.5,67.5C 309.833,67.5 300.167,67.5 290.5,67.5C 290.5,70.1667 290.5,72.8333 290.5,75.5C 301.346,75.1722 312.013,75.5056 322.5,76.5C 311.5,76.5 300.5,76.5 289.5,76.5C 289.5,73.1667 289.5,69.8333 289.5,66.5C 299.167,66.5 308.833,66.5 318.5,66.5C 318.5,62.1667 318.5,57.8333 318.5,53.5C 308.833,53.5 299.167,53.5 289.5,53.5C 289.5,50.5 289.5,47.5 289.5,44.5 Z"/></g>
<g><path style="opacity:1" fill="#fca092" d="M 321.5,29.5 C 322.487,34.3054 322.821,39.3054 322.5,44.5C 311.833,44.5 301.167,44.5 290.5,44.5C 290.167,44.5 289.833,44.5 289.5,44.5C 299.987,43.5056 310.654,43.1722 321.5,43.5C 321.5,38.8333 321.5,34.1667 321.5,29.5 Z"/></g>
<g><path style="opacity:1" fill="#f84323" d="M 330.5,29.5 C 340.839,29.3335 351.172,29.5002 361.5,30C 383.282,35.053 391.782,48.553 387,70.5C 382.153,81.6838 373.653,88.1838 361.5,90C 351.172,90.4998 340.839,90.6665 330.5,90.5C 330.5,70.1667 330.5,49.8333 330.5,29.5 Z"/></g>
<g><path style="opacity:1" fill="#fffbfa" d="M 347.5,44.5 C 356.083,42.7933 363.25,45.1266 369,51.5C 373.229,60.5266 371.395,68.0266 363.5,74C 358.246,75.2712 352.913,75.7712 347.5,75.5C 347.5,65.1667 347.5,54.8333 347.5,44.5 Z"/></g>
<g><path style="opacity:1" fill="#f84223" d="M 321.5,29.5 C 321.5,34.1667 321.5,38.8333 321.5,43.5C 310.654,43.1722 299.987,43.5056 289.5,44.5C 289.5,47.5 289.5,50.5 289.5,53.5C 299.167,53.5 308.833,53.5 318.5,53.5C 318.5,57.8333 318.5,62.1667 318.5,66.5C 308.833,66.5 299.167,66.5 289.5,66.5C 289.5,69.8333 289.5,73.1667 289.5,76.5C 300.5,76.5 311.5,76.5 322.5,76.5C 322.5,81.1667 322.5,85.8333 322.5,90.5C 305.833,90.5 289.167,90.5 272.5,90.5C 272.5,70.1667 272.5,49.8333 272.5,29.5C 288.833,29.5 305.167,29.5 321.5,29.5 Z"/></g>
<g><path style="opacity:1" fill="#f84324" d="M 265.5,89.5 C 259.355,90.4902 253.022,90.8235 246.5,90.5C 241.578,82.9049 236.245,75.5716 230.5,68.5C 228.851,70.6499 227.018,72.6499 225,74.5C 224.501,79.8229 224.334,85.1563 224.5,90.5C 218.833,90.5 213.167,90.5 207.5,90.5C 207.5,70.1667 207.5,49.8333 207.5,29.5C 213.167,29.5 218.833,29.5 224.5,29.5C 224.169,37.5277 224.502,45.5277 225.5,53.5C 232.354,45.8136 239.021,37.9803 245.5,30C 252.167,29.3333 258.833,29.3333 265.5,30C 258.068,38.8545 250.402,47.5212 242.5,56C 250.387,67.0472 258.054,78.2139 265.5,89.5 Z"/></g>
<g><path style="opacity:1" fill="#f84122" d="M 79.5,29.5 C 95.8333,29.5 112.167,29.5 128.5,29.5C 128.5,34.1667 128.5,38.8333 128.5,43.5C 117.833,43.5 107.167,43.5 96.5,43.5C 96.5,46.8333 96.5,50.1667 96.5,53.5C 106.167,53.5 115.833,53.5 125.5,53.5C 125.5,57.8333 125.5,62.1667 125.5,66.5C 115.833,66.5 106.167,66.5 96.5,66.5C 96.5,69.8333 96.5,73.1667 96.5,76.5C 107.5,76.5 118.5,76.5 129.5,76.5C 129.5,81.1667 129.5,85.8333 129.5,90.5C 112.833,90.5 96.1667,90.5 79.5,90.5C 79.5,70.1667 79.5,49.8333 79.5,29.5 Z"/></g>
<g><path style="opacity:1" fill="#f84223" d="M 201.5,89.5 C 196.025,90.4889 190.358,90.8222 184.5,90.5C 183.14,86.9568 181.474,83.4568 179.5,80C 171.833,79.3333 164.167,79.3333 156.5,80C 154.526,83.4568 152.86,86.9568 151.5,90.5C 145.642,90.8222 139.975,90.4889 134.5,89.5C 142.631,69.7807 150.965,50.1141 159.5,30.5C 165.388,29.1926 171.221,29.1926 177,30.5C 185.466,50.0692 193.632,69.7359 201.5,89.5 Z"/></g>
<g><path style="opacity:1" fill="#fff2ef" d="M 167.5,49.5 C 170.628,54.767 172.961,60.4337 174.5,66.5C 170.167,66.5 165.833,66.5 161.5,66.5C 163.214,60.737 165.214,55.0703 167.5,49.5 Z"/></g>
<g><path style="opacity:1" fill="#f84121" d="M 42.5,30.5 C 42.5,45.8333 42.5,61.1667 42.5,76.5C 52.5,76.5 62.5,76.5 72.5,76.5C 72.5,81.1667 72.5,85.8333 72.5,90.5C 57.1667,90.5 41.8333,90.5 26.5,90.5C 26.5,70.5 26.5,50.5 26.5,30.5C 31.8333,30.5 37.1667,30.5 42.5,30.5 Z"/></g>
<g><path style="opacity:1" fill="#fd593f" d="M 42.5,30.5 C 37.1667,30.5 31.8333,30.5 26.5,30.5C 26.5,50.5 26.5,70.5 26.5,90.5C 25.5028,70.3402 25.1695,50.0069 25.5,29.5C 31.358,29.1778 37.0247,29.5111 42.5,30.5 Z"/></g>
</svg>
