<?xml version="1.0" encoding="UTF-8"?>
<!DOCTYPE svg PUBLIC "-//W3C//DTD SVG 1.1//EN" "http://www.w3.org/Graphics/SVG/1.1/DTD/svg11.dtd">
<svg xmlns="http://www.w3.org/2000/svg" version="1.1" width="579px" height="149px" style="shape-rendering:geometricPrecision; text-rendering:geometricPrecision; image-rendering:optimizeQuality; fill-rule:evenodd; clip-rule:evenodd" xmlns:xlink="http://www.w3.org/1999/xlink">
<g><path style="opacity:1" fill="#331eff" d="M 382.5,-0.5 C 385.167,-0.5 387.833,-0.5 390.5,-0.5C 396.096,1.22812 400.596,4.56145 404,9.5C 407.808,20.1041 411.308,30.7708 414.5,41.5C 414.12,43.698 414.787,45.3646 416.5,46.5C 416.5,46.8333 416.5,47.1667 416.5,47.5C 416.12,49.698 416.787,51.3646 418.5,52.5C 422.228,62.6837 425.561,73.017 428.5,83.5C 413.202,85.4844 397.536,86.1511 381.5,85.5C 381.5,81.8333 381.5,78.1667 381.5,74.5C 392.187,74.832 402.854,74.4987 413.5,73.5C 413.376,72.8933 413.043,72.56 412.5,72.5C 407.721,59.7495 403.388,46.7495 399.5,33.5C 399.598,31.4471 398.931,29.7804 397.5,28.5C 397.5,28.1667 397.5,27.8333 397.5,27.5C 397.598,25.4471 396.931,23.7804 395.5,22.5C 395.5,22.1667 395.5,21.8333 395.5,21.5C 395.598,19.4471 394.931,17.7804 393.5,16.5C 390.982,10.3203 387.149,9.32027 382,13.5C 380.544,16.0756 379.377,18.7423 378.5,21.5C 377.069,22.7804 376.402,24.4471 376.5,26.5C 370.218,46.4636 363.551,66.2969 356.5,86C 339.167,86.6667 321.833,86.6667 304.5,86C 294.925,84.1297 288.425,78.6297 285,69.5C 284.333,52.1667 284.333,34.8333 285,17.5C 285.608,15.9336 286.442,14.6002 287.5,13.5C 288.906,13.0269 289.573,12.0269 289.5,10.5C 291.637,7.02696 294.637,4.69363 298.5,3.5C 301.428,3.43487 304.095,2.7682 306.5,1.5C 319.833,1.5 333.167,1.5 346.5,1.5C 346.5,5.16667 346.5,8.83333 346.5,12.5C 332.496,12.3334 318.496,12.5001 304.5,13C 303.584,13.2784 302.918,13.7784 302.5,14.5C 299.8,16.046 297.967,18.3794 297,21.5C 296.333,36.1667 296.333,50.8333 297,65.5C 298.353,69.3501 300.853,72.0168 304.5,73.5C 314.653,74.4942 324.986,74.8276 335.5,74.5C 335.5,63.5 335.5,52.5 335.5,41.5C 328.167,41.5 320.833,41.5 313.5,41.5C 312.18,38.1013 312.18,34.6013 313.5,31C 324.495,30.5002 335.495,30.3335 346.5,30.5C 346.333,46.1702 346.5,61.8369 347,77.5C 347.41,76.0993 347.91,74.766 348.5,73.5C 351.092,64.0561 354.092,54.7228 357.5,45.5C 359.213,44.3646 359.88,42.698 359.5,40.5C 359.5,40.1667 359.5,39.8333 359.5,39.5C 361.213,38.3646 361.88,36.698 361.5,34.5C 363.896,25.2609 367.063,16.2609 371,7.5C 374.15,3.68926 377.983,1.0226 382.5,-0.5 Z M 386.5,47.5 C 388.002,50.6538 389.336,53.9872 390.5,57.5C 388.257,58.4742 385.924,58.8076 383.5,58.5C 384.297,54.7768 385.297,51.1101 386.5,47.5 Z"/></g>
<g><path style="opacity:1" fill="#2e1aff" d="M 210.5,1.5 C 210.5,5.16667 210.5,8.83333 210.5,12.5C 196.829,12.3334 183.163,12.5001 169.5,13C 168.584,13.2784 167.918,13.7784 167.5,14.5C 159.309,19.2203 156.309,26.2203 158.5,35.5C 158.427,37.0269 159.094,38.0269 160.5,38.5C 162.843,41.3296 165.843,43.1629 169.5,44C 174.833,44.3333 180.167,44.6667 185.5,45C 194.352,47.5361 197.852,53.3694 196,62.5C 194.587,66.7482 191.754,69.4148 187.5,70.5C 173.833,70.5 160.167,70.5 146.5,70.5C 146.5,66.8333 146.5,63.1667 146.5,59.5C 158.833,59.5 171.167,59.5 183.5,59.5C 184.404,58.791 184.737,57.791 184.5,56.5C 179.5,56.5 174.5,56.5 169.5,56.5C 165.327,56.3333 161.66,55 158.5,52.5C 157.738,50.7376 156.404,49.7376 154.5,49.5C 145.11,40.0982 142.944,29.0982 148,16.5C 151.958,9.43322 157.791,4.59989 165.5,2C 180.496,1.50008 195.496,1.33342 210.5,1.5 Z"/></g>
<g><path style="opacity:1" fill="#3c22ff" d="M 238.5,1.5 C 252.167,1.5 265.833,1.5 279.5,1.5C 279.5,5.16667 279.5,8.83333 279.5,12.5C 265.163,12.3334 250.829,12.5001 236.5,13C 235.584,13.2784 234.918,13.7784 234.5,14.5C 231.8,16.046 229.967,18.3794 229,21.5C 228.333,36.1667 228.333,50.8333 229,65.5C 230.105,68.9371 232.272,71.4371 235.5,73C 250.167,73.3333 264.833,73.6667 279.5,74C 280.626,77.7436 280.793,81.577 280,85.5C 272.743,86.1585 265.41,86.4918 258,86.5C 249.441,86.6041 240.941,86.1041 232.5,85C 224.912,82.2468 219.912,77.0802 217.5,69.5C 217.5,52.5 217.5,35.5 217.5,18.5C 217.402,16.4471 218.069,14.7804 219.5,13.5C 220.906,13.0269 221.573,12.0269 221.5,10.5C 223.637,7.02696 226.637,4.69363 230.5,3.5C 233.428,3.43487 236.095,2.7682 238.5,1.5 Z"/></g>
<g><path style="opacity:1" fill="#8473ff" d="M 238.5,1.5 C 236.095,2.7682 233.428,3.43487 230.5,3.5C 232.78,1.77733 235.447,1.11066 238.5,1.5 Z"/></g>
<g><path style="opacity:1" fill="#8372ff" d="M 306.5,1.5 C 304.095,2.7682 301.428,3.43487 298.5,3.5C 300.78,1.77733 303.447,1.11066 306.5,1.5 Z"/></g>
<g><path style="opacity:1" fill="#8c85ff" d="M 210.5,1.5 C 211.483,5.29841 211.817,9.29841 211.5,13.5C 196.798,13.2164 182.131,13.5497 167.5,14.5C 167.918,13.7784 168.584,13.2784 169.5,13C 183.163,12.5001 196.829,12.3334 210.5,12.5C 210.5,8.83333 210.5,5.16667 210.5,1.5 Z"/></g>
<g><path style="opacity:1" fill="#968bff" d="M 221.5,10.5 C 221.573,12.0269 220.906,13.0269 219.5,13.5C 219.427,11.9731 220.094,10.9731 221.5,10.5 Z"/></g>
<g><path style="opacity:1" fill="#8682ff" d="M 279.5,1.5 C 280.483,5.29841 280.817,9.29841 280.5,13.5C 265.131,13.214 249.798,13.5474 234.5,14.5C 234.918,13.7784 235.584,13.2784 236.5,13C 250.829,12.5001 265.163,12.3334 279.5,12.5C 279.5,8.83333 279.5,5.16667 279.5,1.5 Z"/></g>
<g><path style="opacity:1" fill="#9085ff" d="M 289.5,10.5 C 289.573,12.0269 288.906,13.0269 287.5,13.5C 287.427,11.9731 288.094,10.9731 289.5,10.5 Z"/></g>
<g><path style="opacity:1" fill="#8b85ff" d="M 346.5,1.5 C 347.483,5.29841 347.817,9.29841 347.5,13.5C 332.464,13.2152 317.464,13.5485 302.5,14.5C 302.918,13.7784 303.584,13.2784 304.5,13C 318.496,12.5001 332.496,12.3334 346.5,12.5C 346.5,8.83333 346.5,5.16667 346.5,1.5 Z"/></g>
<g><path style="opacity:1" fill="#9b88ff" d="M 387.5,13.5 C 386.609,14.1098 385.609,14.4431 384.5,14.5C 385.221,12.6182 386.221,12.2848 387.5,13.5 Z"/></g>
<g><path style="opacity:1" fill="#331eff" d="M 387.5,13.5 C 389.017,13.5106 390.184,14.1772 391,15.5C 392.659,20.4734 394.159,25.4734 395.5,30.5C 395.259,32.8984 395.926,34.8984 397.5,36.5C 397.12,38.698 397.787,40.3646 399.5,41.5C 402.898,50.6948 405.898,60.0281 408.5,69.5C 400.016,70.493 391.349,70.8264 382.5,70.5C 382.666,66.4862 382.499,62.4862 382,58.5C 380.872,60.3453 380.372,62.3453 380.5,64.5C 378.735,71.7949 376.402,78.7949 373.5,85.5C 369.167,85.5 364.833,85.5 360.5,85.5C 360.5,84.5 360.5,83.5 360.5,82.5C 364.963,68.4433 369.63,54.4433 374.5,40.5C 376.213,39.3646 376.88,37.698 376.5,35.5C 377.841,30.4734 379.341,25.4734 381,20.5C 381.716,18.1209 382.883,16.1209 384.5,14.5C 385.609,14.4431 386.609,14.1098 387.5,13.5 Z M 386.5,47.5 C 385.297,51.1101 384.297,54.7768 383.5,58.5C 385.924,58.8076 388.257,58.4742 390.5,57.5C 389.336,53.9872 388.002,50.6538 386.5,47.5 Z"/></g>
<g><path style="opacity:1" fill="#bab9ff" d="M 170.5,16.5 C 183.99,15.5043 197.656,15.171 211.5,15.5C 211.817,19.7016 211.483,23.7016 210.5,27.5C 210.5,23.8333 210.5,20.1667 210.5,16.5C 197.167,16.5 183.833,16.5 170.5,16.5 Z"/></g>
<g><path style="opacity:1" fill="#b3b3ff" d="M 237.5,16.5 C 251.657,15.5041 265.99,15.1707 280.5,15.5C 280.817,19.7016 280.483,23.7016 279.5,27.5C 279.5,23.8333 279.5,20.1667 279.5,16.5C 265.5,16.5 251.5,16.5 237.5,16.5 Z"/></g>
<g><path style="opacity:1" fill="#b7b7ff" d="M 305.5,16.5 C 319.323,15.5042 333.323,15.1709 347.5,15.5C 347.817,19.7016 347.483,23.7016 346.5,27.5C 346.5,23.8333 346.5,20.1667 346.5,16.5C 332.833,16.5 319.167,16.5 305.5,16.5 Z"/></g>
<g><path style="opacity:1" fill="#3921ff" d="M 170.5,16.5 C 183.833,16.5 197.167,16.5 210.5,16.5C 210.5,20.1667 210.5,23.8333 210.5,27.5C 197.994,28.1667 185.327,28.8333 172.5,29.5C 185.87,27.6766 197.037,31.6766 206,41.5C 214.895,57.0911 212.395,70.5911 198.5,82C 195.107,84.0757 191.44,85.2424 187.5,85.5C 173.833,85.5 160.167,85.5 146.5,85.5C 146.5,81.8333 146.5,78.1667 146.5,74.5C 160.01,74.8289 173.344,74.4956 186.5,73.5C 189.661,72.0869 192.661,70.4203 195.5,68.5C 196.906,68.0269 197.573,67.0269 197.5,65.5C 200.633,54.5998 196.966,47.0998 186.5,43C 180.833,42.6667 175.167,42.3333 169.5,42C 158.09,35.6216 156.757,27.6216 165.5,18C 167.025,16.9914 168.692,16.4914 170.5,16.5 Z"/></g>
<g><path style="opacity:1" fill="#2a14ff" d="M 236.5,16.5 C 236.833,16.5 237.167,16.5 237.5,16.5C 251.5,16.5 265.5,16.5 279.5,16.5C 279.5,20.1667 279.5,23.8333 279.5,27.5C 267.678,28.4951 255.678,28.8284 243.5,28.5C 242.596,29.209 242.263,30.209 242.5,31.5C 251.833,31.5 261.167,31.5 270.5,31.5C 270.5,34.8333 270.5,38.1667 270.5,41.5C 257.5,41.5 244.5,41.5 231.5,41.5C 231.5,35.1667 231.5,28.8333 231.5,22.5C 231.66,20.847 232.326,19.5137 233.5,18.5C 235.027,18.573 236.027,17.9063 236.5,16.5 Z"/></g>
<g><path style="opacity:1" fill="#2f19ff" d="M 305.5,16.5 C 319.167,16.5 332.833,16.5 346.5,16.5C 346.5,20.1667 346.5,23.8333 346.5,27.5C 335.115,27.1884 323.782,27.5218 312.5,28.5C 311.167,38.5 311.167,48.5 312.5,58.5C 314.747,59.3742 317.08,59.7076 319.5,59.5C 321.048,59.1788 321.715,58.1788 321.5,56.5C 318.833,56.5 316.167,56.5 313.5,56.5C 313.5,52.8333 313.5,49.1667 313.5,45.5C 319.5,45.5 325.5,45.5 331.5,45.5C 331.5,53.8333 331.5,62.1667 331.5,70.5C 322.5,70.5 313.5,70.5 304.5,70.5C 301.482,69.6466 299.649,67.6466 299,64.5C 298.333,50.5 298.333,36.5 299,22.5C 299.513,21.4734 300.013,20.4734 300.5,19.5C 302.027,19.573 303.027,18.9063 303.5,17.5C 303.842,16.6618 304.508,16.3284 305.5,16.5 Z"/></g>
<g><path style="opacity:1" fill="#a398ff" d="M 236.5,16.5 C 236.027,17.9063 235.027,18.573 233.5,18.5C 233.973,17.0937 234.973,16.427 236.5,16.5 Z"/></g>
<g><path style="opacity:1" fill="#9182ff" d="M 303.5,17.5 C 303.027,18.9063 302.027,19.573 300.5,19.5C 300.973,18.0937 301.973,17.427 303.5,17.5 Z"/></g>
<g><path style="opacity:1" fill="#a099ff" d="M 393.5,16.5 C 394.931,17.7804 395.598,19.4471 395.5,21.5C 394.069,20.2196 393.402,18.5529 393.5,16.5 Z"/></g>
<g><path style="opacity:1" fill="#907bff" d="M 217.5,18.5 C 217.5,35.5 217.5,52.5 217.5,69.5C 216.698,68.0484 216.198,66.3817 216,64.5C 215.333,50.5 215.333,36.5 216,22.5C 216.21,20.9419 216.71,19.6085 217.5,18.5 Z"/></g>
<g><path style="opacity:1" fill="#a8a1ff" d="M 378.5,21.5 C 378.598,23.5529 377.931,25.2196 376.5,26.5C 376.402,24.4471 377.069,22.7804 378.5,21.5 Z"/></g>
<g><path style="opacity:1" fill="#a49cff" d="M 395.5,22.5 C 396.931,23.7804 397.598,25.4471 397.5,27.5C 396.069,26.2196 395.402,24.5529 395.5,22.5 Z"/></g>
<g><path style="opacity:1" fill="#6f6dff" d="M 243.5,28.5 C 252.44,30.4722 261.773,31.1389 271.5,30.5C 271.5,34.1667 271.5,37.8333 271.5,41.5C 271.167,41.5 270.833,41.5 270.5,41.5C 270.5,38.1667 270.5,34.8333 270.5,31.5C 261.167,31.5 251.833,31.5 242.5,31.5C 242.263,30.209 242.596,29.209 243.5,28.5 Z"/></g>
<g><path style="opacity:1" fill="#d1d1ff" d="M 346.5,30.5 C 347.167,44.8333 347.833,59.1667 348.5,73.5C 347.91,74.766 347.41,76.0993 347,77.5C 346.5,61.8369 346.333,46.1702 346.5,30.5 Z"/></g>
<g><path style="opacity:1" fill="#a7a0ff" d="M 397.5,28.5 C 398.931,29.7804 399.598,31.4471 399.5,33.5C 398.069,32.2196 397.402,30.5529 397.5,28.5 Z"/></g>
<g><path style="opacity:1" fill="#9d92ff" d="M 395.5,30.5 C 396.738,32.2143 397.405,34.2143 397.5,36.5C 395.926,34.8984 395.259,32.8984 395.5,30.5 Z"/></g>
<g><path style="opacity:1" fill="#aba4ff" d="M 158.5,35.5 C 159.906,35.9731 160.573,36.9731 160.5,38.5C 159.094,38.0269 158.427,37.0269 158.5,35.5 Z"/></g>
<g><path style="opacity:1" fill="#9c8eff" d="M 361.5,34.5 C 361.88,36.698 361.213,38.3646 359.5,39.5C 359.796,37.597 360.463,35.9303 361.5,34.5 Z"/></g>
<g><path style="opacity:1" fill="#9e90ff" d="M 376.5,35.5 C 376.88,37.698 376.213,39.3646 374.5,40.5C 374.796,38.597 375.463,36.9303 376.5,35.5 Z"/></g>
<g><path style="opacity:1" fill="#9e91ff" d="M 397.5,36.5 C 398.537,37.9303 399.204,39.597 399.5,41.5C 397.787,40.3646 397.12,38.698 397.5,36.5 Z"/></g>
<g><path style="opacity:1" fill="#a9a9ff" d="M 231.5,22.5 C 231.5,28.8333 231.5,35.1667 231.5,41.5C 244.5,41.5 257.5,41.5 270.5,41.5C 270.833,41.5 271.167,41.5 271.5,41.5C 258.01,42.4957 244.344,42.829 230.5,42.5C 230.176,35.6457 230.509,28.979 231.5,22.5 Z"/></g>
<g><path style="opacity:1" fill="#b9b8ff" d="M 313.5,41.5 C 320.833,41.5 328.167,41.5 335.5,41.5C 335.5,52.5 335.5,63.5 335.5,74.5C 324.986,74.8276 314.653,74.4942 304.5,73.5C 314.5,73.5 324.5,73.5 334.5,73.5C 334.5,63.1667 334.5,52.8333 334.5,42.5C 327.313,42.8245 320.313,42.4912 313.5,41.5 Z"/></g>
<g><path style="opacity:1" fill="#9688ff" d="M 359.5,40.5 C 359.88,42.698 359.213,44.3646 357.5,45.5C 357.796,43.597 358.463,41.9303 359.5,40.5 Z"/></g>
<g><path style="opacity:1" fill="#babaff" d="M 271.5,45.5 C 258.167,45.5 244.833,45.5 231.5,45.5C 231.5,52.1667 231.5,58.8333 231.5,65.5C 230.509,58.6866 230.175,51.6866 230.5,44.5C 244.344,44.171 258.01,44.5043 271.5,45.5 Z"/></g>
<g><path style="opacity:1" fill="#a195ff" d="M 414.5,41.5 C 415.537,42.9303 416.204,44.597 416.5,46.5C 414.787,45.3646 414.12,43.698 414.5,41.5 Z"/></g>
<g><path style="opacity:1" fill="#1309ff" d="M 271.5,45.5 C 271.5,49.1667 271.5,52.8333 271.5,56.5C 261.81,56.1682 252.144,56.5016 242.5,57.5C 242.624,58.1067 242.957,58.44 243.5,58.5C 255.45,59.4593 267.45,59.7926 279.5,59.5C 279.5,63.1667 279.5,66.8333 279.5,70.5C 265.167,70.5 250.833,70.5 236.5,70.5C 233.833,69.8333 232.167,68.1667 231.5,65.5C 231.5,58.8333 231.5,52.1667 231.5,45.5C 244.833,45.5 258.167,45.5 271.5,45.5 Z"/></g>
<g><path style="opacity:1" fill="#9d9cff" d="M 313.5,45.5 C 319.645,44.5098 325.978,44.1765 332.5,44.5C 332.5,53.5 332.5,62.5 332.5,71.5C 322.985,71.8269 313.652,71.4936 304.5,70.5C 313.5,70.5 322.5,70.5 331.5,70.5C 331.5,62.1667 331.5,53.8333 331.5,45.5C 325.5,45.5 319.5,45.5 313.5,45.5 Z"/></g>
<g><path style="opacity:1" fill="#9c8dff" d="M 154.5,49.5 C 156.404,49.7376 157.738,50.7376 158.5,52.5C 156.596,52.2624 155.262,51.2624 154.5,49.5 Z"/></g>
<g><path style="opacity:1" fill="#9e90ff" d="M 416.5,47.5 C 417.537,48.9303 418.204,50.597 418.5,52.5C 416.787,51.3646 416.12,49.698 416.5,47.5 Z"/></g>
<g><path style="opacity:1" fill="#d0cfff" d="M 169.5,56.5 C 174.5,56.5 179.5,56.5 184.5,56.5C 184.737,57.791 184.404,58.791 183.5,59.5C 179.087,57.8616 174.421,56.8616 169.5,56.5 Z"/></g>
<g><path style="opacity:1" fill="#d7d7ff" d="M 271.5,56.5 C 262.167,57.1667 252.833,57.8333 243.5,58.5C 242.957,58.44 242.624,58.1067 242.5,57.5C 252.144,56.5016 261.81,56.1682 271.5,56.5 Z"/></g>
<g><path style="opacity:1" fill="#a89bff" d="M 313.5,56.5 C 316.167,56.5 318.833,56.5 321.5,56.5C 321.715,58.1788 321.048,59.1788 319.5,59.5C 319.611,58.8826 319.944,58.3826 320.5,58C 317.964,57.8138 315.631,57.3138 313.5,56.5 Z"/></g>
<g><path style="opacity:1" fill="#9488ff" d="M 197.5,65.5 C 197.573,67.0269 196.906,68.0269 195.5,68.5C 195.427,66.9731 196.094,65.9731 197.5,65.5 Z"/></g>
<g><path style="opacity:1" fill="#8584ff" d="M 146.5,59.5 C 146.5,63.1667 146.5,66.8333 146.5,70.5C 160.167,70.5 173.833,70.5 187.5,70.5C 173.677,71.4958 159.677,71.8291 145.5,71.5C 145.183,67.2984 145.517,63.2984 146.5,59.5 Z"/></g>
<g><path style="opacity:1" fill="#9f9cff" d="M 279.5,59.5 C 280.483,63.2984 280.817,67.2984 280.5,71.5C 265.657,71.8293 250.99,71.496 236.5,70.5C 250.833,70.5 265.167,70.5 279.5,70.5C 279.5,66.8333 279.5,63.1667 279.5,59.5 Z"/></g>
<g><path style="opacity:1" fill="#5c57ff" d="M 408.5,69.5 C 409.043,69.56 409.376,69.8933 409.5,70.5C 400.19,71.4983 390.857,71.8316 381.5,71.5C 381.802,68.9407 381.468,66.6074 380.5,64.5C 380.372,62.3453 380.872,60.3453 382,58.5C 382.499,62.4862 382.666,66.4862 382.5,70.5C 391.349,70.8264 400.016,70.493 408.5,69.5 Z"/></g>
<g><path style="opacity:1" fill="#cdccff" d="M 412.5,72.5 C 413.043,72.56 413.376,72.8933 413.5,73.5C 402.854,74.4987 392.187,74.832 381.5,74.5C 391.833,73.8333 402.167,73.1667 412.5,72.5 Z"/></g>
<g><path style="opacity:1" fill="#b0aaff" d="M 186.5,73.5 C 173.344,74.4956 160.01,74.8289 146.5,74.5C 146.5,78.1667 146.5,81.8333 146.5,85.5C 160.167,85.5 173.833,85.5 187.5,85.5C 173.677,86.4958 159.677,86.8291 145.5,86.5C 145.5,82.1667 145.5,77.8333 145.5,73.5C 159.167,73.5 172.833,73.5 186.5,73.5 Z"/></g>
<g><path style="opacity:1" fill="#d8d8ff" d="M 360.5,82.5 C 360.5,83.5 360.5,84.5 360.5,85.5C 364.833,85.5 369.167,85.5 373.5,85.5C 369.03,86.4861 364.363,86.8195 359.5,86.5C 359.232,84.901 359.566,83.5676 360.5,82.5 Z"/></g>
<g><path style="opacity:1" fill="#dbdaff" d="M 428.5,83.5 C 429.404,84.209 429.737,85.209 429.5,86.5C 413.325,86.8297 397.325,86.4964 381.5,85.5C 397.536,86.1511 413.202,85.4844 428.5,83.5 Z"/></g>
<g><path style="opacity:1" fill="#d8d8d8" d="M 301.5,147.5 C 304.239,143.696 306.739,139.696 309,135.5C 309.667,131.833 309.667,128.167 309,124.5C 304.32,122.197 303.653,119.197 307,115.5C 308.012,110.925 307.512,106.592 305.5,102.5C 290.845,101.334 276.178,101.167 261.5,102C 261.011,104.209 260.011,106.042 258.5,107.5C 258.822,104.694 259.822,102.194 261.5,100C 276.593,99.0332 291.593,99.3666 306.5,101C 308.949,102.863 309.949,105.363 309.5,108.5C 309.519,112.444 308.519,116.111 306.5,119.5C 309.769,122.037 311.435,125.37 311.5,129.5C 310.905,134.451 309.405,139.118 307,143.5C 305.549,145.464 303.716,146.797 301.5,147.5 Z"/></g>
<g><path style="opacity:1" fill="#d8d8d8" d="M 372.5,104.5 C 372.804,103.85 373.137,103.183 373.5,102.5C 358.5,101.167 343.5,101.167 328.5,102.5C 327.339,105.358 326.006,108.025 324.5,110.5C 324.688,106.936 325.688,103.603 327.5,100.5C 343.156,99.3338 358.823,99.1671 374.5,100C 375.641,102.224 374.974,103.724 372.5,104.5 Z"/></g>
<g><path style="opacity:1" fill="#d8d8d8" d="M 505.5,104.5 C 505.414,103.504 505.748,102.671 506.5,102C 489.833,101.333 473.167,101.333 456.5,102C 455.944,102.383 455.611,102.883 455.5,103.5C 455.167,103.5 454.833,103.5 454.5,103.5C 454.511,101.983 455.177,100.816 456.5,100C 473.5,99.3333 490.5,99.3333 507.5,100C 508.641,102.224 507.974,103.724 505.5,104.5 Z"/></g>
<g><path style="opacity:1" fill="#d9d9d9" d="M 578.5,100.5 C 578.5,101.5 578.5,102.5 578.5,103.5C 572.957,117.872 568.291,132.539 564.5,147.5C 565.676,139.766 567.176,132.1 569,124.5C 571.51,116.818 574.01,109.152 576.5,101.5C 571.073,101.218 565.74,101.551 560.5,102.5C 560.414,101.504 560.748,100.671 561.5,100C 567.249,99.2153 572.916,99.3819 578.5,100.5 Z"/></g>
<g><path style="opacity:1" fill="#d1d1d1" d="M 96.5,101.5 C 90.1318,101.17 83.7985,101.504 77.5,102.5C 78.6113,103.611 79.278,104.945 79.5,106.5C 78.7283,110.167 77.395,113.501 75.5,116.5C 75.8789,112.985 76.8789,109.652 78.5,106.5C 73.6189,105.167 73.2856,103.001 77.5,100C 80.6667,99.8333 83.8333,99.6667 87,99.5C 90.5758,99.5152 93.7425,100.182 96.5,101.5 Z"/></g>
<g><path style="opacity:1" fill="#b7b7b7" d="M 505.5,104.5 C 494.346,105.495 483.012,105.828 471.5,105.5C 470.204,110.393 468.538,115.059 466.5,119.5C 467.08,115.858 467.58,112.191 468,108.5C 468.197,106.139 469.364,104.472 471.5,103.5C 466.147,102.265 460.813,102.265 455.5,103.5C 455.611,102.883 455.944,102.383 456.5,102C 473.167,101.333 489.833,101.333 506.5,102C 505.748,102.671 505.414,103.504 505.5,104.5 Z"/></g>
<g><path style="opacity:1" fill="#a1a1a1" d="M 96.5,101.5 C 93.3132,108.225 90.8132,115.225 89,122.5C 87.2488,129.753 86.0822,137.087 85.5,144.5C 86.5,144.5 87.5,144.5 88.5,144.5C 88.5,145.5 88.5,146.5 88.5,147.5C 82.1667,147.5 75.8333,147.5 69.5,147.5C 71.5538,137.14 73.5538,126.807 75.5,116.5C 77.395,113.501 78.7283,110.167 79.5,106.5C 79.278,104.945 78.6113,103.611 77.5,102.5C 83.7985,101.504 90.1318,101.17 96.5,101.5 Z"/></g>
<g><path style="opacity:1" fill="#a3a3a3" d="M 126.5,113.5 C 126.5,114.167 126.5,114.833 126.5,115.5C 124.864,116.749 123.697,118.416 123,120.5C 120.745,129.111 118.745,137.778 117,146.5C 112.263,147.469 107.43,147.803 102.5,147.5C 103.576,139.785 104.91,132.118 106.5,124.5C 107.635,116.576 109.968,109.242 113.5,102.5C 122.756,101.362 132.089,101.195 141.5,102C 137.236,103.066 132.903,104.066 128.5,105C 127.518,107.738 126.852,110.572 126.5,113.5 Z"/></g>
<g><path style="opacity:1" fill="#a1a1a1" d="M 162.5,108.5 C 162.259,106.102 162.926,104.102 164.5,102.5C 165.289,102.217 165.956,101.717 166.5,101C 171.155,100.501 175.821,100.334 180.5,100.5C 175.554,115.315 171.388,130.315 168,145.5C 163.263,146.469 158.43,146.803 153.5,146.5C 157.25,134.098 160.25,121.432 162.5,108.5 Z"/></g>
<g><path style="opacity:1" fill="#a5a5a5" d="M 246.5,106.5 C 247.634,108.966 247.801,111.633 247,114.5C 245.134,122.293 242.801,129.959 240,137.5C 237.5,142.509 233.666,145.842 228.5,147.5C 212.5,147.5 196.5,147.5 180.5,147.5C 182.135,139.893 183.468,132.226 184.5,124.5C 185.117,124.389 185.617,124.056 186,123.5C 188.358,116.201 190.524,108.868 192.5,101.5C 208.847,101.167 225.18,101.501 241.5,102.5C 243.186,103.857 244.852,105.19 246.5,106.5 Z M 208.5,105.5 C 215.175,105.334 221.842,105.5 228.5,106C 229.167,107 229.833,108 230.5,109C 228.032,119.366 224.866,129.533 221,139.5C 220.167,140.333 219.333,141.167 218.5,142C 211.476,142.831 204.476,142.664 197.5,141.5C 200.666,129.326 204.333,117.326 208.5,105.5 Z"/></g>
<g><path style="opacity:1" fill="#a2a2a2" d="M 301.5,147.5 C 293.16,147.666 284.827,147.5 276.5,147C 276.043,146.586 275.709,146.086 275.5,145.5C 279.87,144.797 284.204,143.964 288.5,143C 290.141,141.871 291.141,140.371 291.5,138.5C 292.227,135.366 292.894,132.199 293.5,129C 293.481,127.167 292.815,125.667 291.5,124.5C 286.9,122.869 281.9,121.869 276.5,121.5C 288.912,122.422 294.579,116.755 293.5,104.5C 287.167,104.5 280.833,104.5 274.5,104.5C 271.067,118.505 267.567,132.505 264,146.5C 259.263,147.469 254.43,147.803 249.5,147.5C 251.653,134.691 254.653,122.024 258.5,109.5C 258.5,108.833 258.5,108.167 258.5,107.5C 260.011,106.042 261.011,104.209 261.5,102C 276.178,101.167 290.845,101.334 305.5,102.5C 307.512,106.592 308.012,110.925 307,115.5C 303.653,119.197 304.32,122.197 309,124.5C 309.667,128.167 309.667,131.833 309,135.5C 306.739,139.696 304.239,143.696 301.5,147.5 Z"/></g>
<g><path style="opacity:1" fill="#a4a4a4" d="M 372.5,104.5 C 362.161,104.334 351.828,104.5 341.5,105C 340.656,108.923 339.656,112.757 338.5,116.5C 348.167,116.5 357.833,116.5 367.5,116.5C 368.625,117.348 368.625,118.348 367.5,119.5C 357.478,119.168 347.478,119.501 337.5,120.5C 334.282,126.807 333.115,133.474 334,140.5C 335.255,141.211 336.421,142.044 337.5,143C 345.054,144.432 352.721,144.932 360.5,144.5C 360.5,145.5 360.5,146.5 360.5,147.5C 349.495,147.667 338.495,147.5 327.5,147C 324.978,146.043 322.811,144.543 321,142.5C 318.636,135.194 319.303,128.194 323,121.5C 323.548,117.83 324.048,114.163 324.5,110.5C 326.006,108.025 327.339,105.358 328.5,102.5C 343.5,101.167 358.5,101.167 373.5,102.5C 373.137,103.183 372.804,103.85 372.5,104.5 Z"/></g>
<g><path style="opacity:1" fill="#a0a0a0" d="M 466.5,119.5 C 466.5,119.833 466.5,120.167 466.5,120.5C 465.069,121.903 463.902,123.569 463,125.5C 461.497,132.148 460.33,138.815 459.5,145.5C 454.105,145.733 448.772,145.4 443.5,144.5C 446.524,130.681 450.191,117.014 454.5,103.5C 454.833,103.5 455.167,103.5 455.5,103.5C 460.813,102.265 466.147,102.265 471.5,103.5C 469.364,104.472 468.197,106.139 468,108.5C 467.58,112.191 467.08,115.858 466.5,119.5 Z"/></g>
<g><path style="opacity:1" fill="#a3a3a3" d="M 564.5,147.5 C 564.5,147.833 564.5,148.167 564.5,148.5C 559.167,148.5 553.833,148.5 548.5,148.5C 547.634,145.218 547.801,141.885 549,138.5C 549.383,137.944 549.883,137.611 550.5,137.5C 553.937,125.908 557.27,114.241 560.5,102.5C 565.74,101.551 571.073,101.218 576.5,101.5C 574.01,109.152 571.51,116.818 569,124.5C 567.176,132.1 565.676,139.766 564.5,147.5 Z"/></g>
<g><path style="opacity:0.7" fill="#dadada" d="M 143.5,106.5 C 139.5,106.5 135.5,106.5 131.5,106.5C 132.946,117.578 134.779,128.578 137,139.5C 141.401,140.467 145.901,140.8 150.5,140.5C 148.609,129.158 146.609,117.825 144.5,106.5C 145.966,107.347 146.8,108.68 147,110.5C 148.617,121.352 150.451,132.018 152.5,142.5C 149.299,144.26 145.633,145.094 141.5,145C 141.043,145.414 140.709,145.914 140.5,146.5C 149.475,147.498 158.475,147.832 167.5,147.5C 167.5,147.833 167.5,148.167 167.5,148.5C 158.167,148.5 148.833,148.5 139.5,148.5C 138.754,146.864 139.088,145.197 140.5,143.5C 136.662,142.165 134.496,139.498 134,135.5C 132.983,126.016 131.316,116.682 129,107.5C 128.963,109.974 128.13,111.974 126.5,113.5C 126.852,110.572 127.518,107.738 128.5,105C 132.903,104.066 137.236,103.066 141.5,102C 132.089,101.195 122.756,101.362 113.5,102.5C 113.414,101.504 113.748,100.671 114.5,100C 123.833,99.3333 133.167,99.3333 142.5,100C 143.5,102.091 142.833,103.757 140.5,105C 141.737,105.232 142.737,105.732 143.5,106.5 Z"/></g>
<g><path style="opacity:1" fill="#d9d9d9" d="M 96.5,101.5 C 97.5983,102.601 97.765,103.934 97,105.5C 92.6908,117.094 89.1908,128.928 86.5,141C 87.9958,142.331 89.3291,143.831 90.5,145.5C 90.1445,146.522 89.4778,147.189 88.5,147.5C 88.5,146.5 88.5,145.5 88.5,144.5C 87.5,144.5 86.5,144.5 85.5,144.5C 86.0822,137.087 87.2488,129.753 89,122.5C 90.8132,115.225 93.3132,108.225 96.5,101.5 Z"/></g>
<g><path style="opacity:1" fill="#a1a1a1" d="M 131.5,106.5 C 135.5,106.5 139.5,106.5 143.5,106.5C 143.833,106.5 144.167,106.5 144.5,106.5C 146.609,117.825 148.609,129.158 150.5,140.5C 145.901,140.8 141.401,140.467 137,139.5C 134.779,128.578 132.946,117.578 131.5,106.5 Z"/></g>
<g><path style="opacity:1" fill="#d6d6d6" d="M 560.5,102.5 C 557.27,114.241 553.937,125.908 550.5,137.5C 551.198,131.738 552.032,126.071 553,120.5C 545.921,121.48 538.755,121.813 531.5,121.5C 529.457,130.583 527.124,139.583 524.5,148.5C 518.833,148.5 513.167,148.5 507.5,148.5C 510.17,131.986 514.67,115.986 521,100.5C 526.407,99.5268 531.907,99.1934 537.5,99.5C 537.115,104.941 536.115,110.274 534.5,115.5C 541.508,115.666 548.508,115.5 555.5,115C 557.073,110.703 558.74,106.537 560.5,102.5 Z"/></g>
<g><path style="opacity:1" fill="#a1a1a1" d="M 521.5,101.5 C 526.544,101.173 531.544,101.506 536.5,102.5C 533.909,106.764 532.909,111.431 533.5,116.5C 540.2,116.17 546.866,116.503 553.5,117.5C 553.333,117.833 553.167,118.167 553,118.5C 545.587,119.481 538.087,119.814 530.5,119.5C 527.757,128.395 525.424,137.395 523.5,146.5C 518.833,146.5 514.167,146.5 509.5,146.5C 512.533,131.383 516.533,116.383 521.5,101.5 Z"/></g>
<g><path style="opacity:1" fill="#d5d5d5" d="M 246.5,106.5 C 244.852,105.19 243.186,103.857 241.5,102.5C 225.18,101.501 208.847,101.167 192.5,101.5C 190.524,108.868 188.358,116.201 186,123.5C 185.617,124.056 185.117,124.389 184.5,124.5C 186.265,116.038 188.932,107.871 192.5,100C 208.5,99.3333 224.5,99.3333 240.5,100C 243.409,101.406 245.409,103.572 246.5,106.5 Z"/></g>
<g><path style="opacity:0.797" fill="#e3e3e3" d="M 372.5,104.5 C 362.765,105.178 352.932,105.845 343,106.5C 342.468,109.264 341.634,111.93 340.5,114.5C 349.658,115.167 358.658,115.833 367.5,116.5C 357.833,116.5 348.167,116.5 338.5,116.5C 339.656,112.757 340.656,108.923 341.5,105C 351.828,104.5 362.161,104.334 372.5,104.5 Z"/></g>
<g><path style="opacity:1" fill="#d9d9d9" d="M 367.5,119.5 C 367.389,120.117 367.056,120.617 366.5,121C 357.149,121.168 347.816,121.668 338.5,122.5C 336.935,126.926 335.602,131.426 334.5,136C 335.083,138.499 336.416,140.499 338.5,142C 345.833,142.333 353.167,142.667 360.5,143C 363.106,144.65 363.106,146.15 360.5,147.5C 360.5,146.5 360.5,145.5 360.5,144.5C 352.721,144.932 345.054,144.432 337.5,143C 336.421,142.044 335.255,141.211 334,140.5C 333.115,133.474 334.282,126.807 337.5,120.5C 347.478,119.501 357.478,119.168 367.5,119.5 Z"/></g>
<g><path style="opacity:1" fill="#dadada" d="M 454.5,103.5 C 450.191,117.014 446.524,130.681 443.5,144.5C 442.853,143.726 442.52,142.726 442.5,141.5C 444.837,131.82 447.337,122.153 450,112.5C 451.059,109.197 452.559,106.197 454.5,103.5 Z"/></g>
<g><path style="opacity:1" fill="#cfcfcf" d="M 466.5,120.5 C 464.578,127.777 462.911,135.11 461.5,142.5C 467.868,142.83 474.202,142.496 480.5,141.5C 482.645,137.4 483.978,133.067 484.5,128.5C 479.521,129.35 477.521,127.517 478.5,123C 487.518,122.168 496.518,122.335 505.5,123.5C 505.833,124.167 506.167,124.833 506.5,125.5C 504.148,131.927 501.648,138.26 499,144.5C 496.553,146.808 493.719,148.141 490.5,148.5C 478.5,148.5 466.5,148.5 454.5,148.5C 451.695,147.681 448.695,147.181 445.5,147C 444.619,146.292 443.953,145.458 443.5,144.5C 448.772,145.4 454.105,145.733 459.5,145.5C 460.33,138.815 461.497,132.148 463,125.5C 463.902,123.569 465.069,121.903 466.5,120.5 Z"/></g>
<g><path style="opacity:1" fill="#a1a1a1" d="M 479.5,124.5 C 487.5,124.5 495.5,124.5 503.5,124.5C 502.851,129.616 501.684,134.616 500,139.5C 499.208,141.587 498.041,143.421 496.5,145C 489.215,146.414 481.882,146.747 474.5,146C 477.586,145.016 480.419,143.516 483,141.5C 485.068,137.04 486.234,132.373 486.5,127.5C 484.473,127.662 482.473,127.495 480.5,127C 479.748,126.329 479.414,125.496 479.5,124.5 Z"/></g>
<g><path style="opacity:1" fill="#d8d8d8" d="M 126.5,115.5 C 123.369,126.501 120.369,137.501 117.5,148.5C 112.167,148.5 106.833,148.5 101.5,148.5C 101.018,147.584 100.685,146.584 100.5,145.5C 102.011,138.224 104.011,131.224 106.5,124.5C 104.91,132.118 103.576,139.785 102.5,147.5C 107.43,147.803 112.263,147.469 117,146.5C 118.745,137.778 120.745,129.111 123,120.5C 123.697,118.416 124.864,116.749 126.5,115.5 Z"/></g>
<g><path style="opacity:1" fill="#d8d8d8" d="M 291.5,124.5 C 286.489,124.666 281.489,124.499 276.5,124C 274.963,122.89 274.297,121.39 274.5,119.5C 278.936,119.79 283.27,119.29 287.5,118C 291.154,114.697 292.488,110.697 291.5,106C 286.581,105.198 281.748,105.365 277,106.5C 272.386,120.435 268.219,134.435 264.5,148.5C 259.167,148.5 253.833,148.5 248.5,148.5C 248.489,141.486 249.655,134.486 252,127.5C 253.518,121.101 255.684,115.101 258.5,109.5C 254.653,122.024 251.653,134.691 249.5,147.5C 254.43,147.803 259.263,147.469 264,146.5C 267.567,132.505 271.067,118.505 274.5,104.5C 280.833,104.5 287.167,104.5 293.5,104.5C 294.579,116.755 288.912,122.422 276.5,121.5C 281.9,121.869 286.9,122.869 291.5,124.5 Z"/></g>
<g><path style="opacity:1" fill="#d9d9d9" d="M 206.5,104.5 C 214.752,104.184 222.919,104.518 231,105.5C 230.138,116.436 227.805,127.103 224,137.5C 222.5,140.333 220.333,142.5 217.5,144C 210.586,144.811 203.752,144.645 197,143.5C 196.333,140.833 196.333,138.167 197,135.5C 199.464,124.942 202.631,114.609 206.5,104.5 Z M 208.5,105.5 C 204.333,117.326 200.666,129.326 197.5,141.5C 204.476,142.664 211.476,142.831 218.5,142C 219.333,141.167 220.167,140.333 221,139.5C 224.866,129.533 228.032,119.366 230.5,109C 229.833,108 229.167,107 228.5,106C 221.842,105.5 215.175,105.334 208.5,105.5 Z"/></g>
<g><path style="opacity:1" fill="#d5d5d5" d="M 324.5,110.5 C 324.048,114.163 323.548,117.83 323,121.5C 319.303,128.194 318.636,135.194 321,142.5C 322.811,144.543 324.978,146.043 327.5,147C 338.495,147.5 349.495,147.667 360.5,147.5C 360.5,147.833 360.5,148.167 360.5,148.5C 349.167,148.5 337.833,148.5 326.5,148.5C 318.042,144.459 315.208,137.792 318,128.5C 319.572,122.167 321.738,116.167 324.5,110.5 Z"/></g>
<g><path style="opacity:1" fill="#c1c1c1" d="M 167.5,147.5 C 158.475,147.832 149.475,147.498 140.5,146.5C 140.709,145.914 141.043,145.414 141.5,145C 145.633,145.094 149.299,144.26 152.5,142.5C 154.852,130.787 158.185,119.453 162.5,108.5C 160.25,121.432 157.25,134.098 153.5,146.5C 158.43,146.803 163.263,146.469 168,145.5C 171.388,130.315 175.554,115.315 180.5,100.5C 175.821,100.334 171.155,100.501 166.5,101C 165.956,101.717 165.289,102.217 164.5,102.5C 164.414,101.504 164.748,100.671 165.5,100C 170.864,99.1705 176.198,99.3372 181.5,100.5C 181.709,101.086 182.043,101.586 182.5,102C 177.635,115.914 173.469,130.081 170,144.5C 169.764,146.119 168.931,147.119 167.5,147.5 Z"/></g>
<g><path style="opacity:1" fill="#cccccc" d="M 56.5,148.5 C 44.1667,148.5 31.8333,148.5 19.5,148.5C 14.6282,147.578 9.96151,145.745 5.5,143C 2.77313,140.145 0.773125,136.978 -0.5,133.5C -0.5,131.167 -0.5,128.833 -0.5,126.5C 1.80131,120.335 3.96797,114.002 6,107.5C 6.38258,106.944 6.88258,106.611 7.5,106.5C 7.31701,104.064 7.98368,101.897 9.5,100C 14.8333,99.3333 20.1667,99.3333 25.5,100C 26.0219,100.561 26.3552,101.228 26.5,102C 23.274,110.419 20.4406,118.919 18,127.5C 16.648,135.169 19.8147,140.003 27.5,142C 37.1667,142.333 46.8333,142.667 56.5,143C 58.5467,144.6 58.5467,146.433 56.5,148.5 Z"/></g>
<g><path style="opacity:1" fill="#a0a0a0" d="M 7.5,106.5 C 8.93127,105.22 9.59794,103.553 9.5,101.5C 14.5,101.5 19.5,101.5 24.5,101.5C 22.0735,109.617 19.2401,117.617 16,125.5C 15.0105,136.194 19.8438,142.694 30.5,145C 38.8333,145.333 47.1667,145.667 55.5,146C 41.4586,146.888 27.4586,146.554 13.5,145C 8.53278,143.114 4.69944,139.947 2,135.5C 1.83333,133.667 1.66667,131.833 1.5,130C 3.102,121.995 5.102,114.162 7.5,106.5 Z"/></g>
<g><path style="opacity:1" fill="#cdcdcd" d="M 432.5,148.5 C 426.5,148.5 420.5,148.5 414.5,148.5C 412.193,147.237 410.859,145.237 410.5,142.5C 411.743,144.164 413.41,145.331 415.5,146C 420.833,146.667 426.167,146.667 431.5,146C 430,145.167 428.833,144 428,142.5C 425.306,135.92 423.139,129.253 421.5,122.5C 434.934,123.397 440.934,117.063 439.5,103.5C 433.87,102.479 428.204,102.313 422.5,103C 425.906,106.042 426.24,109.208 423.5,112.5C 423.756,110.208 423.423,108.041 422.5,106C 415.842,105.5 409.175,105.334 402.5,105.5C 401.538,109.669 400.205,113.669 398.5,117.5C 396.295,127.988 393.628,138.322 390.5,148.5C 385.167,148.5 379.833,148.5 374.5,148.5C 373.982,147.423 373.648,146.256 373.5,145C 377.059,129.576 381.726,114.576 387.5,100C 403.5,99.3333 419.5,99.3333 435.5,100C 439.833,101.161 441.833,103.995 441.5,108.5C 440.75,119.923 434.75,125.257 423.5,124.5C 425.226,130.179 427.06,135.846 429,141.5C 434.515,141.912 435.682,144.246 432.5,148.5 Z"/></g>
<g><path style="opacity:1" fill="#d3d3d3" d="M 423.5,112.5 C 423.673,116.17 422.007,118.67 418.5,120C 413.845,120.499 409.179,120.666 404.5,120.5C 406.224,125.244 407.891,130.077 409.5,135C 410.159,137.462 410.493,139.962 410.5,142.5C 407.559,135.856 404.892,129.023 402.5,122C 402.957,121.586 403.291,121.086 403.5,120.5C 407.796,119.672 412.129,119.172 416.5,119C 417.833,118.333 419.167,117.667 420.5,117C 421.053,115.122 422.053,113.622 423.5,112.5 Z"/></g>
<g><path style="opacity:1" fill="#a0a0a0" d="M 410.5,142.5 C 410.493,139.962 410.159,137.462 409.5,135C 407.891,130.077 406.224,125.244 404.5,120.5C 409.179,120.666 413.845,120.499 418.5,120C 422.007,118.67 423.673,116.17 423.5,112.5C 426.24,109.208 425.906,106.042 422.5,103C 428.204,102.313 433.87,102.479 439.5,103.5C 440.934,117.063 434.934,123.397 421.5,122.5C 423.139,129.253 425.306,135.92 428,142.5C 428.833,144 430,145.167 431.5,146C 426.167,146.667 420.833,146.667 415.5,146C 413.41,145.331 411.743,144.164 410.5,142.5 Z"/></g>
<g><path style="opacity:1" fill="#9f9f9f" d="M 398.5,117.5 C 394.166,126.565 391.166,136.231 389.5,146.5C 385.167,146.5 380.833,146.5 376.5,146.5C 376.835,141.823 377.335,137.156 378,132.5C 381.023,122.726 384.189,113.06 387.5,103.5C 392.12,102.507 396.786,102.173 401.5,102.5C 399.884,107.357 398.884,112.357 398.5,117.5 Z"/></g>
<g><path style="opacity:1" fill="#d3d3d3" d="M 75.5,116.5 C 73.5538,126.807 71.5538,137.14 69.5,147.5C 75.8333,147.5 82.1667,147.5 88.5,147.5C 88.5,147.833 88.5,148.167 88.5,148.5C 81.8333,148.5 75.1667,148.5 68.5,148.5C 67.5126,144.871 67.6792,141.204 69,137.5C 70.416,130.142 72.5826,123.142 75.5,116.5 Z"/></g>
<g><path style="opacity:1" fill="#dadada" d="M 184.5,124.5 C 183.468,132.226 182.135,139.893 180.5,147.5C 196.5,147.5 212.5,147.5 228.5,147.5C 228.5,147.833 228.5,148.167 228.5,148.5C 212.167,148.5 195.833,148.5 179.5,148.5C 179.077,147.735 178.743,146.902 178.5,146C 180.143,138.601 182.143,131.434 184.5,124.5 Z"/></g>
<g><path style="opacity:1" fill="#dddddd" d="M 291.5,138.5 C 291.141,140.371 290.141,141.871 288.5,143C 284.204,143.964 279.87,144.797 275.5,145.5C 275.709,146.086 276.043,146.586 276.5,147C 284.827,147.5 293.16,147.666 301.5,147.5C 301.5,147.833 301.5,148.167 301.5,148.5C 292.833,148.5 284.167,148.5 275.5,148.5C 273.453,146.433 273.453,144.6 275.5,143C 279.167,142.667 282.833,142.333 286.5,142C 288.323,141.003 289.99,139.836 291.5,138.5 Z"/></g>
</svg>
