<?xml version="1.0" encoding="UTF-8" standalone="no"?>
<!-- Generator: Adobe Illustrator 16.0.0, SVG Export Plug-In . SVG Version: 6.00 Build 0)  -->

<svg
   version="1.1"
   id="Layer_1"
   x="0px"
   y="0px"
   width="640px"
   height="200px"
   viewBox="0 0 640 200"
   enable-background="new 0 0 640 200"
   xml:space="preserve"
   sodipodi:docname="LaserActive_logo.svg"
   inkscape:version="1.4.2 (f4327f4, 2025-05-13)"
   xmlns:inkscape="http://www.inkscape.org/namespaces/inkscape"
   xmlns:sodipodi="http://sodipodi.sourceforge.net/DTD/sodipodi-0.dtd"
   xmlns="http://www.w3.org/2000/svg"
   xmlns:svg="http://www.w3.org/2000/svg"><defs
   id="defs26" /><sodipodi:namedview
   id="namedview26"
   pagecolor="#ffffff"
   bordercolor="#000000"
   borderopacity="0.25"
   inkscape:showpageshadow="2"
   inkscape:pageopacity="0.0"
   inkscape:pagecheckerboard="0"
   inkscape:deskcolor="#d1d1d1"
   inkscape:zoom="3.7546875"
   inkscape:cx="-34.490221"
   inkscape:cy="99.875156"
   inkscape:window-width="2560"
   inkscape:window-height="1316"
   inkscape:window-x="-12"
   inkscape:window-y="-12"
   inkscape:window-maximized="1"
   inkscape:current-layer="Layer_1" />
<g
   id="g9">
	<g
   id="g1">
		<path
   d="M185.36,149c2.32-12.62,8.62-24.88,18.96-32.75c7.23-5.59,16.87-8.55,25.91-6.37c8.66,1.96,15.69,8.56,19.56,16.37    c3.62,6.99,4.78,14.94,4.89,22.73L185.36,149z M227.224,137.9c-0.321-3.14-1.536-8.82-4.344-8.84    c-3.36,0.188-5.566,5.887-6.401,8.84H227.224z"
   id="path1" />
	</g>
	<path
   d="M393.69,113.72c5.69-3.2,12.37-5.26,18.92-4.27c3.85,0.92,7.81,3.1,9.99,6.41c-0.35,7.55-1.36,15.08-2.2,22.6   c-8.12-2.37-16.65,2.9-19.61,10.5c-9.99,0.05-19.98,0.08-29.96-0.02C373.14,134.77,381.15,121.1,393.69,113.72z"
   id="path2" />
	<path
   d="M178.66,136.12c-5.04-0.76-10.13-2.5-15.27-1.65c-1.11,0.37-2.93,0.98-2.65,2.49c0.72,1.94,2.71,2.88,4.34,3.94   c4.21,2.38,8.4,4.84,12.11,7.97l-44.23,0.11c-2.18-8.04-1.88-17.15,2.65-24.36c4.95-8.24,14.41-12.56,23.55-14.23   c7.47-0.62,16.21-0.28,21.66,5.61L178.66,136.12z"
   id="path3" />
	<path
   d="M256.01,148.96c1.03-12.41,2.3-24.8,3.73-37.16c8.25,0.01,16.5,0.02,24.76,0c-0.16,2.1-0.29,4.21-0.43,6.32   c6.03-4.28,13-7.03,20.21-8.57c-0.64,9.24-1,18.49-1.81,27.72c-8.5,1.41-16.4,5.49-22.42,11.63L256.01,148.96z"
   id="path4" />
	<path
   d="M61.84,148.99c1.86-10.92,6.82-21.61,15.07-29.16c5.3-4.9,12.99-7.97,20.17-5.83c3.8,0.97,6.82,3.58,9.67,6.14l0.97-8.28   c8.27-0.16,16.54,0.01,24.81-0.05l-3.82,37.17c-8.59,0.03-17.18,0.01-25.77,0.01c-0.66-3.48-0.96-8.58-5.01-9.72   c-4.88,0.17-6.3,6-7.78,9.73L61.84,148.99z"
   id="path5" />
	<path
   d="M89.54,158.16c0.7,3.01,1.07,7.06,4.41,8.36c4.63,0.28,6.27-5.05,7.83-8.46c8.66,0.06,17.32,0.04,25.98,0.01l-3.69,35.5   c-8.31-0.01-16.62-0.01-24.93,0c0.22-1.61,0.45-3.2,0.69-4.8c-4.43,3.74-9.8,7.02-15.79,6.9c-6.66,0.27-12.73-3.87-16.38-9.2   c-5.69-8.22-7.36-18.55-7.03-28.37L89.54,158.16z"
   id="path6" />
	<path
   d="M131.88,165.09c7.24,2.48,14.36,6,22.1,6.56c1.46,0.3,4.27-0.51,3.26-2.51c-3.62-5.59-11.66-5.9-15.7-10.99l42.32,0.04   c0.19,0.45,0.56,1.34,0.75,1.79c0-0.47-0.01-1.42-0.01-1.89l29.13,0.01c0.44,3.87,0.5,8.07,2.76,11.42   c0.81,1.41,3.09,1.52,4.04,0.13c2.47-2.41,3.42-5.84,4.63-8.96l27.75,0.01c-3.15,12.33-10.3,24.13-21.32,30.9   c-8.32,5.22-19.36,6.6-28.28,2.09c-9.76-4.86-15.83-15.1-17.73-25.58c-0.89,8.12-4.48,16.35-11.53,20.92   c-13.22,8.77-32.52,7.59-44.29-3.18L131.88,165.09z"
   id="path7" />
	<path
   d="M369.84,158.13c10.2-0.06,20.41-0.07,30.62,0.01c2.54,6.81,10.22,10.65,17.21,8.46c-0.93,7.64-1.26,15.38-2.54,22.97   c-4.17,4.18-10.24,6.89-16.24,6.19c-10.86-0.57-20.18-8.46-24.61-18.08C371.23,171.62,370.36,164.81,369.84,158.13z"
   id="path8" />
	<path
   d="M567.44,158.1c9.67,0.01,19.34-0.06,29.02,0.04c0.37,4.22,0.34,9.15,3.64,12.31c1.35,0.41,2.45,0.07,3.31-1.03   c2.29-2.42,3.21-5.71,4.37-8.74c9.27,0.01,18.54,0,27.81,0.01c-3.27,12.72-10.82,24.85-22.39,31.51c-8.71,5.1-20.2,5.88-28.98,0.54   C572.45,185.76,566.95,171.32,567.44,158.1z"
   id="path9" />
</g>
<g
   id="g10">
	<polygon
   points="36.913,165.456 45.77,81.19 13.898,81.19 2.196,192.529 56.717,192.529 59.563,165.456  "
   id="polygon9" />
</g>
<polygon
   points="563.45,149.009 573.931,113.77 547.934,113.77 537.65,148.18 534.051,113.77 508.329,113.77 511.418,149.009 "
   id="polygon10" />
<path
   d="M560.65,158.1c-16.09-0.03-32.19,0.02-48.28-0.02l3.519,34.449h34.208L560.65,158.1z"
   id="path10" />
<g
   id="g12">
	<polygon
   points="472.048,158.08 468.489,192.529 494.662,192.529 498.172,158.08  "
   id="polygon11" />
	<polygon
   points="499.097,149 502.687,113.77 476.625,113.77 472.985,149  "
   id="polygon12" />
</g>
<polygon
   points="453.561,192.529 457.051,158.1 431.001,158.1 427.715,192.529 "
   id="polygon13" />
<g
   id="g14">
	<path
   fill="none"
   d="M320.58,174.31l-6.05,18.219h32.241l-2.411-18.109C336.44,174.15,328.51,174.34,320.58,174.31z"
   id="path13" />
	<polygon
   points="254.93,158.17 251.399,192.529 276.459,192.529 279.79,158.07  "
   id="polygon14" />
	<path
   fill="#FF0000"
   d="M299.97,158.1l-11.376,34.429h25.937l6.05-18.219c7.93,0.03,15.86-0.16,23.78,0.11l2.411,18.109h26.02   l-4.721-34.379L299.97,158.1z"
   id="path14" />
</g>
<polygon
   points="479.394,84.709 477.125,106.675 503.237,106.675 505.475,84.709 "
   id="polygon15" />
<polygon
   points="471.99,113.77 461.687,113.77 461.678,113.77 464.475,84.709 438.394,84.709 435.587,113.77 425.5,113.77   422.98,137.9 433.132,137.9 431.985,149 458.097,149 459.228,137.9 469.752,137.9 "
   id="polygon16" />
<path
   fill="#FF0000"
   d="M329.087,149.006c0.014-0.009,0.029-0.017,0.042-0.026c2.72-8.26,5.51-16.51,8.3-24.75  c1.29,8.24,2.2,16.53,3.44,24.77c0.003,0.002,0.006,0.004,0.009,0.006h25.923c0.002-0.002,0.005-0.004,0.008-0.006l-8.892-67.81  h-32.081l-22.748,67.74c0.042,0.027,0.086,0.049,0.128,0.076H329.087z"
   id="path16" />
<path
   d="M629.92,122.03c-4.64-6.99-12.34-12.09-20.8-12.76c-8.39-0.79-16.71,2.53-23.16,7.76c-9.71,7.92-15.78,19.73-17.91,31.97  l69.25-0.01C637.28,139.59,635.39,129.85,629.92,122.03z M603.75,129.667c1.1-0.82,2.997-0.415,3.708,0.458  c1.258,1.543,2.125,4.333,2.472,7.792h-10.897C599.583,134.917,601.012,131.435,603.75,129.667z"
   id="path17" />
<g
   id="g26">
	<path
   fill-rule="evenodd"
   clip-rule="evenodd"
   d="M82.477,62.697c1.261,1.275,0.102,1.697-0.428,1.802l0,0l-5.599,0.53L78.457,72   h19.439l0.022-9.786l0,0C87.782,58.719,80.5,49.098,80.5,37.773c0-8.697,4.296-16.392,10.883-21.075   c3.803-2.323,3.978,0.792,4.207,1.849l0,0v25.987l0,0c0,4.757,3.086,8.793,7.367,10.213c0.924,0.329,1.447,0.764,1.379,1.952l0,0   L104.312,72h4.202l-0.006-15.528l0,0c0-0.697,0-1.396,1.223-1.746c4.236-1.445,7.372-5.466,7.372-10.192l0,0V17.913l0,0   c0.019-2.746,2.123-2.755,3.506-1.691c6.654,4.544,11.583,12.351,11.583,21.551c0,11.394-7.372,21.064-17.607,24.504l0,0   L114.585,72h19.545l2.007-7.079l-5.07-0.633l0,0c-0.809-0.27-1.903-0.843-0.477-1.957c6.339-6.256,10.266-14.947,10.266-24.559   c0-16.743-11.921-30.7-27.74-33.847l0,0l-0.009,35.96l0,0c0,3.463-3.293,6.274-6.76,6.274c-3.466,0-6.867-2.811-6.867-6.274l0,0   l0.009-35.986l0,0c-15.88,3.096-27.654,17.083-27.654,33.873C71.834,47.573,75.92,56.418,82.477,62.697L82.477,62.697z"
   id="path18" />
	<polygon
   fill-rule="evenodd"
   clip-rule="evenodd"
   points="398.576,42.878 404.708,35.543 429.807,35.543 423.101,42.878    398.576,42.878 398.576,42.878  "
   id="polygon18" />
	<polygon
   fill-rule="evenodd"
   clip-rule="evenodd"
   points="454.362,42.878 460.495,35.543 485.647,35.543 478.887,42.878    454.362,42.878 454.362,42.878  "
   id="polygon19" />
	<path
   fill-rule="evenodd"
   clip-rule="evenodd"
   d="M164.889,63.155V23.856l0,0c0-1.161-0.211-4.752-0.634-5.493l0,0h42.891l0,0   c8.766,0,14.366,3.592,14.366,16.903c0,13.312-6.867,16.058-16.479,16.058l0,0h-13.522l-6.337-7.184h15.421l0,0   c6.443,0.051,6.338-6.233,6.443-8.768c0.108-2.535,0.53-9.614-6.126-9.614l0,0h-21.021v37.396H164.889L164.889,63.155   L164.889,63.155z"
   id="path19" />
	<path
   fill-rule="evenodd"
   clip-rule="evenodd"
   d="M243.276,18.363v44.792h-15.002v-38.98l0,0c-0.315-2.219-0.315-5.176-0.843-5.811   l0,0H243.276L243.276,18.363L243.276,18.363z"
   id="path20" />
	<path
   fill-rule="evenodd"
   clip-rule="evenodd"
   d="M282.188,16.887c-11.197,0.211-31.056-2.959-31.056,21.974   c0,26.196,10.773,26.196,31.056,26.196c20.285,0,29.792-2.111,29.792-25.353C311.98,16.464,298.879,17.098,282.188,16.887   L282.188,16.887L282.188,16.887L282.188,16.887z M280.816,58.033c-12.466,0-13.838-5.44-13.838-18.117   c0-13.944,4.647-16.479,14.367-16.479c9.718,0,14.79,2.114,14.79,16.69C296.135,54.706,293.282,58.033,280.816,58.033   L280.816,58.033L280.816,58.033L280.816,58.033z"
   id="path21" />
	<path
   fill-rule="evenodd"
   clip-rule="evenodd"
   d="M318.966,63.155V24.492l0,0c0-1.903-0.108-4.015-0.846-6.128l0,0H334.6l0,0   c3.805-0.209,7.184,0.423,11.198,7.184l0,0l18.382,27.888l0,0c1.268,1.903,2.957,1.479,2.957-0.632l0,0v-34.44h7.606v44.792   h-14.788l0,0c-3.803,0.211-7.816-0.635-12.468-7.395l0,0l-17.534-26.62l0,0c-1.481-1.9-3.381-2.114-3.381,0.211l0,0v28.523l0,0   c0,1.9-0.105,3.592,0.527,5.281l0,0H318.966L318.966,63.155L318.966,63.155z"
   id="path22" />
	<path
   fill-rule="evenodd"
   clip-rule="evenodd"
   d="M436.428,18.363h-39.086l0,0c-5.706,0-15.847,0.846-15.847,21.552   c0,20.3,5.492,23.239,15.847,23.239l0,0h33.381l5.6-7.395h-30.583l0,0c-3.486-0.054-8.187,0.582-8.187-15.001   c0-16.27,2.957-15,7.817-15l0,0h25.672L436.428,18.363L436.428,18.363L436.428,18.363z"
   id="path23" />
	<path
   fill-rule="evenodd"
   clip-rule="evenodd"
   d="M545.039,46.686l6.569,10.764l0,0c1.689,2.325,3.379,4.438,4.541,5.706l0,0   h-15.528l0,0c-2.325,0-6.233-1.268-8.557-4.649l0,0l-8.347-12.676l0,0c-1.478-1.268-2.324-2.959-4.646-5.071l0,0h12.887l0,0   c4.279,0,5.281-5.069,5.281-7.606c0-2.534,0-7.182-5.703-7.182l0,0h-19.438v37.184h-58.736l0,0   c-10.352,0-15.847-2.939-15.847-23.239c0-20.707,10.144-21.552,15.847-21.552l0,0h38.665l-6.074,7.395h-25.142l0,0   c-3.381,0-7.073-1.267-7.238,15c-0.157,15.688,6.287,15.001,8.346,15.001l0,0h35.389V18.363h40.778l0,0   c13.733,0,14.791,8.876,14.577,14.579c-0.186,5.03-1.685,9.157-6.528,11.296C545.11,44.616,544.28,45.323,545.039,46.686   L545.039,46.686L545.039,46.686L545.039,46.686z"
   id="path24" />
	<path
   fill-rule="evenodd"
   clip-rule="evenodd"
   d="M559.811,21.683c-2.451,0-4.634,1.694-4.634,4.609c0,2.915,2.183,4.61,4.634,4.61   c2.438,0,4.621-1.695,4.621-4.61C564.431,23.377,562.248,21.683,559.811,21.683L559.811,21.683L559.811,21.683L559.811,21.683z    M559.811,29.841v-0.013l0,0c-1.829,0.013-3.304-1.414-3.304-3.537c0-2.121,1.475-3.536,3.304-3.536   c1.779,0,3.291,1.415,3.291,3.536C563.102,28.415,561.59,29.841,559.811,29.841L559.811,29.841L559.811,29.841L559.811,29.841z"
   id="path25" />
	<path
   fill-rule="evenodd"
   clip-rule="evenodd"
   d="M560.677,26.596c0.658-0.047,1.193-0.377,1.193-1.292   c0-1.134-0.756-1.5-2.037-1.5l0,0h-1.852v4.963h1.06v-2.086h0.499l1.146,2.086h1.257L560.677,26.596L560.677,26.596L560.677,26.596   z M559.98,25.842h-0.939v-1.196h0.743l0,0c0.404,0,0.951,0.036,0.951,0.549C560.736,25.744,560.456,25.842,559.98,25.842   L559.98,25.842L559.98,25.842L559.98,25.842z"
   id="path26" />
</g>
<path
   style="fill:#ffffff;stroke-width:0.266334"
   d="m 62.50754,146.41698 c 2.105123,-9.7926 6.781941,-18.69939 13.176391,-25.09384 2.796581,-2.79658 4.856836,-4.30067 7.830775,-5.71688 2.844655,-1.35464 4.820808,-1.87297 7.83777,-2.05578 5.165306,-0.31299 8.512144,1.05989 14.454394,5.9292 0.47926,0.39272 0.9224,0.66301 0.98477,0.60065 0.0624,-0.0624 0.32238,-1.93741 0.57783,-4.16677 l 0.46444,-4.05339 h 12.2758 12.27581 l -1.91726,18.44362 c -1.05449,10.14398 -1.92738,18.47357 -1.93974,18.51019 -0.0124,0.0366 -5.75192,0.0666 -12.75457,0.0666 h -12.73209 l -0.34324,-2.06409 c -0.67217,-4.04203 -1.81775,-6.26896 -3.725579,-7.24226 -1.096334,-0.55931 -2.117087,-0.46756 -3.652608,0.32831 -1.714667,0.88872 -3.28602,3.38283 -4.775462,7.57978 l -0.496223,1.39826 H 76.013344 61.97794 Z"
   id="path27" /><path
   style="fill:#ffffff;stroke-width:0.266334"
   d="m 79.766958,195.10071 c -8.083828,-2.06687 -14.663963,-10.04148 -17.409559,-21.09903 -0.357243,-1.43875 -0.792114,-3.45486 -0.966378,-4.48025 -0.345191,-2.03112 -0.730836,-9.06182 -0.573397,-10.4536 l 0.09792,-0.86558 H 75.14362 c 11.152743,0 14.249215,0.072 14.325879,0.33291 0.05379,0.18311 0.291428,1.17187 0.528078,2.19726 0.61496,2.66453 1.561827,4.45494 2.815468,5.32371 0.910195,0.63077 1.218277,0.70698 2.23903,0.55391 1.313761,-0.19701 2.989226,-1.28214 3.853312,-2.49564 0.310782,-0.43645 1.121843,-1.94524 1.802373,-3.35285 l 1.23732,-2.5593 h 12.83485 12.83485 l -0.0926,0.73242 c -0.11411,0.90255 -3.54383,34.07783 -3.54383,34.27897 0,0.0796 -5.55354,0.14466 -12.34121,0.14466 H 99.295944 l 0.343198,-2.32121 c 0.188758,-1.27667 0.30933,-2.35509 0.267939,-2.39648 -0.04139,-0.0414 -0.904461,0.56665 -1.91793,1.35121 -2.558205,1.9804 -5.715877,3.74283 -8.234677,4.59612 -1.752218,0.5936 -2.69835,0.7365 -5.326675,0.80455 -2.129311,0.0551 -3.684907,-0.0422 -4.660841,-0.29178 z"
   id="path28" /><path
   style="fill:#ffffff;stroke-width:0.266334"
   d="m 211.20266,195.99493 c -2.13761,-0.30512 -5.75328,-1.4439 -7.72153,-2.43195 -8.34581,-4.18956 -15.09231,-13.32816 -17.31675,-23.45674 -0.25106,-1.14319 -0.51535,-2.01966 -0.58729,-1.94772 -0.0719,0.0719 -0.30349,1.12713 -0.51454,2.34486 -1.23778,7.14178 -4.94153,13.72695 -9.81494,17.45072 -3.49298,2.66898 -9.13374,5.1031 -14.20033,6.12779 -3.27547,0.66244 -11.01716,0.64704 -14.16422,-0.0282 -6.32519,-1.35712 -12.13588,-4.07718 -16.15056,-7.56029 l -0.83637,-0.72563 1.04112,-10.10348 c 0.57261,-5.55692 1.0886,-10.15097 1.14663,-10.20901 0.058,-0.058 2.3629,0.73141 5.12193,1.75433 9.23124,3.42249 12.89346,4.38795 16.77151,4.42145 2.79629,0.0242 3.55909,-0.36331 3.55909,-1.80787 0,-0.65421 -0.35319,-1.15904 -1.79775,-2.56958 -1.54273,-1.50641 -2.4778,-2.10144 -6.59176,-4.19465 -3.05409,-1.55394 -5.27732,-2.87359 -6.12568,-3.63604 l -1.33167,-1.19682 20.96742,-0.0119 20.96742,-0.0119 0.52726,0.99875 0.52726,0.99875 0.0118,-0.99875 0.0118,-0.99875 h 14.47689 14.4769 l 0.18307,2.19725 c 0.37565,4.50861 1.50335,8.22581 2.92757,9.65003 0.92093,0.92093 2.48652,0.92106 3.58079,3e-4 1.26561,-1.06494 2.649,-3.36991 3.83442,-6.38884 l 1.09765,-2.79541 h 13.66891 c 8.82476,0 13.6689,0.0933 13.6689,0.26315 0,0.59723 -1.74402,5.64654 -2.80683,8.12637 -2.75529,6.42885 -6.32899,11.74041 -11.02041,16.37952 -8.04516,7.95547 -18.06731,11.7192 -27.58766,10.36031 z"
   id="path29" /><path
   style="fill:#ffffff;stroke-width:0.266334"
   d="m 185.68006,148.01498 c 0.40366,-2.11386 1.99225,-7.49858 2.89117,-9.79999 1.42201,-3.64061 4.14645,-8.78948 6.19428,-11.70646 2.44554,-3.48348 8.28511,-9.29758 11.44104,-11.39113 5.98363,-3.96938 11.80032,-5.78903 18.3128,-5.72882 7.26136,0.0671 13.82739,3.03938 19.25405,8.71577 6.50802,6.80751 9.98696,15.83482 10.61683,27.54899 l 0.17353,3.22723 h -34.52449 -34.5245 z m 41.49689,-11.42749 c -0.237,-1.72321 -0.9935,-4.39341 -1.5491,-5.46782 -0.52692,-1.01894 -1.91768,-2.21414 -2.57643,-2.21414 -1.50955,0 -3.26555,1.40172 -4.53896,3.62321 -0.7552,1.31747 -2.11629,4.64376 -2.11629,5.17189 0,0.16102 2.09126,0.26025 5.48484,0.26025 h 5.48483 z"
   id="path30" /><path
   style="fill:#ffffff;stroke-width:0.266334"
   d="m 132.64556,146.98631 c -2.36583,-10.40179 0.19147,-20.36322 6.94055,-27.03547 6.83332,-6.75552 18.33386,-10.59903 28.25965,-9.44446 5.11152,0.59457 9.48497,2.31745 11.72282,4.61808 l 1.09938,1.13022 -1.04775,9.70114 c -0.57626,5.33563 -1.11142,9.76482 -1.18924,9.84265 -0.0778,0.0778 -1.84464,-0.20234 -3.92627,-0.62257 -2.63542,-0.53204 -4.87925,-0.80004 -7.38885,-0.88251 -3.27701,-0.10769 -3.71471,-0.0664 -4.82319,0.45461 -1.5927,0.74865 -1.99466,1.57968 -1.38525,2.86391 0.54802,1.15485 1.53474,1.88574 6.48335,4.80239 4.20057,2.47577 9.05535,5.80616 9.05535,6.212 0,0.15938 -8.09193,0.25427 -21.68485,0.25427 H 133.0764 Z"
   id="path31" /><path
   style="fill:#ffffff;stroke-width:0.266334"
   d="m 256.19388,148.01498 c 0.076,-0.47607 0.26831,-2.42364 0.42743,-4.32792 0.43362,-5.1893 1.77714,-18.66452 2.52586,-25.33395 0.36377,-3.24037 0.6614,-6.02689 0.6614,-6.19226 0,-0.21899 3.33263,-0.30068 12.2674,-0.30068 h 12.2674 l -0.19031,3.25357 -0.19031,3.25356 0.77352,-0.51051 c 3.52943,-2.3294 7.15955,-4.19797 10.78954,-5.55379 2.97005,-1.10933 8.25571,-2.63439 8.45159,-2.43852 0.11802,0.11802 -1.07817,20.77794 -1.47574,25.48814 l -0.15077,1.78625 -1.49588,0.29662 c -4.15469,0.82384 -8.86723,2.643 -12.54873,4.84412 -2.52088,1.50721 -6.04096,4.17516 -7.443,5.64122 l -0.91783,0.95974 H 268.0006 256.05576 Z"
   id="path32" /><path
   style="fill:#ffffff;stroke-width:0.266334"
   d="m 251.65174,191.16105 c 0.16883,-1.19439 3.36283,-32.25103 3.36283,-32.69825 0,-0.16607 4.44254,-0.26055 12.25135,-0.26055 h 12.25135 v 0.67044 c 0,0.7359 -2.83327,30.4643 -3.07724,32.28836 l -0.1514,1.13192 h -12.39844 -12.39844 z"
   id="path33" /><path
   style="fill:#ffffff;stroke-width:0.266334"
   d="m 371.13608,148.23273 c 0,-0.35631 0.35718,-2.03311 0.79373,-3.72623 3.68973,-14.31019 12.45916,-25.94898 23.84214,-31.64328 4.76213,-2.38224 8.91862,-3.42799 13.59524,-3.42048 2.53134,0.004 3.26928,0.10953 4.94396,0.70663 2.46875,0.88023 4.32633,1.92335 5.91441,3.32123 2.26482,1.99357 2.29479,2.07792 2.03235,5.7193 -0.12647,1.75475 -0.61417,6.75427 -1.08378,11.11004 l -0.85382,7.91958 -1.08816,-0.19591 c -1.82461,-0.32848 -5.25976,-0.1703 -6.94751,0.31991 -0.8789,0.25527 -2.43695,0.8969 -3.46233,1.42583 -2.52988,1.30501 -6.07988,4.8417 -7.33999,7.31248 l -0.91636,1.79677 -14.71494,9.8e-4 -14.71494,9.9e-4 z"
   id="path34" /><path
   style="fill:#ffffff;stroke-width:0.266334"
   d="m 397.30329,195.48943 c -12.46819,-1.75659 -22.76907,-12.37425 -25.86407,-26.65945 -0.59426,-2.74284 -1.36848,-8.23582 -1.36848,-9.70921 v -0.91852 h 15.11815 15.11815 l 0.60886,1.28243 c 1.63976,3.4538 5.21199,6.34058 9.13979,7.386 1.64148,0.43689 5.27154,0.50831 6.59174,0.12968 l 0.89693,-0.25724 -0.16058,1.25599 c -0.0883,0.69079 -0.46218,4.43202 -0.8308,8.31383 -0.36862,3.88182 -0.86453,8.43612 -1.10201,10.12068 -0.48267,3.42365 -0.46496,3.39603 -3.56583,5.5616 -4.33127,3.02486 -9.36004,4.22989 -14.58185,3.49421 z"
   id="path35" /><path
   style="fill:#ffffff;stroke-width:0.266334"
   d="m 432.12719,148.81398 c 3.7e-4,-0.0366 0.23816,-2.28381 0.52841,-4.99376 0.29026,-2.70994 0.52965,-5.19683 0.53199,-5.52642 l 0.004,-0.59925 h -5.07829 c -4.70632,0 -5.06917,-0.0341 -4.95383,-0.46609 0.0684,-0.25634 0.64544,-5.58719 1.28221,-11.84633 l 1.15776,-11.38024 5.06051,-0.0721 5.0605,-0.0721 1.3859,-14.248858 c 0.76224,-7.83687 1.39175,-14.338743 1.39891,-14.448606 0.007,-0.109862 5.82679,-0.19975 12.93252,-0.19975 h 12.91952 l -0.16143,1.398252 c -0.0888,0.769039 -0.72291,7.270912 -1.40919,14.448602 l -1.24776,13.05036 5.13553,0.0722 c 2.82455,0.0397 5.13434,0.15957 5.13287,0.26634 -10e-4,0.10676 -0.47967,5.28775 -1.06267,11.5133 -0.583,6.22555 -1.0612,11.469 -1.06267,11.6521 -0.002,0.25515 -1.24698,0.33292 -5.32934,0.33292 h -5.32667 l -0.004,0.59925 c -0.002,0.32959 -0.24173,2.81648 -0.53198,5.52642 -0.29026,2.70995 -0.52804,4.95714 -0.52842,4.99376 -3.7e-4,0.0366 -5.81341,0.0666 -12.91786,0.0666 -7.10446,0 -12.91689,-0.03 -12.91651,-0.0666 z"
   id="path36" /><path
   style="fill:#ffffff;stroke-width:0.266334"
   d="m 427.97682,191.02788 c 0.19374,-1.51641 3.08435,-31.93844 3.08435,-32.46105 0,-0.30355 2.16641,-0.36458 12.94218,-0.36458 h 12.94218 l -0.16,1.26508 c -0.088,0.6958 -0.81681,7.85685 -1.61959,15.91344 -0.80278,8.0566 -1.52839,15.15772 -1.61248,15.78028 l -0.15289,1.13192 h -12.79269 -12.7927 z"
   id="path37" /><path
   style="fill:#ffffff;stroke-width:0.266334"
   d="m 477.40325,105.93425 c 0,-0.6761 1.75972,-18.092896 2.00473,-19.841865 l 0.15857,-1.131919 h 12.92974 12.92975 l -0.13695,0.599251 c -0.0753,0.329588 -0.59117,5.183521 -1.14634,10.786517 l -1.00941,10.187266 h -12.86505 -12.86504 z"
   id="path38" /><path
   style="fill:#ffffff;stroke-width:0.266334"
   d="m 473.2212,147.88181 c 0.0811,-0.54931 0.90323,-8.3995 1.82706,-17.44486 l 1.67968,-16.44611 h 12.85534 c 12.06573,0 12.85532,0.0286 12.85506,0.46609 -1.6e-4,0.25635 -0.77906,8.07657 -1.73089,17.37828 -0.95183,9.3017 -1.73073,16.94215 -1.73089,16.97877 -1.5e-4,0.0366 -5.82833,0.0666 -12.95151,0.0666 h -12.95122 z"
   id="path39" /><path
   style="fill:#ffffff;stroke-width:0.266334"
   d="m 468.74027,191.16359 c 0.2225,-1.58323 3.3363,-31.90233 3.3363,-32.48561 0,-0.45022 0.69283,-0.47573 12.91719,-0.47573 h 12.91718 l -0.0164,0.86558 c -0.009,0.47607 -0.76136,8.11652 -1.67186,16.97878 l -1.65545,16.11319 -12.99319,0.0691 -12.9932,0.0691 z"
   id="path40" /><path
   style="fill:#ffffff;stroke-width:0.266334"
   d="m 511.49279,148.54765 c -6.4e-4,-0.18311 -0.65977,-7.82356 -1.46472,-16.97878 -0.80495,-9.15522 -1.4636,-16.85559 -1.46366,-17.11194 -1.1e-4,-0.43735 0.77958,-0.46609 12.64566,-0.46609 h 12.64578 l 0.12673,0.59926 c 0.0697,0.32958 0.86137,7.85018 1.75928,16.71244 0.89791,8.86225 1.71632,16.33521 1.81869,16.60658 0.157,0.41619 3.44032,-10.21292 10.08652,-32.65319 l 0.37469,-1.26509 h 12.76398 c 7.0202,0 12.76773,0.0899 12.7723,0.19976 0.005,0.10986 -2.2939,7.96005 -5.1077,17.44486 l -5.116,17.24511 h -25.92019 c -20.55797,0 -25.92043,-0.0689 -25.92136,-0.33292 z"
   id="path41" /><path
   style="fill:#ffffff;stroke-width:0.266334"
   d="m 515.90037,191.16105 c -0.36858,-2.71067 -3.3516,-32.77071 -3.26101,-32.86131 0.0552,-0.0552 10.82735,-0.0698 23.93811,-0.0323 l 23.83775,0.068 -5.19832,16.97878 -5.19831,16.97878 h -16.98216 -16.98215 z"
   id="path42" /><path
   style="fill:#ffffff;stroke-width:0.266334"
   d="m 568.38067,147.88181 c 0.38825,-2.13344 1.9753,-7.53379 2.91916,-9.93315 5.46278,-13.88693 15.67022,-24.06417 27.60412,-27.52248 15.32668,-4.4415 30.13335,4.58464 35.77555,21.80877 1.38128,4.21666 2.52293,11.23444 2.52377,15.5137 l 2.3e-4,1.13192 h -34.50229 -34.50229 z m 41.51868,-11.31918 c -0.33906,-2.5205 -1.40724,-5.43267 -2.36535,-6.44855 -0.74208,-0.78684 -1.07227,-0.94221 -2.00231,-0.94221 -1.88851,0 -3.39188,1.15922 -4.90827,3.78467 -0.51784,0.89657 -1.77198,4.36407 -1.77198,4.89923 0,0.0578 2.5281,0.10511 5.618,0.10511 h 5.618 z"
   id="path43" /><path
   style="fill:#ffffff;stroke-width:0.266334"
   d="m 594.72326,196.10845 c -14.64295,-1.82734 -25.59924,-15.2803 -27.00642,-33.1605 -0.13048,-1.65799 -0.17621,-3.40405 -0.10162,-3.88012 l 0.13562,-0.86558 h 14.3518 14.35179 l 0.002,1.26508 c 0.003,2.23552 0.77776,6.50092 1.4466,7.96185 1.07807,2.35482 1.9288,3.29075 2.99118,3.29075 1.2985,0 2.20918,-0.5603 3.31617,-2.04032 1.23277,-1.64818 1.4601,-2.08971 2.65193,-5.15069 l 0.98515,-2.53017 13.76477,-0.069 13.76478,-0.069 -0.17014,0.60166 c -4.64589,16.42865 -15.2053,28.92209 -28.09467,33.24043 -3.77133,1.26351 -8.88124,1.84328 -12.38851,1.40559 z"
   id="path44" /><path
   style="fill:#ffffff;stroke-width:0.266334"
   d="m 449.71288,62.821646 c -6.02838,-0.69809 -9.18936,-3.596107 -10.78392,-9.88682 -1.6408,-6.473087 -1.63304,-18.09605 0.0159,-23.844467 1.35362,-4.718884 4.27695,-8.245936 7.98406,-9.632945 2.61518,-0.978462 5.74282,-1.102943 25.71086,-1.023296 l 19.07343,0.07608 -2.85739,3.462338 -2.85739,3.462339 -14.26589,0.133167 c -13.83696,0.129163 -14.28849,0.14954 -15.01754,0.677734 -1.11631,0.808771 -2.14603,3.123963 -2.65996,5.98061 -0.64218,3.569466 -0.65561,13.425604 -0.0221,16.200616 0.8002,3.505026 2.21219,5.772437 4.3112,6.923058 0.73794,0.404513 2.62621,0.453816 19.92464,0.520245 l 19.10945,0.07338 V 37.146243 18.348802 l 22.03911,0.09089 c 21.59847,0.08907 22.07996,0.102337 24.08166,0.663539 2.58915,0.725902 3.96913,1.431999 5.42948,2.778095 2.38933,2.202413 3.58434,5.562257 3.57621,10.054745 -0.0112,6.187429 -1.88996,9.85092 -6.16771,12.026749 -1.68098,0.855009 -2.03868,1.481778 -1.48224,2.597192 1.22467,2.454923 7.19124,11.816333 8.87603,13.926285 l 1.99753,2.501636 -7.40225,0.07936 c -4.77916,0.05124 -7.96853,-0.0286 -9.00026,-0.225292 -1.91742,-0.365548 -4.03663,-1.360981 -5.42203,-2.546835 -0.55928,-0.478724 -2.97686,-3.838631 -5.38055,-7.477794 -2.40071,-3.634657 -5.34607,-7.747044 -6.54524,-9.138638 l -2.18032,-2.530171 6.70123,-0.137972 c 5.51772,-0.113604 6.84235,-0.214969 7.50024,-0.573945 2.07916,-1.13449 3.09681,-3.279132 3.27214,-6.895868 0.21109,-4.35426 -0.91561,-6.679212 -3.59778,-7.424057 -0.6219,-0.172704 -4.94665,-0.279945 -11.32646,-0.280863 l -10.32044,-0.0015 V 44.47772 63.121083 l -30.16229,-0.03455 c -16.58927,-0.019 -31.05742,-0.138208 -32.15146,-0.264898 z"
   id="path45" /><path
   style="fill:#ffffff;stroke-width:0.266334"
   d="m 455.06531,42.359501 c 0.20097,-0.286128 1.50398,-1.897733 2.89557,-3.581345 l 2.53017,-3.061113 12.36436,-0.01416 12.36437,-0.01416 -0.52938,0.599251 c -0.29116,0.329588 -1.77048,1.947566 -3.28738,3.595506 l -2.75799,2.996255 h -11.97256 c -11.82433,0 -11.96804,-0.0064 -11.60716,-0.520233 z"
   id="path46" /><path
   style="fill:#ffffff;stroke-width:0.266334"
   d="m 393.74688,62.835389 c -5.23398,-0.555314 -8.24955,-2.783374 -10.06691,-7.437969 -1.09588,-2.806737 -1.60062,-5.790759 -1.89858,-11.224397 -0.72182,-13.163233 1.88944,-21.127894 7.92335,-24.167146 2.93131,-1.476492 2.68896,-1.460112 23.11257,-1.562122 10.40033,-0.05195 19.90355,-0.05825 21.11827,-0.014 l 2.20857,0.08045 -2.54643,3.462338 -2.54642,3.462339 -14.84317,0.133167 c -16.629,0.149189 -15.91182,0.06106 -17.05534,2.095685 -1.07952,1.920747 -1.41847,4.256707 -1.57168,10.831797 -0.19735,8.469095 0.4315,12.655984 2.2852,15.214951 1.5691,2.166079 0.72377,2.069557 19.43946,2.219614 l 16.60915,0.133167 -2.70196,3.528922 -2.70196,3.528923 -17.36952,-0.03543 c -9.55324,-0.01948 -18.28081,-0.13211 -19.3946,-0.250282 z"
   id="path47" /><path
   style="fill:#ffffff;stroke-width:0.266334"
   d="m 399.94987,41.481481 c 0.64888,-0.769038 2.00091,-2.387016 3.00451,-3.595505 l 1.82472,-2.197254 h 12.20887 c 6.71488,0 12.20887,0.06866 12.20887,0.15257 0,0.08391 -1.40824,1.696816 -3.12942,3.584229 l -3.12943,3.431659 -12.08395,0.01128 -12.08396,0.01128 z"
   id="path48" /><path
   style="fill:#ffffff;stroke-width:0.266334"
   d="m 319.19278,43.345818 c -0.007,-17.866264 -0.12585,-22.089395 -0.68144,-24.303043 l -0.17605,-0.701461 9.82112,0.08444 9.82112,0.08444 1.51184,0.70872 c 2.57492,1.20707 3.93741,2.960043 12.90456,16.602973 4.62144,7.031211 9.24872,14.065256 10.28284,15.631213 2.09907,3.178576 2.99344,3.861203 3.93843,3.005997 0.51362,-0.464813 0.52587,-0.890851 0.52587,-18.278988 v -17.80308 h 3.72868 3.72867 v 22.372035 22.372035 h -8.08683 c -4.44775,0 -8.7324,-0.121526 -9.52143,-0.27006 -4.29345,-0.808225 -6.71944,-3.166264 -12.87458,-12.51396 -13.84614,-21.027865 -14.55514,-22.058095 -15.48359,-22.498671 -1.05772,-0.501921 -1.87791,-0.217387 -2.11458,0.733574 -0.23924,0.961248 -0.0134,33.573715 0.23601,34.083033 0.21206,0.433034 -0.0476,0.466084 -3.66209,0.466084 H 319.201 Z"
   id="path49" /><path
   style="fill:#ffffff;stroke-width:0.266334"
   d="m 271.38675,64.722292 c -13.31776,-0.933769 -18.18811,-5.475417 -19.70871,-18.378587 -0.71777,-6.090602 -0.39443,-12.70034 0.82088,-16.780659 1.18553,-3.980333 4.38246,-8.032183 7.71631,-9.779807 2.17669,-1.14103 5.61777,-2.101146 8.89686,-2.482359 3.98328,-0.463082 23.50588,-0.195477 26.91787,0.368975 4.97205,0.822535 8.19965,2.248286 10.65255,4.70564 3.5824,3.588898 5.058,8.793732 5.058,17.840901 0,11.895395 -2.65711,18.467164 -8.76426,21.676377 -2.12928,1.118908 -5.64566,2.090738 -9.21012,2.545426 -3.04431,0.388336 -18.15653,0.580176 -22.37938,0.284093 z m 15.2647,-6.937267 c 5.33198,-0.865263 7.88873,-3.406678 9.02532,-8.9712 0.54221,-2.654492 0.63935,-12.374577 0.15175,-15.183148 -0.91072,-5.245745 -3.16089,-8.286809 -7.05634,-9.536538 -1.8383,-0.589758 -10.03584,-0.852038 -12.63857,-0.40437 -3.54372,0.609517 -5.8032,2.09343 -7.20516,4.731979 -1.14708,2.158855 -1.64266,4.327522 -1.94014,8.490097 -0.276,3.862011 0.006,10.314408 0.56305,12.892566 0.97157,4.494997 3.33577,6.890097 7.74605,7.847279 2.02487,0.439467 8.96533,0.52097 11.35404,0.133335 z"
   id="path50" /><path
   style="fill:#ffffff;stroke-width:0.266334"
   d="M 228.3088,41.747815 C 228.2421,27.690452 228.11001,20.032666 227.92285,19.37578 l -0.28457,-0.998751 h 7.69564 7.69563 v 22.372035 22.372035 h -7.30969 -7.30968 z"
   id="path51" /><path
   style="fill:#ffffff;stroke-width:0.266334"
   d="m 164.93739,41.215148 c -0.0422,-12.048273 -0.18208,-22.122397 -0.31076,-22.386942 -0.22486,-0.462271 0.66139,-0.476912 22.77153,-0.376186 17.39038,0.07922 23.33053,0.187127 24.33717,0.442084 5.01303,1.269677 7.85719,4.410153 9.07034,10.0153 0.68973,3.186788 0.6327,9.691581 -0.10921,12.455943 -1.12191,4.180281 -3.07896,6.7326 -6.27278,8.180744 -2.98985,1.355666 -5.15744,1.591387 -14.50304,1.577178 l -8.42667,-0.01281 -2.96069,-3.382945 -2.96068,-3.382945 8.68686,-0.133167 c 7.42851,-0.113876 8.8026,-0.197238 9.48586,-0.575473 1.21349,-0.671758 2.19606,-1.83173 2.67415,-3.156974 0.53618,-1.486254 0.84008,-5.557981 0.62773,-8.410664 -0.25886,-3.477699 -1.78866,-5.641681 -4.42013,-6.252528 -0.55683,-0.129259 -5.95624,-0.237875 -11.99869,-0.241369 l -10.98627,-0.0064 v 18.776529 18.77653 h -7.31396 -7.31397 z"
   id="path52" /><path
   style="fill:#ffffff;stroke-width:0.266334"
   d="m 77.695359,68.780691 c -0.479437,-1.721182 -0.868637,-3.262815 -0.864888,-3.425849 0.0042,-0.183266 0.984504,-0.368195 2.567879,-0.484421 2.858457,-0.209825 3.830947,-0.480769 3.830947,-1.067343 0,-0.218095 -0.845976,-1.329676 -1.879946,-2.470179 -4.805153,-5.300236 -7.777914,-11.35951 -8.917879,-18.176996 -0.697819,-4.173258 -0.438052,-9.740621 0.652867,-13.992357 1.00015,-3.897971 3.239534,-8.616601 5.629803,-11.862619 C 83.442705,10.879475 90.944313,5.9103946 98.343737,4.2982443 L 99.475655,4.0516274 V 22.715758 c 0,18.353055 0.0092,18.683184 0.553415,19.807339 0.9337,1.928754 3.12544,3.373479 5.64085,3.718253 2.55634,0.350386 5.63868,-1.30516 6.93186,-3.723151 l 0.59006,-1.103301 0.0736,-18.576779 c 0.0712,-17.9906274 0.0894,-18.576779 0.57524,-18.576779 0.27592,0 1.57818,0.3517864 2.89391,0.7817475 12.09751,3.9532822 20.73206,13.6899205 23.39787,26.3842945 0.64022,3.048699 0.64415,9.357695 0.008,12.566218 -1.30585,6.584436 -4.36557,12.600489 -8.73433,17.173528 -1.60877,1.683991 -1.92623,2.54321 -1.10212,2.982903 0.25634,0.136773 1.64144,0.396345 3.07798,0.576831 1.86316,0.234083 2.57574,0.422389 2.48575,0.65688 -0.0694,0.180798 -0.51645,1.723196 -0.99349,3.427548 l -0.86735,3.098822 h -9.675 -9.675 v -4.751929 -4.751932 l 1.79775,-0.706528 c 5.45932,-2.145544 11.05797,-7.5772 13.51694,-13.113757 1.47613,-3.323643 2.05096,-5.871287 2.19429,-9.725105 0.10259,-2.758746 0.029,-4.140752 -0.30969,-5.812036 -1.09539,-5.405957 -3.33704,-9.61329 -7.19776,-13.50941 -3.74369,-3.778008 -5.81215,-4.8191 -7.07186,-3.55939 -0.51936,0.519358 -0.53267,0.887779 -0.53267,14.745171 0,8.140497 -0.11119,14.798838 -0.26027,15.584908 -0.63258,3.33557 -3.22766,6.539764 -6.47746,7.997854 -1.226,0.550064 -1.75538,0.943428 -1.87599,1.393969 -0.0924,0.345214 -0.16966,4.133279 -0.17166,8.417923 l -0.004,7.790262 h -1.86434 -1.86433 v -7.874354 c 0,-5.04992 -0.10152,-8.064045 -0.28303,-8.4032 -0.15567,-0.290866 -1.04575,-0.893177 -1.97797,-1.338471 -2.837976,-1.355625 -4.673823,-3.255299 -5.883137,-6.087678 -0.478367,-1.120403 -0.520391,-2.16483 -0.64488,-16.027462 -0.131304,-14.621574 -0.141111,-14.83947 -0.701219,-15.580524 -0.46381,-0.613647 -0.763474,-0.747775 -1.63298,-0.730913 -2.028502,0.03934 -6.232225,3.699806 -8.792334,7.656082 -2.860977,4.421224 -4.104634,8.635188 -4.140484,14.029467 -0.0243,3.656078 0.218976,5.346003 1.203432,8.359739 2.233879,6.838631 7.582859,12.721134 14.219383,15.637669 l 1.974872,0.867894 v 4.745876 4.745875 h -9.655295 -9.655295 z"
   id="path53" /><path
   style="fill:#ffffff;stroke-width:0.266334"
   d="m 558.6669,30.577145 c -2.1465,-0.592049 -3.22787,-2.022114 -3.22787,-4.268737 0,-1.611078 0.60386,-2.780955 1.95045,-3.778717 1.06013,-0.785501 3.82422,-0.790058 4.87166,-0.008 1.26344,0.943294 1.78077,1.870756 1.90953,3.423368 0.10186,1.228306 0.0104,1.653906 -0.56734,2.639726 -0.98845,1.686649 -3.04116,2.515147 -4.93643,1.992393 z m 3.19555,-1.31139 c 1.59023,-1.112747 1.76051,-4.159391 0.31336,-5.606543 -1.49202,-1.492022 -4.17625,-1.205968 -5.21706,0.555972 -0.2821,0.477554 -0.45438,1.33269 -0.45438,2.255332 0,1.246826 0.11855,1.618807 0.73625,2.310131 1.15979,1.298031 3.16005,1.507978 4.62183,0.485108 z"
   id="path54" /><path
   style="fill:#ffffff;stroke-width:0.266334"
   d=""
   id="path55" /><path
   style="fill:#ffffff;stroke-width:0.266334"
   d="m 558.10237,26.367041 v -2.397004 h 1.4587 c 1.25132,0 1.51905,0.09212 1.88326,0.647975 0.33027,0.50405 0.35913,0.770255 0.12994,1.198502 -0.16205,0.30279 -0.47019,0.550527 -0.68476,0.550527 -0.50441,0 -0.49395,0.08318 0.14154,1.125481 0.62393,1.02335 0.65969,1.271523 0.1832,1.271523 -0.19275,0 -0.61989,-0.479401 -0.94921,-1.065335 -0.32931,-0.585934 -0.77085,-1.065335 -0.98121,-1.065335 -0.26864,0 -0.38246,0.317023 -0.38246,1.065335 0,0.769409 -0.11097,1.065335 -0.3995,1.065335 -0.32552,0 -0.3995,-0.44389 -0.3995,-2.397004 z m 2.61528,-1.131918 c -0.0652,-0.459293 -0.28727,-0.618743 -0.95069,-0.682709 -0.77315,-0.07455 -0.86559,-0.01055 -0.86559,0.599251 0,0.605216 0.10791,0.682709 0.9507,0.682709 0.83356,0 0.9402,-0.07383 0.86558,-0.599251 z"
   id="path56" /><path
   style="fill:#ffffff;stroke-width:0.266334"
   d="M 2.4484972,191.56055 C 2.6076469,190.29912 13.982522,81.733747 13.982522,81.476204 c 0,-0.145587 6.408708,-0.24441 15.850006,-0.24441 h 15.850006 l -0.143775,0.998751 c -0.263175,1.828196 -8.651535,82.062415 -8.651535,82.751485 v 0.67756 h 11.186018 11.186017 v 0.69813 c 0,0.68048 -2.24383,22.5507 -2.54476,24.80333 l -0.151216,1.13192 H 29.459687 2.3560911 Z"
   id="path57" /></svg>
