<?xml version="1.0" encoding="UTF-8"?>
<!DOCTYPE svg PUBLIC "-//W3C//DTD SVG 1.1//EN" "http://www.w3.org/Graphics/SVG/1.1/DTD/svg11.dtd">
<svg xmlns="http://www.w3.org/2000/svg" version="1.1" width="2560px" height="352px" style="shape-rendering:geometricPrecision; text-rendering:geometricPrecision; image-rendering:optimizeQuality; fill-rule:evenodd; clip-rule:evenodd" xmlns:xlink="http://www.w3.org/1999/xlink">
<g><path style="opacity:0.992" fill="#a51d22" d="M 1629.5,19.5 C 1730.17,19.5 1830.83,19.5 1931.5,19.5C 1931.5,50.1667 1931.5,80.8333 1931.5,111.5C 1842.17,111.5 1752.83,111.5 1663.5,111.5C 1663.5,157.833 1663.5,204.167 1663.5,250.5C 1752.83,250.5 1842.17,250.5 1931.5,250.5C 1931.5,281.167 1931.5,311.833 1931.5,342.5C 1832.17,342.667 1732.83,342.5 1633.5,342C 1589.91,335.078 1564.08,309.911 1556,266.5C 1555.02,207.135 1555.36,147.802 1557,88.5C 1567.09,50.572 1591.26,27.572 1629.5,19.5 Z"/></g>
<g><path style="opacity:0.994" fill="#a51d23" d="M 2064.5,19.5 C 2163.5,19.3333 2262.5,19.5 2361.5,20C 2403.35,28.8504 2427.85,54.3504 2435,96.5C 2435.67,152.5 2435.67,208.5 2435,264.5C 2428.89,303.278 2407.06,328.444 2369.5,340C 2365.53,340.853 2361.53,341.519 2357.5,342C 2261.17,342.667 2164.83,342.667 2068.5,342C 2025.8,335.305 1999.97,310.805 1991,268.5C 1990.33,209.833 1990.33,151.167 1991,92.5C 1996.99,61.6789 2014.16,39.5122 2042.5,26C 2049.81,23.2808 2057.14,21.1141 2064.5,19.5 Z M 2096.5,111.5 C 2173.17,111.5 2249.83,111.5 2326.5,111.5C 2326.5,157.833 2326.5,204.167 2326.5,250.5C 2249.83,250.5 2173.17,250.5 2096.5,250.5C 2096.5,204.167 2096.5,157.833 2096.5,111.5 Z"/></g>
<g><path style="opacity:0.994" fill="#a51e22" d="M 25.5,25.5 C 135.834,25.3333 246.167,25.5 356.5,26C 392.509,31.0063 417.009,50.5063 430,84.5C 431.973,90.6959 433.306,97.0293 434,103.5C 434.5,183.166 434.667,262.833 434.5,342.5C 399.5,342.5 364.5,342.5 329.5,342.5C 329.5,267.5 329.5,192.5 329.5,117.5C 263.5,117.5 197.5,117.5 131.5,117.5C 131.5,192.5 131.5,267.5 131.5,342.5C 96.1667,342.5 60.8333,342.5 25.5,342.5C 25.5,236.833 25.5,131.167 25.5,25.5 Z"/></g>
<g><path style="opacity:0.992" fill="#a51d22" d="M 504.5,25.5 C 609.167,25.3333 713.834,25.5 818.5,26C 860.678,33.1789 886.178,57.6789 895,99.5C 895.5,180.499 895.667,261.499 895.5,342.5C 782.5,342.667 669.5,342.5 556.5,342C 513.644,333.477 488.81,307.644 482,264.5C 481.333,246.167 481.333,227.833 482,209.5C 488.81,166.356 513.644,140.523 556.5,132C 634.833,131.5 713.166,131.333 791.5,131.5C 791.5,124.167 791.5,116.833 791.5,109.5C 695.833,109.5 600.167,109.5 504.5,109.5C 504.5,81.5 504.5,53.5 504.5,25.5 Z M 590.5,216.5 C 657.5,216.5 724.5,216.5 791.5,216.5C 791.5,231.167 791.5,245.833 791.5,260.5C 724.5,260.5 657.5,260.5 590.5,260.5C 590.5,245.833 590.5,231.167 590.5,216.5 Z"/></g>
<g><path style="opacity:0.995" fill="#a41d23" d="M 959.5,25.5 C 1112.17,25.3333 1264.83,25.5 1417.5,26C 1459.68,33.1789 1485.18,57.6789 1494,99.5C 1494.5,180.499 1494.67,261.499 1494.5,342.5C 1459.83,342.5 1425.17,342.5 1390.5,342.5C 1390.5,267.5 1390.5,192.5 1390.5,117.5C 1353.83,117.5 1317.17,117.5 1280.5,117.5C 1280.5,192.5 1280.5,267.5 1280.5,342.5C 1245.17,342.5 1209.83,342.5 1174.5,342.5C 1174.5,267.5 1174.5,192.5 1174.5,117.5C 1138.5,117.5 1102.5,117.5 1066.5,117.5C 1066.5,192.5 1066.5,267.5 1066.5,342.5C 1030.83,342.5 995.167,342.5 959.5,342.5C 959.5,236.833 959.5,131.167 959.5,25.5 Z"/></g>
<g><path style="opacity:0.949" fill="#e9f2ed" d="M 2438.5,288.5 C 2444.18,288.334 2449.84,288.501 2455.5,289C 2465.94,294.007 2468.11,301.507 2462,311.5C 2460.17,312.667 2458.33,313.833 2456.5,315C 2466.49,319.066 2469.33,326.232 2465,336.5C 2462.2,340.636 2458.37,343.136 2453.5,344C 2445.06,344.902 2436.73,344.402 2428.5,342.5C 2428.5,338.833 2428.5,335.167 2428.5,331.5C 2435.23,334.238 2442.23,335.071 2449.5,334C 2452.58,332.688 2454.25,330.355 2454.5,327C 2453.74,325.488 2452.74,324.154 2451.5,323C 2446.96,321.621 2442.3,321.121 2437.5,321.5C 2437.5,318.167 2437.5,314.833 2437.5,311.5C 2441.16,311.048 2444.83,310.548 2448.5,310C 2454.02,307.127 2454.69,303.46 2450.5,299C 2444.68,297.591 2439.52,298.758 2435,302.5C 2432.83,299.667 2430.67,296.833 2428.5,294C 2431.55,291.497 2434.88,289.664 2438.5,288.5 Z"/></g>
<g><path style="opacity:0.96" fill="#e9f2ed" d="M 2475.5,289.5 C 2485.5,289.5 2495.5,289.5 2505.5,289.5C 2505.5,292.833 2505.5,296.167 2505.5,299.5C 2499.17,299.5 2492.83,299.5 2486.5,299.5C 2486.54,302.881 2486.21,306.214 2485.5,309.5C 2504.72,307.225 2512.22,315.559 2508,334.5C 2505.36,339.144 2501.53,342.311 2496.5,344C 2488.71,344.975 2481.04,344.475 2473.5,342.5C 2472.17,338.833 2472.17,335.167 2473.5,331.5C 2480.6,334.914 2487.77,335.248 2495,332.5C 2498.23,327.562 2497.39,323.395 2492.5,320C 2487.96,319.254 2483.46,319.421 2479,320.5C 2477.02,320.01 2475.35,319.01 2474,317.5C 2474.45,308.203 2474.95,298.87 2475.5,289.5 Z"/></g>
<g><path style="opacity:0.972" fill="#e9f1ed" d="M 2514.5,289.5 C 2527.5,289.5 2540.5,289.5 2553.5,289.5C 2553.66,292.187 2553.5,294.854 2553,297.5C 2546.5,312.5 2540,327.5 2533.5,342.5C 2529.17,343.833 2524.83,343.833 2520.5,342.5C 2526.83,328.5 2533.17,314.5 2539.5,300.5C 2531.19,299.502 2522.86,299.169 2514.5,299.5C 2514.5,296.167 2514.5,292.833 2514.5,289.5 Z"/></g>
</svg>
