<?xml version="1.0" encoding="UTF-8"?>
<!DOCTYPE svg PUBLIC "-//W3C//DTD SVG 1.1//EN" "http://www.w3.org/Graphics/SVG/1.1/DTD/svg11.dtd">
<svg xmlns="http://www.w3.org/2000/svg" version="1.1" width="350px" height="90px" style="shape-rendering:geometricPrecision; text-rendering:geometricPrecision; image-rendering:optimizeQuality; fill-rule:evenodd; clip-rule:evenodd" xmlns:xlink="http://www.w3.org/1999/xlink">
<g><path style="opacity:1" fill="#575454" d="M 75.5,16.5 C 74.8333,16.5 74.1667,16.5 73.5,16.5C 69.0685,16.2307 64.7352,16.564 60.5,17.5C 62.5706,16.1914 65.0706,15.5248 68,15.5C 70.6903,15.5029 73.1903,15.8362 75.5,16.5 Z"/></g>
<g><path style="opacity:1" fill="#444752" d="M 96.5,23.5 C 95.6522,24.625 94.6522,24.625 93.5,23.5C 93.4139,21.323 92.7472,19.323 91.5,17.5C 87.2172,16.5078 82.8839,16.1744 78.5,16.5C 78.5,17.5 78.5,18.5 78.5,19.5C 77.6091,18.7387 76.9424,17.7387 76.5,16.5C 81.8333,15.1667 87.1667,15.1667 92.5,16.5C 94.0981,18.6979 95.4314,21.0313 96.5,23.5 Z"/></g>
<g><path style="opacity:1" fill="#343439" d="M 105.5,16.5 C 110.68,15.1853 116.014,15.1853 121.5,16.5C 121.376,17.1067 121.043,17.44 120.5,17.5C 120.158,16.6618 119.492,16.3284 118.5,16.5C 114.167,16.5 109.833,16.5 105.5,16.5 Z"/></g>
<g><path style="opacity:1" fill="#47433c" d="M 154.5,16.5 C 143.752,16.1909 133.085,16.5242 122.5,17.5C 127.456,16.1718 132.789,15.5051 138.5,15.5C 144.011,15.5006 149.344,15.8339 154.5,16.5 Z"/></g>
<g><path style="opacity:1" fill="#2f2d2f" d="M 284.5,17.5 C 284.167,17.5 283.833,17.5 283.5,17.5C 272.5,17.5 261.5,17.5 250.5,17.5C 251.609,16.71 252.942,16.21 254.5,16C 264.5,15.3333 274.5,15.3333 284.5,16C 285.738,16.69 285.738,17.19 284.5,17.5 Z"/></g>
<g><path style="opacity:1" fill="#f4f4e5" d="M 36.5,16.5 C 40.5,16.5 44.5,16.5 48.5,16.5C 48.0719,19.7846 47.0719,22.7846 45.5,25.5C 42.6965,24.3622 39.6965,24.1955 36.5,25C 36.0698,25.9195 35.7365,26.7528 35.5,27.5C 34.8165,27.1373 34.1499,26.8039 33.5,26.5C 34.3007,24.9582 34.634,23.2915 34.5,21.5C 34.7959,19.597 35.4625,17.9303 36.5,16.5 Z"/></g>
<g><path style="opacity:1" fill="#403f42" d="M 202.5,16.5 C 213.326,15.341 224.326,15.1743 235.5,16C 237.066,16.6082 238.4,17.4415 239.5,18.5C 232.667,18.3234 225.667,18.3234 218.5,18.5C 214.445,18.1758 210.445,18.5091 206.5,19.5C 203.32,22.6615 203.32,25.4949 206.5,28C 204.67,28.1816 203.003,27.6816 201.5,26.5C 201.292,20.6854 203.958,17.5187 209.5,17C 207.19,16.5034 204.857,16.3367 202.5,16.5 Z"/></g>
<g><path style="opacity:1" fill="#1d273a" d="M 309.5,19.5 C 309.631,18.6236 309.298,17.9569 308.5,17.5C 304.571,18.4328 300.571,18.7662 296.5,18.5C 297.918,16.6921 299.918,16.0254 302.5,16.5C 304.338,15.8982 306.171,15.5649 308,15.5C 310.21,16.4903 310.71,17.8236 309.5,19.5 Z"/></g>
<g><path style="opacity:1" fill="#f7eac5" d="M 93.5,23.5 C 92.1266,23.3433 90.7932,23.51 89.5,24C 90.6341,25.016 90.3008,25.6827 88.5,26C 89.5,26.3333 90.5,26.6667 91.5,27C 91.1667,27.3333 90.8333,27.6667 90.5,28C 88.1527,28.3336 85.8194,28.167 83.5,27.5C 82.8046,24.0846 81.1379,21.4179 78.5,19.5C 78.5,18.5 78.5,17.5 78.5,16.5C 82.8839,16.1744 87.2172,16.5078 91.5,17.5C 92.7472,19.323 93.4139,21.323 93.5,23.5 Z"/></g>
<g><path style="opacity:1" fill="#af9d8a" d="M 154.5,16.5 C 154.586,17.4959 154.252,18.3292 153.5,19C 154.167,19.3333 154.833,19.6667 155.5,20C 149,20.691 142.666,21.5244 136.5,22.5C 134.516,22.484 133.516,23.484 133.5,25.5C 133.747,26.7133 134.414,27.38 135.5,27.5C 138.609,27.7359 141.609,27.4025 144.5,26.5C 145.434,25.4324 145.768,24.099 145.5,22.5C 147.857,22.3367 150.19,22.5034 152.5,23C 151.377,24.0437 150.044,24.7104 148.5,25C 149.5,25.3333 150.5,25.6667 151.5,26C 149.744,26.2022 148.078,26.7022 146.5,27.5C 147.025,28.1924 147.692,28.6924 148.5,29C 143.19,30.7983 143.524,31.7983 149.5,32C 143.012,32.7836 136.678,33.617 130.5,34.5C 129.406,36.6121 128.406,38.7787 127.5,41C 122.98,41.8136 118.646,41.647 114.5,40.5C 116.773,32.679 119.44,25.0123 122.5,17.5C 133.085,16.5242 143.752,16.1909 154.5,16.5 Z M 136.5,24.5 C 139.698,23.9644 142.365,24.631 144.5,26.5C 141.609,27.4025 138.609,27.7359 135.5,27.5C 135.557,26.391 135.89,25.391 136.5,24.5 Z"/></g>
<g><path style="opacity:1" fill="#444447" d="M 171.5,16.5 C 181.008,15.1775 190.675,15.1775 200.5,16.5C 200.376,17.1067 200.043,17.44 199.5,17.5C 198.035,18.4057 197.035,19.739 196.5,21.5C 191.544,22.4941 186.544,22.8275 181.5,22.5C 180.5,21.8333 179.5,21.1667 178.5,20.5C 180.877,20.2155 183.044,20.2155 185,20.5C 185.674,19.4216 186.674,18.7549 188,18.5C 191.151,17.9069 194.318,17.4069 197.5,17C 188.84,16.5002 180.173,16.3336 171.5,16.5 Z"/></g>
<g><path style="opacity:1" fill="#2a324a" d="M 239.5,18.5 C 239.5,18.8333 239.5,19.1667 239.5,19.5C 238.064,23.0719 236.564,26.7385 235,30.5C 232.398,31.4771 229.898,32.6437 227.5,34C 228.094,34.4643 228.761,34.631 229.5,34.5C 230.861,36.8505 232.194,39.1838 233.5,41.5C 228.833,41.5 224.167,41.5 219.5,41.5C 218.223,39.05 216.723,36.7167 215,34.5C 214.333,32.8333 214.333,31.1667 215,29.5C 218.411,28.7069 221.911,28.2069 225.5,28C 226.554,26.6124 226.72,25.1124 226,23.5C 225.722,24.4158 225.222,25.0825 224.5,25.5C 221.713,24.5233 218.713,24.19 215.5,24.5C 218.305,23.6805 221.305,23.1805 224.5,23C 221.518,22.502 218.518,22.3354 215.5,22.5C 217.698,21.8347 220.031,21.1681 222.5,20.5C 221.726,19.2888 220.893,19.2888 220,20.5C 219.283,19.9558 218.783,19.2891 218.5,18.5C 225.667,18.3234 232.667,18.3234 239.5,18.5 Z"/></g>
<g><path style="opacity:1" fill="#586d8c" d="M 36.5,16.5 C 41.1667,15.1667 45.8333,15.1667 50.5,16.5C 49.1009,19.6988 48.1009,23.0321 47.5,26.5C 46.8333,26.5 46.1667,26.5 45.5,26.5C 45.5,26.1667 45.5,25.8333 45.5,25.5C 47.0719,22.7846 48.0719,19.7846 48.5,16.5C 44.5,16.5 40.5,16.5 36.5,16.5 Z"/></g>
<g><path style="opacity:1" fill="#ececd8" d="M 73.5,16.5 C 73.6716,17.4916 73.3382,18.1583 72.5,18.5C 69.1419,17.5093 65.9753,17.5093 63,18.5C 63.4488,21.1759 64.4488,21.1759 66,18.5C 66.6667,19.8333 66.6667,21.1667 66,22.5C 65,22.1667 64,21.8333 63,21.5C 61.2215,23.0174 61.7215,23.8508 64.5,24C 63.0929,25.452 61.5929,25.2853 60,23.5C 59.5,24.5 59,25.5 58.5,26.5C 54.0162,27.8111 49.6829,27.8111 45.5,26.5C 46.1667,26.5 46.8333,26.5 47.5,26.5C 51.0419,26.8128 54.3752,26.4794 57.5,25.5C 57.5569,24.391 57.8902,23.391 58.5,22.5C 60.2132,21.3646 60.8799,19.698 60.5,17.5C 64.7352,16.564 69.0685,16.2307 73.5,16.5 Z"/></g>
<g><path style="opacity:1" fill="#746d61" d="M 78.5,19.5 C 81.1379,21.4179 82.8046,24.0846 83.5,27.5C 81.336,25.178 79.6693,22.5113 78.5,19.5 Z"/></g>
<g><path style="opacity:1" fill="#6a635d" d="M 171.5,16.5 C 180.173,16.3336 188.84,16.5002 197.5,17C 194.318,17.4069 191.151,17.9069 188,18.5C 186.674,18.7549 185.674,19.4216 185,20.5C 183.044,20.2155 180.877,20.2155 178.5,20.5C 176.102,20.2594 174.102,20.9261 172.5,22.5C 170.179,21.3751 167.846,21.2084 165.5,22C 167.927,20.4455 167.927,19.2789 165.5,18.5C 167.102,16.9261 169.102,16.2594 171.5,16.5 Z"/></g>
<g><path style="opacity:1" fill="#797577" d="M 60.5,17.5 C 60.8799,19.698 60.2132,21.3646 58.5,22.5C 58.7959,20.597 59.4625,18.9303 60.5,17.5 Z"/></g>
<g><path style="opacity:1" fill="#14294b" d="M 250.5,17.5 C 261.5,17.5 272.5,17.5 283.5,17.5C 283.158,18.3382 282.492,18.6716 281.5,18.5C 275.132,18.1703 268.798,18.5037 262.5,19.5C 263.183,22.4614 264.016,22.7947 265,20.5C 265.483,21.448 265.649,22.448 265.5,23.5C 264.325,23.281 263.325,23.6143 262.5,24.5C 262.935,26.4027 262.268,28.0693 260.5,29.5C 256.688,29.8382 254.022,32.1715 252.5,36.5C 252.97,37.463 253.637,37.463 254.5,36.5C 255.918,38.3079 257.918,38.9746 260.5,38.5C 258.434,39.4287 256.267,40.4287 254,41.5C 251.835,41.5938 249.835,41.2605 248,40.5C 247,41.5 246,42.5 245,43.5C 243.444,41.3652 241.611,41.0319 239.5,42.5C 241.447,33.2936 245.114,24.9603 250.5,17.5 Z"/></g>
<g><path style="opacity:1" fill="#012156" d="M 283.5,17.5 C 283.833,17.5 284.167,17.5 284.5,17.5C 283.602,22.534 281.935,27.2006 279.5,31.5C 275.627,29.5698 271.294,28.9031 266.5,29.5C 267.172,28.7326 268.005,28.0659 269,27.5C 272.117,28.2828 275.617,28.1162 279.5,27C 275.833,26.6667 272.167,26.3333 268.5,26C 269.634,24.984 269.301,24.3173 267.5,24C 269.577,23.1931 271.411,22.0264 273,20.5C 273.667,23.1667 274.333,23.1667 275,20.5C 275.667,23.1667 276.333,23.1667 277,20.5C 277.333,21.1667 277.667,21.8333 278,22.5C 279.098,21.0325 280.598,20.1992 282.5,20C 281.944,19.6174 281.611,19.1174 281.5,18.5C 282.492,18.6716 283.158,18.3382 283.5,17.5 Z"/></g>
<g><path style="opacity:1" fill="#888585" d="M 102.5,19.5 C 101.415,21.5869 99.7488,22.9202 97.5,23.5C 98.5846,21.4131 100.251,20.0798 102.5,19.5 Z"/></g>
<g><path style="opacity:1" fill="#2f4671" d="M 136.5,22.5 C 139.187,22.3359 141.854,22.5026 144.5,23C 141.635,23.1829 138.969,23.6829 136.5,24.5C 135.89,25.391 135.557,26.391 135.5,27.5C 134.414,27.38 133.747,26.7133 133.5,25.5C 133.516,23.484 134.516,22.484 136.5,22.5 Z"/></g>
<g><path style="opacity:1" fill="#0d4383" d="M 199.5,17.5 C 199.405,19.7857 198.738,21.7857 197.5,23.5C 190.087,22.8721 183.087,23.5388 176.5,25.5C 175.596,24.791 175.263,23.791 175.5,22.5C 177.5,22.5 179.5,22.5 181.5,22.5C 186.544,22.8275 191.544,22.4941 196.5,21.5C 197.035,19.739 198.035,18.4057 199.5,17.5 Z"/></g>
<g><path style="opacity:1" fill="#154583" d="M 215.5,22.5 C 218.518,22.3354 221.518,22.502 224.5,23C 221.305,23.1805 218.305,23.6805 215.5,24.5C 215.443,25.609 215.11,26.609 214.5,27.5C 214.167,28.5 213.5,29.1667 212.5,29.5C 212.552,26.6538 213.552,24.3204 215.5,22.5 Z"/></g>
<g><path style="opacity:1" fill="#6c665e" d="M 302.5,16.5 C 299.918,16.0254 297.918,16.6921 296.5,18.5C 292.663,24.1698 289.33,30.1698 286.5,36.5C 284.638,38.8911 283.304,41.5578 282.5,44.5C 279.54,47.0997 278.206,50.433 278.5,54.5C 278.5,55.1667 278.5,55.8333 278.5,56.5C 277.094,56.0269 276.427,55.0269 276.5,53.5C 276.629,51.7839 276.962,50.1172 277.5,48.5C 282.466,37.9033 287.966,27.5699 294,17.5C 296.698,15.327 299.531,14.9937 302.5,16.5 Z"/></g>
<g><path style="opacity:1" fill="#e8d2af" d="M 105.5,16.5 C 109.833,16.5 114.167,16.5 118.5,16.5C 112.211,21.7809 105.878,27.1142 99.5,32.5C 98.199,35.4271 97.199,38.4271 96.5,41.5C 92.5,41.5 88.5,41.5 84.5,41.5C 85.1495,39.5648 85.4828,37.5648 85.5,35.5C 85.5,35.1667 85.5,34.8333 85.5,34.5C 86.1239,34.0831 86.4573,33.4164 86.5,32.5C 86.2528,31.2867 85.5862,30.62 84.5,30.5C 83.8902,29.609 83.5569,28.609 83.5,27.5C 85.8194,28.167 88.1527,28.3336 90.5,28C 90.8333,27.6667 91.1667,27.3333 91.5,27C 90.5,26.6667 89.5,26.3333 88.5,26C 90.3008,25.6827 90.6341,25.016 89.5,24C 90.7932,23.51 92.1266,23.3433 93.5,23.5C 94.6522,24.625 95.6522,24.625 96.5,23.5C 96.8333,23.5 97.1667,23.5 97.5,23.5C 99.7488,22.9202 101.415,21.5869 102.5,19.5C 103.167,18.1667 104.167,17.1667 105.5,16.5 Z"/></g>
<g><path style="opacity:1" fill="#7d7972" d="M 165.5,18.5 C 167.927,19.2789 167.927,20.4455 165.5,22C 167.846,21.2084 170.179,21.3751 172.5,22.5C 170.81,23.1031 169.31,24.1031 168,25.5C 167.667,25.1667 167.333,24.8333 167,24.5C 166.135,26.8878 166.968,28.3878 169.5,29C 166.722,30.2242 164.056,31.7242 161.5,33.5C 161.229,36.0473 160.229,38.0473 158.5,39.5C 158.586,38.5041 158.252,37.6708 157.5,37C 158.801,33.5965 159.801,30.0965 160.5,26.5C 161.799,23.6047 163.465,20.938 165.5,18.5 Z"/></g>
<g><path style="opacity:1" fill="#000a22" d="M 197.5,23.5 C 190.833,24.1667 184.167,24.8333 177.5,25.5C 177.167,25.5 176.833,25.5 176.5,25.5C 183.087,23.5388 190.087,22.8721 197.5,23.5 Z"/></g>
<g><path style="opacity:1" fill="#00214b" d="M 281.5,18.5 C 281.611,19.1174 281.944,19.6174 282.5,20C 280.598,20.1992 279.098,21.0325 278,22.5C 277.667,21.8333 277.333,21.1667 277,20.5C 276.333,23.1667 275.667,23.1667 275,20.5C 274.333,23.1667 273.667,23.1667 273,20.5C 271.411,22.0264 269.577,23.1931 267.5,24C 269.301,24.3173 269.634,24.984 268.5,26C 272.167,26.3333 275.833,26.6667 279.5,27C 275.617,28.1162 272.117,28.2828 269,27.5C 268.005,28.0659 267.172,28.7326 266.5,29.5C 264.5,29.5 262.5,29.5 260.5,29.5C 262.268,28.0693 262.935,26.4027 262.5,24.5C 263.325,23.6143 264.325,23.281 265.5,23.5C 265.649,22.448 265.483,21.448 265,20.5C 264.016,22.7947 263.183,22.4614 262.5,19.5C 268.798,18.5037 275.132,18.1703 281.5,18.5 Z"/></g>
<g><path style="opacity:1" fill="#011e48" d="M 329.5,16.5 C 330.497,16.4701 331.164,16.9701 331.5,18C 329.1,25.051 326.433,31.8843 323.5,38.5C 321.797,36.8592 319.63,35.8592 317,35.5C 314.738,36.1689 312.571,36.5023 310.5,36.5C 312.213,30.0744 314.213,23.7411 316.5,17.5C 320.767,17.203 324.934,17.5363 329,18.5C 329.464,17.9056 329.631,17.2389 329.5,16.5 Z"/></g>
<g><path style="opacity:1" fill="#7d7975" d="M 250.5,17.5 C 245.114,24.9603 241.447,33.2936 239.5,42.5C 236.776,48.2961 234.276,54.2961 232,60.5C 231.727,64.0313 231.56,67.3647 231.5,70.5C 230.001,68.8357 229.001,66.8357 228.5,64.5C 233.163,49.5094 238.663,34.8427 245,20.5C 246.264,18.393 248.097,17.393 250.5,17.5 Z"/></g>
<g><path style="opacity:1" fill="#40424f" d="M 50.5,16.5 C 51.0431,16.56 51.3764,16.8933 51.5,17.5C 50.5933,20.0567 49.5933,22.5567 48.5,25C 51.4816,25.498 54.4816,25.6646 57.5,25.5C 54.3752,26.4794 51.0419,26.8128 47.5,26.5C 48.1009,23.0321 49.1009,19.6988 50.5,16.5 Z"/></g>
<g><path style="opacity:1" fill="#767575" d="M 202.5,16.5 C 204.857,16.3367 207.19,16.5034 209.5,17C 203.958,17.5187 201.292,20.6854 201.5,26.5C 199.129,31.2647 197.129,36.2647 195.5,41.5C 195.158,42.3382 194.492,42.6716 193.5,42.5C 192.957,42.44 192.624,42.1067 192.5,41.5C 194.438,37.6862 195.771,33.6862 196.5,29.5C 198.5,25.1667 200.5,20.8333 202.5,16.5 Z"/></g>
<g><path style="opacity:1" fill="#fcf8d2" d="M 72.5,18.5 C 70.3076,25.9099 67.8076,33.2433 65,40.5C 62.9255,41.1344 60.7588,41.4677 58.5,41.5C 56.0478,41.4609 54.0478,40.7943 52.5,39.5C 53.8641,37.78 54.8641,35.78 55.5,33.5C 55.3764,32.8933 55.0431,32.56 54.5,32.5C 50.8183,32.3347 47.1516,32.5014 43.5,33C 42.0708,35.6897 41.0708,38.5231 40.5,41.5C 36.5,41.5 32.5,41.5 28.5,41.5C 28.5,40.5 28.5,39.5 28.5,38.5C 28.595,36.2143 29.2616,34.2143 30.5,32.5C 32.5449,31.0772 33.5449,29.0772 33.5,26.5C 34.1499,26.8039 34.8165,27.1373 35.5,27.5C 35.7365,26.7528 36.0698,25.9195 36.5,25C 39.6965,24.1955 42.6965,24.3622 45.5,25.5C 45.5,25.8333 45.5,26.1667 45.5,26.5C 49.6829,27.8111 54.0162,27.8111 58.5,26.5C 59,25.5 59.5,24.5 60,23.5C 61.5929,25.2853 63.0929,25.452 64.5,24C 61.7215,23.8508 61.2215,23.0174 63,21.5C 64,21.8333 65,22.1667 66,22.5C 66.6667,21.1667 66.6667,19.8333 66,18.5C 64.4488,21.1759 63.4488,21.1759 63,18.5C 65.9753,17.5093 69.1419,17.5093 72.5,18.5 Z"/></g>
<g><path style="opacity:1" fill="#787068" d="M 219.5,41.5 C 219.5,42.1667 219.167,42.5 218.5,42.5C 216.167,39.8333 213.833,37.1667 211.5,34.5C 211.5,34.1667 211.5,33.8333 211.5,33.5C 212.434,32.4324 212.768,31.099 212.5,29.5C 213.5,29.1667 214.167,28.5 214.5,27.5C 217.041,26.3511 219.541,26.3511 222,27.5C 222.708,26.6195 223.542,25.9528 224.5,25.5C 225.222,25.0825 225.722,24.4158 226,23.5C 226.72,25.1124 226.554,26.6124 225.5,28C 221.911,28.2069 218.411,28.7069 215,29.5C 214.333,31.1667 214.333,32.8333 215,34.5C 216.723,36.7167 218.223,39.05 219.5,41.5 Z"/></g>
<g><path style="opacity:1" fill="#3d5175" d="M 118.5,16.5 C 119.492,16.3284 120.158,16.6618 120.5,17.5C 114.571,22.4816 108.571,27.4816 102.5,32.5C 100.735,35.9646 99.0687,39.4646 97.5,43C 92.5111,43.4993 87.5111,43.6659 82.5,43.5C 82.2627,42.209 82.596,41.209 83.5,40.5C 83.5,41.1667 83.8333,41.5 84.5,41.5C 88.5,41.5 92.5,41.5 96.5,41.5C 97.199,38.4271 98.199,35.4271 99.5,32.5C 105.878,27.1142 112.211,21.7809 118.5,16.5 Z"/></g>
<g><path style="opacity:1" fill="#867b73" d="M 154.5,16.5 C 155.5,16.5 156.5,16.5 157.5,16.5C 159.565,24.144 157.232,29.9773 150.5,34C 143.842,34.4996 137.175,34.6663 130.5,34.5C 136.678,33.617 143.012,32.7836 149.5,32C 143.524,31.7983 143.19,30.7983 148.5,29C 147.692,28.6924 147.025,28.1924 146.5,27.5C 148.078,26.7022 149.744,26.2022 151.5,26C 150.5,25.6667 149.5,25.3333 148.5,25C 150.044,24.7104 151.377,24.0437 152.5,23C 150.19,22.5034 147.857,22.3367 145.5,22.5C 145.768,24.099 145.434,25.4324 144.5,26.5C 142.365,24.631 139.698,23.9644 136.5,24.5C 138.969,23.6829 141.635,23.1829 144.5,23C 141.854,22.5026 139.187,22.3359 136.5,22.5C 142.666,21.5244 149,20.691 155.5,20C 154.833,19.6667 154.167,19.3333 153.5,19C 154.252,18.3292 154.586,17.4959 154.5,16.5 Z"/></g>
<g><path style="opacity:1" fill="#5b5655" d="M 178.5,20.5 C 179.5,21.1667 180.5,21.8333 181.5,22.5C 179.5,22.5 177.5,22.5 175.5,22.5C 175.263,23.791 175.596,24.791 176.5,25.5C 176.833,25.5 177.167,25.5 177.5,25.5C 184.022,25.1765 190.355,25.5098 196.5,26.5C 194.241,27.344 193.241,29.0107 193.5,31.5C 186.825,31.3337 180.158,31.5004 173.5,32C 172.692,32.3076 172.025,32.8076 171.5,33.5C 172.425,34.5624 173.425,34.5624 174.5,33.5C 181.065,33.8511 187.399,34.8511 193.5,36.5C 192.833,36.5 192.167,36.5 191.5,36.5C 187.418,36.3436 183.418,36.8436 179.5,38C 180.167,38.3333 180.833,38.6667 181.5,39C 175.151,39.4058 168.817,39.9058 162.5,40.5C 161.5,40.5 160.5,40.5 159.5,40.5C 158.833,40.5 158.5,40.1667 158.5,39.5C 160.229,38.0473 161.229,36.0473 161.5,33.5C 164.056,31.7242 166.722,30.2242 169.5,29C 166.968,28.3878 166.135,26.8878 167,24.5C 167.333,24.8333 167.667,25.1667 168,25.5C 169.31,24.1031 170.81,23.1031 172.5,22.5C 174.102,20.9261 176.102,20.2594 178.5,20.5 Z"/></g>
<g><path style="opacity:1" fill="#302f31" d="M 329.5,16.5 C 329.631,17.2389 329.464,17.9056 329,18.5C 324.934,17.5363 320.767,17.203 316.5,17.5C 314.213,23.7411 312.213,30.0744 310.5,36.5C 308.919,38.1417 308.253,40.1417 308.5,42.5C 304.445,42.8242 300.445,42.4909 296.5,41.5C 296.624,40.8933 296.957,40.56 297.5,40.5C 300.287,41.4767 303.287,41.81 306.5,41.5C 308.83,33.3461 311.663,25.3461 315,17.5C 319.737,16.5308 324.57,16.1975 329.5,16.5 Z"/></g>
<g><path style="opacity:1" fill="#a7a7a0" d="M 34.5,21.5 C 34.634,23.2915 34.3007,24.9582 33.5,26.5C 33.5449,29.0772 32.5449,31.0772 30.5,32.5C 31.4588,28.617 32.7922,24.9503 34.5,21.5 Z"/></g>
<g><path style="opacity:1" fill="#0d366e" d="M 260.5,29.5 C 262.5,29.5 264.5,29.5 266.5,29.5C 271.294,28.9031 275.627,29.5698 279.5,31.5C 272.345,32.3288 265.011,32.8288 257.5,33C 256.177,33.8159 255.511,34.9826 255.5,36.5C 255.167,36.5 254.833,36.5 254.5,36.5C 253.637,37.463 252.97,37.463 252.5,36.5C 254.022,32.1715 256.688,29.8382 260.5,29.5 Z"/></g>
<g><path style="opacity:1" fill="#193a66" d="M 196.5,26.5 C 196.5,27.5 196.5,28.5 196.5,29.5C 195.609,30.2613 194.942,31.2613 194.5,32.5C 187.866,33.4967 181.2,33.83 174.5,33.5C 173.425,34.5624 172.425,34.5624 171.5,33.5C 172.025,32.8076 172.692,32.3076 173.5,32C 180.158,31.5004 186.825,31.3337 193.5,31.5C 193.241,29.0107 194.241,27.344 196.5,26.5 Z"/></g>
<g><path style="opacity:1" fill="#383a49" d="M 218.5,18.5 C 218.783,19.2891 219.283,19.9558 220,20.5C 220.893,19.2888 221.726,19.2888 222.5,20.5C 220.031,21.1681 217.698,21.8347 215.5,22.5C 213.552,24.3204 212.552,26.6538 212.5,29.5C 212.768,31.099 212.434,32.4324 211.5,33.5C 210.058,35.5396 209.058,37.873 208.5,40.5C 204.217,41.4922 199.884,41.8256 195.5,41.5C 197.129,36.2647 199.129,31.2647 201.5,26.5C 203.003,27.6816 204.67,28.1816 206.5,28C 203.32,25.4949 203.32,22.6615 206.5,19.5C 210.445,18.5091 214.445,18.1758 218.5,18.5 Z"/></g>
<g><path style="opacity:1" fill="#203e77" d="M 239.5,19.5 C 239.996,25.1398 237.996,29.9731 233.5,34C 232.207,34.49 230.873,34.6567 229.5,34.5C 228.761,34.631 228.094,34.4643 227.5,34C 229.898,32.6437 232.398,31.4771 235,30.5C 236.564,26.7385 238.064,23.0719 239.5,19.5 Z"/></g>
<g><path style="opacity:1" fill="#052655" d="M 309.5,19.5 C 306.167,25.5 302.833,31.5 299.5,37.5C 295.093,36.3389 290.76,36.0056 286.5,36.5C 289.33,30.1698 292.663,24.1698 296.5,18.5C 300.571,18.7662 304.571,18.4328 308.5,17.5C 309.298,17.9569 309.631,18.6236 309.5,19.5 Z"/></g>
<g><path style="opacity:1" fill="#455571" d="M 54.5,32.5 C 51.5,33.1667 48.5,33.8333 45.5,34.5C 44.243,37.096 43.0764,39.7627 42,42.5C 41.2753,43.0585 40.4419,43.3918 39.5,43.5C 35.6114,42.5197 31.9448,42.5197 28.5,43.5C 27.6919,43.1924 27.0253,42.6924 26.5,42C 27.0848,40.6976 27.7515,39.531 28.5,38.5C 28.5,39.5 28.5,40.5 28.5,41.5C 32.5,41.5 36.5,41.5 40.5,41.5C 41.0708,38.5231 42.0708,35.6897 43.5,33C 47.1516,32.5014 50.8183,32.3347 54.5,32.5 Z"/></g>
<g><path style="opacity:1" fill="#4a483f" d="M 84.5,30.5 C 85.5862,30.62 86.2528,31.2867 86.5,32.5C 86.4573,33.4164 86.1239,34.0831 85.5,34.5C 85.5674,33.0413 85.2341,31.7079 84.5,30.5 Z"/></g>
<g><path style="opacity:0.188" fill="#b7b8b9" d="M 54.5,32.5 C 55.0431,32.56 55.3764,32.8933 55.5,33.5C 54.8641,35.78 53.8641,37.78 52.5,39.5C 52.4208,38.0695 52.7542,36.7362 53.5,35.5C 50.9135,34.52 48.2469,34.1866 45.5,34.5C 48.5,33.8333 51.5,33.1667 54.5,32.5 Z"/></g>
<g><path style="opacity:1" fill="#3d4d6f" d="M 157.5,16.5 C 161.582,18.8171 162.582,22.1505 160.5,26.5C 159.108,28.2726 157.941,30.2726 157,32.5C 156.097,33.7014 154.931,34.5348 153.5,35C 146.219,36.0603 138.886,36.8936 131.5,37.5C 130.966,39.6145 129.966,41.4478 128.5,43C 123.511,43.4993 118.511,43.6659 113.5,43.5C 113.263,42.209 113.596,41.209 114.5,40.5C 118.646,41.647 122.98,41.8136 127.5,41C 128.406,38.7787 129.406,36.6121 130.5,34.5C 137.175,34.6663 143.842,34.4996 150.5,34C 157.232,29.9773 159.565,24.144 157.5,16.5 Z"/></g>
<g><path style="opacity:1" fill="#455578" d="M 73.5,16.5 C 74.1667,16.5 74.8333,16.5 75.5,16.5C 73.1307,25.7313 69.7974,34.5646 65.5,43C 60.7989,43.3749 56.2989,43.5416 52,43.5C 51.235,41.9343 51.4017,40.6009 52.5,39.5C 54.0478,40.7943 56.0478,41.4609 58.5,41.5C 60.7588,41.4677 62.9255,41.1344 65,40.5C 67.8076,33.2433 70.3076,25.9099 72.5,18.5C 73.3382,18.1583 73.6716,17.4916 73.5,16.5 Z"/></g>
<g><path style="opacity:1" fill="#032859" d="M 299.5,37.5 C 298.833,38.5 298.167,39.5 297.5,40.5C 296.957,40.56 296.624,40.8933 296.5,41.5C 300.445,42.4909 304.445,42.8242 308.5,42.5C 308.253,40.1417 308.919,38.1417 310.5,36.5C 312.571,36.5023 314.738,36.1689 317,35.5C 319.63,35.8592 321.797,36.8592 323.5,38.5C 323.405,40.7857 322.738,42.7857 321.5,44.5C 312.43,44.4298 303.263,44.4298 294,44.5C 292.342,44.3248 291.009,43.6582 290,42.5C 287.894,44.291 285.394,44.9577 282.5,44.5C 283.304,41.5578 284.638,38.8911 286.5,36.5C 290.76,36.0056 295.093,36.3389 299.5,37.5 Z"/></g>
<g><path style="opacity:1" fill="#30333f" d="M 254.5,36.5 C 254.833,36.5 255.167,36.5 255.5,36.5C 260.179,36.3342 264.845,36.5008 269.5,37C 270.056,37.3826 270.389,37.8826 270.5,38.5C 267.167,38.5 263.833,38.5 260.5,38.5C 257.918,38.9746 255.918,38.3079 254.5,36.5 Z"/></g>
<g><path style="opacity:1" fill="#898987" d="M 85.5,35.5 C 85.4828,37.5648 85.1495,39.5648 84.5,41.5C 83.8333,41.5 83.5,41.1667 83.5,40.5C 83.4021,38.4471 84.0687,36.7804 85.5,35.5 Z"/></g>
<g><path style="opacity:1" fill="#49484e" d="M 191.5,36.5 C 190.847,37.8068 190.18,39.1401 189.5,40.5C 182.197,41.4973 174.863,41.8306 167.5,41.5C 165.585,41.7845 163.919,41.4511 162.5,40.5C 168.817,39.9058 175.151,39.4058 181.5,39C 180.833,38.6667 180.167,38.3333 179.5,38C 183.418,36.8436 187.418,36.3436 191.5,36.5 Z"/></g>
<g><path style="opacity:1" fill="#153872" d="M 191.5,36.5 C 192.167,36.5 192.833,36.5 193.5,36.5C 192.486,38.5739 191.486,40.5739 190.5,42.5C 182.648,42.8254 174.982,42.492 167.5,41.5C 174.863,41.8306 182.197,41.4973 189.5,40.5C 190.18,39.1401 190.847,37.8068 191.5,36.5 Z"/></g>
<g><path style="opacity:1" fill="#143364" d="M 211.5,33.5 C 211.5,33.8333 211.5,34.1667 211.5,34.5C 210.833,37.5 210.167,40.5 209.5,43.5C 203.974,43.8214 198.64,43.4881 193.5,42.5C 194.492,42.6716 195.158,42.3382 195.5,41.5C 199.884,41.8256 204.217,41.4922 208.5,40.5C 209.058,37.873 210.058,35.5396 211.5,33.5 Z"/></g>
<g><path style="opacity:1" fill="#123363" d="M 219.5,41.5 C 224.167,41.5 228.833,41.5 233.5,41.5C 234.043,41.56 234.376,41.8933 234.5,42.5C 229.014,43.8147 223.68,43.8147 218.5,42.5C 219.167,42.5 219.5,42.1667 219.5,41.5 Z"/></g>
<g><path style="opacity:1" fill="#161e2c" d="M 159.5,40.5 C 160.5,40.5 161.5,40.5 162.5,40.5C 163.919,41.4511 165.585,41.7845 167.5,41.5C 174.982,42.492 182.648,42.8254 190.5,42.5C 181.676,43.6573 172.676,43.824 163.5,43C 161.934,42.3918 160.6,41.5585 159.5,40.5 Z"/></g>
<g><path style="opacity:1" fill="#012967" d="M 321.5,44.5 C 320.541,48.383 319.208,52.0497 317.5,55.5C 314.741,55.5484 311.908,55.8817 309,56.5C 298.834,55.8219 288.667,55.1552 278.5,54.5C 278.206,50.433 279.54,47.0997 282.5,44.5C 285.394,44.9577 287.894,44.291 290,42.5C 291.009,43.6582 292.342,44.3248 294,44.5C 303.263,44.4298 312.43,44.4298 321.5,44.5 Z"/></g>
<g><path style="opacity:1" fill="#152f59" d="M 260.5,38.5 C 263.833,38.5 267.167,38.5 270.5,38.5C 272.39,38.2965 273.89,38.9632 275,40.5C 275.943,43.2507 276.776,45.9174 277.5,48.5C 276.962,50.1172 276.629,51.7839 276.5,53.5C 275.833,53.5 275.5,53.1667 275.5,52.5C 275.5,50.5 275.5,48.5 275.5,46.5C 275.53,45.5028 275.03,44.8361 274,44.5C 269.619,45.108 265.285,45.7747 261,46.5C 260.667,46.1667 260.333,45.8333 260,45.5C 259.369,46.8719 258.702,48.2052 258,49.5C 254.621,49.4042 251.287,49.4042 248,49.5C 246.677,52.916 244.844,55.2494 242.5,56.5C 244.516,57.6942 246.516,57.6942 248.5,56.5C 248.328,57.4916 248.662,58.1583 249.5,58.5C 249.649,59.552 249.483,60.552 249,61.5C 248.346,60.3044 247.846,60.3044 247.5,61.5C 248.025,62.1924 248.692,62.6924 249.5,63C 247.043,64.1544 247.043,65.4877 249.5,67C 248.207,67.49 246.873,67.6567 245.5,67.5C 245.586,66.5041 245.252,65.6708 244.5,65C 245.167,64.6667 245.833,64.3333 246.5,64C 243.61,63.2222 241.11,62.3889 239,61.5C 238.689,62.7425 239.189,63.7425 240.5,64.5C 239.833,64.8333 239.167,65.1667 238.5,65.5C 240.423,66.3078 242.423,66.8078 244.5,67C 243.146,68.2937 241.812,68.4604 240.5,67.5C 238.99,69.6895 236.99,71.0228 234.5,71.5C 233.391,71.4431 232.391,71.1098 231.5,70.5C 231.56,67.3647 231.727,64.0313 232,60.5C 234.276,54.2961 236.776,48.2961 239.5,42.5C 241.611,41.0319 243.444,41.3652 245,43.5C 246,42.5 247,41.5 248,40.5C 249.835,41.2605 251.835,41.5938 254,41.5C 256.267,40.4287 258.434,39.4287 260.5,38.5 Z"/></g>
<g><path style="opacity:1" fill="#818080" d="M 39.5,46.5 C 33.6847,45.456 28.6847,46.7893 24.5,50.5C 24.8588,48.629 25.8588,47.129 27.5,46C 31.6888,45.1881 35.6888,45.3547 39.5,46.5 Z"/></g>
<g><path style="opacity:1" fill="#969ba1" d="M 46.5,46.5 C 49.9619,45.5184 53.6286,45.185 57.5,45.5C 57.5,46.8333 56.8333,47.5 55.5,47.5C 52.7131,46.5233 49.7131,46.19 46.5,46.5 Z"/></g>
<g><path style="opacity:1" fill="#898f90" d="M 64.5,46.5 C 72.6499,45.5073 80.9832,45.1739 89.5,45.5C 89.6716,46.4916 89.3382,47.1583 88.5,47.5C 80.6841,46.5076 72.6841,46.1743 64.5,46.5 Z"/></g>
<g><path style="opacity:1" fill="#042b68" d="M 275.5,46.5 C 273.088,51.2045 270.754,56.0378 268.5,61C 255.167,61.6667 255.167,62.3333 268.5,63C 266.5,63.3333 264.5,63.6667 262.5,64C 263.167,64.3333 263.833,64.6667 264.5,65C 259.492,65.8693 259.825,66.5359 265.5,67C 262.833,67.3333 260.167,67.6667 257.5,68C 258.833,68.6667 258.833,69.3333 257.5,70C 254.5,70.6667 251.5,70.6667 248.5,70C 249.888,69.1107 249.722,68.6107 248,68.5C 246.274,70.0978 245.441,69.7645 245.5,67.5C 246.873,67.6567 248.207,67.49 249.5,67C 247.043,65.4877 247.043,64.1544 249.5,63C 248.692,62.6924 248.025,62.1924 247.5,61.5C 247.846,60.3044 248.346,60.3044 249,61.5C 249.483,60.552 249.649,59.552 249.5,58.5C 253.042,58.8128 256.375,58.4794 259.5,57.5C 261.512,55.4329 261.846,53.0996 260.5,50.5C 259.702,50.9569 259.369,51.6236 259.5,52.5C 256.102,52.1796 252.768,52.513 249.5,53.5C 248.873,54.4168 248.539,55.4168 248.5,56.5C 246.516,57.6942 244.516,57.6942 242.5,56.5C 244.844,55.2494 246.677,52.916 248,49.5C 251.287,49.4042 254.621,49.4042 258,49.5C 258.702,48.2052 259.369,46.8719 260,45.5C 260.333,45.8333 260.667,46.1667 261,46.5C 265.285,45.7747 269.619,45.108 274,44.5C 275.03,44.8361 275.53,45.5028 275.5,46.5 Z M 259.5,52.5 C 258.833,53.8333 258.167,55.1667 257.5,56.5C 254.5,56.5 251.5,56.5 248.5,56.5C 248.539,55.4168 248.873,54.4168 249.5,53.5C 252.768,52.513 256.102,52.1796 259.5,52.5 Z"/></g>
<g><path style="opacity:1" fill="#898684" d="M 202.5,46.5 C 203.492,46.3284 204.158,46.6618 204.5,47.5C 202.83,47.7512 201.33,48.4178 200,49.5C 196.877,55.5366 194.543,61.8699 193,68.5C 192.506,66.8659 192.34,65.1992 192.5,63.5C 193.437,58.19 195.271,53.19 198,48.5C 199.11,46.9632 200.61,46.2965 202.5,46.5 Z"/></g>
<g><path style="opacity:1" fill="#585450" d="M 202.5,46.5 C 209.989,45.3443 217.655,45.1777 225.5,46C 226.056,46.3826 226.389,46.8826 226.5,47.5C 224.5,47.5 222.5,47.5 220.5,47.5C 215.167,47.5 209.833,47.5 204.5,47.5C 204.158,46.6618 203.492,46.3284 202.5,46.5 Z"/></g>
<g><path style="opacity:1" fill="#6f6f6b" d="M 64.5,46.5 C 63.5,48.1667 62.1667,49.5 60.5,50.5C 60.8333,48.1667 62.1667,46.8333 64.5,46.5 Z"/></g>
<g><path style="opacity:1" fill="#91867a" d="M 160.5,45.5 C 159.833,46.1667 159.167,46.8333 158.5,47.5C 152.491,47.3338 146.491,47.5005 140.5,48C 141.833,48.3333 143.167,48.6667 144.5,49C 142.212,49.8221 139.878,50.4888 137.5,51C 136.781,53.5562 135.114,54.7229 132.5,54.5C 132.5,55.5 132.5,56.5 132.5,57.5C 133.5,57.5 134.5,57.5 135.5,57.5C 135.5,57.8333 135.5,58.1667 135.5,58.5C 134.005,58.4148 133.005,59.0815 132.5,60.5C 130.257,61.4742 127.924,61.8076 125.5,61.5C 125.821,64.5769 124.821,66.9103 122.5,68.5C 123.296,60.6089 125.963,53.4423 130.5,47C 140.395,45.5505 150.395,45.0505 160.5,45.5 Z"/></g>
<g><path style="opacity:1" fill="#6f6a63" d="M 158.5,47.5 C 157.962,49.1172 157.629,50.7839 157.5,52.5C 151.158,52.3338 144.825,52.5005 138.5,53C 137.601,54.6516 136.601,56.1516 135.5,57.5C 134.5,57.5 133.5,57.5 132.5,57.5C 132.5,56.5 132.5,55.5 132.5,54.5C 135.114,54.7229 136.781,53.5562 137.5,51C 139.878,50.4888 142.212,49.8221 144.5,49C 143.167,48.6667 141.833,48.3333 140.5,48C 146.491,47.5005 152.491,47.3338 158.5,47.5 Z"/></g>
<g><path style="opacity:1" fill="#625e5a" d="M 169.5,45.5 C 177.833,45.5 186.167,45.5 194.5,45.5C 194.167,46.5 193.5,47.1667 192.5,47.5C 186.463,47.1707 180.463,47.5041 174.5,48.5C 173.975,49.1924 173.308,49.6924 172.5,50C 173.416,50.2784 174.082,50.7784 174.5,51.5C 174.5,52.1667 174.167,52.5 173.5,52.5C 172.883,52.3893 172.383,52.056 172,51.5C 168.615,52.0806 166.115,53.0806 164.5,54.5C 165.485,49.6881 168.485,47.1881 173.5,47C 171.942,46.79 170.609,46.29 169.5,45.5 Z"/></g>
<g><path style="opacity:1" fill="#44454c" d="M 192.5,47.5 C 192.5,48.8333 192.5,50.1667 192.5,51.5C 186.5,51.5 180.5,51.5 174.5,51.5C 174.082,50.7784 173.416,50.2784 172.5,50C 173.308,49.6924 173.975,49.1924 174.5,48.5C 180.463,47.5041 186.463,47.1707 192.5,47.5 Z"/></g>
<g><path style="opacity:1" fill="#657a9a" d="M 39.5,46.5 C 40.3382,46.8417 40.6716,47.5084 40.5,48.5C 40.5488,52.0781 41.2154,55.4115 42.5,58.5C 42.1583,59.3382 41.4916,59.6716 40.5,59.5C 39.9198,55.19 39.5865,50.8566 39.5,46.5 Z"/></g>
<g><path style="opacity:1" fill="#dbc6a9" d="M 64.5,46.5 C 72.6841,46.1743 80.6841,46.5076 88.5,47.5C 87.6993,49.0418 87.366,50.7085 87.5,52.5C 81.31,52.1771 75.31,52.5104 69.5,53.5C 66.4954,55.2994 63.162,55.9661 59.5,55.5C 59.5,54.5 59.5,53.5 59.5,52.5C 59.3284,51.5084 59.6618,50.8417 60.5,50.5C 62.1667,49.5 63.5,48.1667 64.5,46.5 Z"/></g>
<g><path style="opacity:1" fill="#e7d3b2" d="M 46.5,46.5 C 49.7131,46.19 52.7131,46.5233 55.5,47.5C 55.3964,49.7028 54.7298,51.7028 53.5,53.5C 50.8333,53.5 48.1667,53.5 45.5,53.5C 45.9926,51.1944 46.3259,48.861 46.5,46.5 Z"/></g>
<g><path style="opacity:1" fill="#243658" d="M 220.5,47.5 C 222.5,47.5 224.5,47.5 226.5,47.5C 228.027,47.427 229.027,48.0937 229.5,49.5C 227.499,55.1199 225.332,60.7865 223,66.5C 221.622,69.1083 219.455,70.6083 216.5,71C 217.737,71.2321 218.737,71.7321 219.5,72.5C 212.167,72.5 204.833,72.5 197.5,72.5C 199.732,70.8046 202.399,69.6379 205.5,69C 204.304,68.3457 204.304,67.8457 205.5,67.5C 206.167,68.1667 206.833,68.8333 207.5,69.5C 208.696,69.1543 208.696,68.6543 207.5,68C 208.737,67.7679 209.737,67.2679 210.5,66.5C 211.822,66.67 212.989,66.3366 214,65.5C 216.455,61.814 217.455,57.814 217,53.5C 216.768,54.7375 216.268,55.7375 215.5,56.5C 213.721,54.6565 211.388,53.9898 208.5,54.5C 208.918,53.7784 209.584,53.2784 210.5,53C 209.906,52.5357 209.239,52.369 208.5,52.5C 213.662,51.4941 218.995,50.6608 224.5,50C 222.563,49.8784 221.23,49.045 220.5,47.5 Z"/></g>
<g><path style="opacity:1" fill="#273a62" d="M 194.5,45.5 C 195.043,45.56 195.376,45.8933 195.5,46.5C 194.67,49.0164 193.67,51.3498 192.5,53.5C 190.265,53.2053 188.265,53.5386 186.5,54.5C 186.167,54.5 185.833,54.5 185.5,54.5C 182.375,53.5206 179.042,53.1872 175.5,53.5C 174.033,56.2583 173.367,55.925 173.5,52.5C 174.167,52.5 174.5,52.1667 174.5,51.5C 180.5,51.5 186.5,51.5 192.5,51.5C 192.5,50.1667 192.5,48.8333 192.5,47.5C 193.5,47.1667 194.167,46.5 194.5,45.5 Z"/></g>
<g><path style="opacity:1" fill="#2e3f5e" d="M 89.5,45.5 C 90.3764,45.3691 91.0431,45.7025 91.5,46.5C 90.4229,48.7294 89.7563,51.0628 89.5,53.5C 83.0738,52.88 77.0738,53.5467 71.5,55.5C 70.1667,55.5 69.5,54.8333 69.5,53.5C 75.31,52.5104 81.31,52.1771 87.5,52.5C 87.366,50.7085 87.6993,49.0418 88.5,47.5C 89.3382,47.1583 89.6716,46.4916 89.5,45.5 Z"/></g>
<g><path style="opacity:1" fill="#b3a28e" d="M 97.5,46.5 C 104.508,46.3337 111.508,46.5004 118.5,47C 116.088,49.0354 116.755,50.0354 120.5,50C 116.625,51.3468 116.625,52.5135 120.5,53.5C 117.801,54.1918 115.134,54.8585 112.5,55.5C 112.709,56.086 113.043,56.586 113.5,57C 115.5,57.3333 117.5,57.6667 119.5,58C 117.208,59.382 114.875,59.882 112.5,59.5C 111.081,58.9953 110.415,57.9953 110.5,56.5C 110.5,55.5 110.5,54.5 110.5,53.5C 102.982,50.8075 98.9823,53.6409 98.5,62C 98.6842,63.3756 99.3509,64.2089 100.5,64.5C 102.5,64.5 104.5,64.5 106.5,64.5C 109.097,64.7208 109.097,65.2208 106.5,66C 102.477,66.1452 98.6442,66.9785 95,68.5C 93.1315,67.3346 91.2982,67.668 89.5,69.5C 87.7175,67.9775 87.0508,65.9775 87.5,63.5C 88.4372,58.19 90.2705,53.19 93,48.5C 94.1096,46.9632 95.6096,46.2965 97.5,46.5 Z"/></g>
<g><path style="opacity:1" fill="#3f4f74" d="M 160.5,45.5 C 161.097,45.7352 161.43,46.2352 161.5,47C 160.496,49.3504 159.496,51.6837 158.5,54C 152.141,54.1694 145.807,54.6694 139.5,55.5C 138.295,58.4496 137.295,61.4496 136.5,64.5C 135.503,64.5299 134.836,64.0299 134.5,63C 135.148,61.5603 135.481,60.0603 135.5,58.5C 135.5,58.1667 135.5,57.8333 135.5,57.5C 136.601,56.1516 137.601,54.6516 138.5,53C 144.825,52.5005 151.158,52.3338 157.5,52.5C 157.629,50.7839 157.962,49.1172 158.5,47.5C 159.167,46.8333 159.833,46.1667 160.5,45.5 Z"/></g>
<g><path style="opacity:1" fill="#131f33" d="M 40.5,48.5 C 41.5,50.5 42.5,52.5 43.5,54.5C 42.7659,55.7079 42.4326,57.0413 42.5,58.5C 41.2154,55.4115 40.5488,52.0781 40.5,48.5 Z"/></g>
<g><path style="opacity:0.188" fill="#cdcdcd" d="M 192.5,53.5 C 192.167,54.1667 191.833,54.8333 191.5,55.5C 190.5,54.1667 189.5,54.1667 188.5,55.5C 188.167,54.1667 187.833,54.1667 187.5,55.5C 187.167,55.5 186.833,55.5 186.5,55.5C 186.5,55.1667 186.5,54.8333 186.5,54.5C 188.265,53.5386 190.265,53.2053 192.5,53.5 Z"/></g>
<g><path style="opacity:1" fill="#2b4a89" d="M 229.5,49.5 C 228.852,56.9446 226.686,63.9446 223,70.5C 221.887,71.305 220.721,71.9717 219.5,72.5C 218.737,71.7321 217.737,71.2321 216.5,71C 219.455,70.6083 221.622,69.1083 223,66.5C 225.332,60.7865 227.499,55.1199 229.5,49.5 Z"/></g>
<g><path style="opacity:1" fill="#787572" d="M 259.5,57.5 C 258.833,57.1667 258.167,56.8333 257.5,56.5C 258.167,55.1667 258.833,53.8333 259.5,52.5C 259.369,51.6236 259.702,50.9569 260.5,50.5C 261.846,53.0996 261.512,55.4329 259.5,57.5 Z"/></g>
<g><path style="opacity:1" fill="#093e82" d="M 208.5,52.5 C 209.239,52.369 209.906,52.5357 210.5,53C 209.584,53.2784 208.918,53.7784 208.5,54.5C 207.501,57.1618 206.501,59.8284 205.5,62.5C 204.778,62.9175 204.278,63.5842 204,64.5C 204.116,59.9426 205.616,55.9426 208.5,52.5 Z"/></g>
<g><path style="opacity:1" fill="#d9c2a4" d="M 39.5,46.5 C 39.5865,50.8566 39.9198,55.19 40.5,59.5C 40.5386,60.7562 40.0386,61.7562 39,62.5C 37.4305,62.33 35.5972,61.9967 33.5,61.5C 33.7989,59.396 33.4656,57.396 32.5,55.5C 31.8933,55.6236 31.56,55.9569 31.5,56.5C 30.596,57.209 30.2627,58.209 30.5,59.5C 27.7531,59.8134 25.0865,59.48 22.5,58.5C 23.0253,57.8076 23.6919,57.3076 24.5,57C 24.0137,54.9734 24.0137,52.8067 24.5,50.5C 28.6847,46.7893 33.6847,45.456 39.5,46.5 Z"/></g>
<g><path style="opacity:1" fill="#233d64" d="M 122.5,47.5 C 123.837,48.3149 124.837,49.4815 125.5,51C 124.009,55.4726 122.509,59.9726 121,64.5C 117.534,71.9128 111.701,74.5794 103.5,72.5C 99.6508,72.4987 95.9841,72.1654 92.5,71.5C 100.299,71.9752 107.966,71.3085 115.5,69.5C 118.416,64.8506 120.583,59.8506 122,54.5C 122.497,52.1902 122.663,49.8568 122.5,47.5 Z"/></g>
<g><path style="opacity:1" fill="#958f81" d="M 175.5,53.5 C 179.042,53.1872 182.375,53.5206 185.5,54.5C 183.15,55.1103 183.483,55.4437 186.5,55.5C 186.833,55.5 187.167,55.5 187.5,55.5C 187.833,55.5 188.167,55.5 188.5,55.5C 189.5,54.1667 190.5,54.1667 191.5,55.5C 191.5,55.8333 191.5,56.1667 191.5,56.5C 190.833,56.5 190.167,56.5 189.5,56.5C 184.393,56.8345 180.06,56.5012 176.5,55.5C 180.5,55.1667 180.5,54.8333 176.5,54.5C 175.833,54.5 175.5,54.1667 175.5,53.5 Z"/></g>
<g><path style="opacity:1" fill="#073a75" d="M 278.5,54.5 C 288.667,55.1552 298.834,55.8219 309,56.5C 311.908,55.8817 314.741,55.5484 317.5,55.5C 315.994,61.1844 313.994,66.6844 311.5,72C 306.511,72.4993 301.511,72.6659 296.5,72.5C 298.931,67.7143 300.431,62.7143 301,57.5C 300.617,58.056 300.117,58.3893 299.5,58.5C 292.825,58.6663 286.158,58.4996 279.5,58C 278.944,57.6174 278.611,57.1174 278.5,56.5C 278.5,55.8333 278.5,55.1667 278.5,54.5 Z"/></g>
<g><path style="opacity:1" fill="#e2ccad" d="M 85.5,56.5 C 85.1667,57.1667 84.8333,57.8333 84.5,58.5C 76.5,58.5 68.5,58.5 60.5,58.5C 59.6236,58.6309 58.9569,58.2975 58.5,57.5C 67.4754,56.5018 76.4754,56.1685 85.5,56.5 Z"/></g>
<g><path style="opacity:1" fill="#47474d" d="M 173.5,52.5 C 173.367,55.925 174.033,56.2583 175.5,53.5C 175.5,54.1667 175.833,54.5 176.5,54.5C 176.5,54.8333 176.5,55.1667 176.5,55.5C 180.06,56.5012 184.393,56.8345 189.5,56.5C 189.249,58.1703 188.582,59.6703 187.5,61C 181.833,61.3333 176.167,61.6667 170.5,62C 169.117,63.4609 169.451,64.2942 171.5,64.5C 175.715,66.4364 180.381,67.1031 185.5,66.5C 185.011,67.9952 184.345,69.3285 183.5,70.5C 176.167,70.5 168.833,70.5 161.5,70.5C 160.508,70.6716 159.842,70.3382 159.5,69.5C 161.314,64.7258 162.98,59.7258 164.5,54.5C 166.115,53.0806 168.615,52.0806 172,51.5C 172.383,52.056 172.883,52.3893 173.5,52.5 Z"/></g>
<g><path style="opacity:1" fill="#c5af97" d="M 46.5,46.5 C 46.3259,48.861 45.9926,51.1944 45.5,53.5C 48.1667,53.5 50.8333,53.5 53.5,53.5C 52.2893,57.9665 50.7893,62.2998 49,66.5C 48.34,68.3237 47.1733,69.657 45.5,70.5C 37.4385,72.7623 33.4385,69.7623 33.5,61.5C 35.5972,61.9967 37.4305,62.33 39,62.5C 40.0386,61.7562 40.5386,60.7562 40.5,59.5C 41.4916,59.6716 42.1583,59.3382 42.5,58.5C 42.4326,57.0413 42.7659,55.7079 43.5,54.5C 44.129,51.6027 45.129,48.936 46.5,46.5 Z"/></g>
<g><path style="opacity:1" fill="#2a426b" d="M 110.5,53.5 C 107.635,53.0548 105.135,53.7215 103,55.5C 101.855,58.4318 101.022,61.4318 100.5,64.5C 99.3509,64.2089 98.6842,63.3756 98.5,62C 98.9823,53.6409 102.982,50.8075 110.5,53.5 Z"/></g>
<g><path style="opacity:1" fill="#3f4041" d="M 248.5,56.5 C 251.5,56.5 254.5,56.5 257.5,56.5C 258.167,56.8333 258.833,57.1667 259.5,57.5C 256.375,58.4794 253.042,58.8128 249.5,58.5C 248.662,58.1583 248.328,57.4916 248.5,56.5 Z"/></g>
<g><path style="opacity:1" fill="#8b8a87" d="M 169.5,45.5 C 170.609,46.29 171.942,46.79 173.5,47C 168.485,47.1881 165.485,49.6881 164.5,54.5C 162.98,59.7258 161.314,64.7258 159.5,69.5C 159.089,62.1807 160.922,55.1807 165,48.5C 166.271,47.1175 167.771,46.1175 169.5,45.5 Z"/></g>
<g><path style="opacity:1" fill="#333a50" d="M 204.5,47.5 C 209.833,47.5 215.167,47.5 220.5,47.5C 221.23,49.045 222.563,49.8784 224.5,50C 218.995,50.6608 213.662,51.4941 208.5,52.5C 205.616,55.9426 204.116,59.9426 204,64.5C 204.278,63.5842 204.778,62.9175 205.5,62.5C 205.5,63.1667 205.5,63.8333 205.5,64.5C 206.635,66.2132 208.302,66.8799 210.5,66.5C 209.737,67.2679 208.737,67.7679 207.5,68C 208.696,68.6543 208.696,69.1543 207.5,69.5C 206.833,68.8333 206.167,68.1667 205.5,67.5C 204.304,67.8457 204.304,68.3457 205.5,69C 202.399,69.6379 199.732,70.8046 197.5,72.5C 191.866,71.5174 190.199,68.5174 192.5,63.5C 192.34,65.1992 192.506,66.8659 193,68.5C 194.543,61.8699 196.877,55.5366 200,49.5C 201.33,48.4178 202.83,47.7512 204.5,47.5 Z"/></g>
<g><path style="opacity:1" fill="#797776" d="M 210.5,66.5 C 208.302,66.8799 206.635,66.2132 205.5,64.5C 207.527,64.6621 209.527,64.4955 211.5,64C 213.004,61.4862 214.338,58.9862 215.5,56.5C 216.268,55.7375 216.768,54.7375 217,53.5C 217.455,57.814 216.455,61.814 214,65.5C 212.989,66.3366 211.822,66.67 210.5,66.5 Z"/></g>
<g><path style="opacity:1" fill="#c6b095" d="M 60.5,58.5 C 68.5,58.5 76.5,58.5 84.5,58.5C 84.5858,59.4959 84.2524,60.3292 83.5,61C 77.8333,61.3333 72.1667,61.6667 66.5,62C 65.7476,62.6708 65.4142,63.5041 65.5,64.5C 64.2382,64.9066 62.9049,65.24 61.5,65.5C 60.2054,64.9017 58.8721,64.4017 57.5,64C 57.0338,62.7012 57.0338,61.2012 57.5,59.5C 58.791,59.7373 59.791,59.404 60.5,58.5 Z"/></g>
<g><path style="opacity:1" fill="#b8a38e" d="M 24.5,50.5 C 24.0137,52.8067 24.0137,54.9734 24.5,57C 23.6919,57.3076 23.0253,57.8076 22.5,58.5C 25.0865,59.48 27.7531,59.8134 30.5,59.5C 29.3052,61.7513 28.3052,64.0846 27.5,66.5C 24.8127,66.6641 22.146,66.4974 19.5,66C 20.3802,64.6439 20.7135,63.1439 20.5,61.5C 21.0653,57.4632 22.3987,53.7966 24.5,50.5 Z"/></g>
<g><path style="opacity:1" fill="#3c557e" d="M 31.5,56.5 C 32.4614,58.2646 32.7947,60.2646 32.5,62.5C 31.1667,64.8333 29.8333,67.1667 28.5,69.5C 27.8333,70.1667 27.1667,70.8333 26.5,71.5C 26.6287,69.7839 26.962,68.1172 27.5,66.5C 28.3052,64.0846 29.3052,61.7513 30.5,59.5C 30.2627,58.209 30.596,57.209 31.5,56.5 Z"/></g>
<g><path style="opacity:1" fill="#404e6b" d="M 68.5,64.5 C 67.5,64.5 66.5,64.5 65.5,64.5C 65.4142,63.5041 65.7476,62.6708 66.5,62C 72.1667,61.6667 77.8333,61.3333 83.5,61C 84.2524,60.3292 84.5858,59.4959 84.5,58.5C 84.8333,57.8333 85.1667,57.1667 85.5,56.5C 86.1667,56.5 86.5,56.1667 86.5,55.5C 87.612,55.4857 87.7787,56.4857 87,58.5C 86.7398,60.6175 85.7398,62.2842 84,63.5C 79.5723,63.2523 75.0723,62.9189 70.5,62.5C 69.4777,62.8555 68.811,63.5222 68.5,64.5 Z"/></g>
<g><path style="opacity:1" fill="#767169" d="M 157.5,57.5 C 156.833,57.8333 156.167,58.1667 155.5,58.5C 152.833,58.5 150.167,58.5 147.5,58.5C 146.785,66.3897 142.618,69.3897 135,67.5C 133.238,67.9444 133.405,68.4444 135.5,69C 133.75,70.3186 131.75,70.8186 129.5,70.5C 128.167,70.5 126.833,70.5 125.5,70.5C 123.973,70.573 122.973,69.9063 122.5,68.5C 124.821,66.9103 125.821,64.5769 125.5,61.5C 127.924,61.8076 130.257,61.4742 132.5,60.5C 133.005,59.0815 134.005,58.4148 135.5,58.5C 135.481,60.0603 135.148,61.5603 134.5,63C 134.836,64.0299 135.503,64.5299 136.5,64.5C 138.527,64.6621 140.527,64.4955 142.5,64C 144.017,61.7955 145.35,59.4622 146.5,57C 150.358,56.1901 154.024,56.3567 157.5,57.5 Z"/></g>
<g><path style="opacity:1" fill="#2e4777" d="M 157.5,57.5 C 157.513,63.7043 154.846,68.7043 149.5,72.5C 147.052,71.5269 144.385,71.1936 141.5,71.5C 144.758,70.8292 148.091,69.9958 151.5,69C 153.254,65.6594 154.587,62.1594 155.5,58.5C 156.167,58.1667 156.833,57.8333 157.5,57.5 Z"/></g>
<g><path style="opacity:1" fill="#243960" d="M 189.5,56.5 C 190.167,56.5 190.833,56.5 191.5,56.5C 191.039,58.5504 190.372,60.5504 189.5,62.5C 183.346,63.1668 177.346,63.8334 171.5,64.5C 169.451,64.2942 169.117,63.4609 170.5,62C 176.167,61.6667 181.833,61.3333 187.5,61C 188.582,59.6703 189.249,58.1703 189.5,56.5 Z"/></g>
<g><path style="opacity:1" fill="#253c64" d="M 57.5,45.5 C 58.0967,45.7352 58.4301,46.2352 58.5,47C 55.8631,54.5778 53.0298,62.0778 50,69.5C 49.1667,70.3333 48.3333,71.1667 47.5,72C 43.6425,72.8099 39.9758,72.6433 36.5,71.5C 39.7131,71.81 42.7131,71.4767 45.5,70.5C 47.1733,69.657 48.34,68.3237 49,66.5C 50.7893,62.2998 52.2893,57.9665 53.5,53.5C 54.7298,51.7028 55.3964,49.7028 55.5,47.5C 56.8333,47.5 57.5,46.8333 57.5,45.5 Z"/></g>
<g><path style="opacity:1" fill="#928678" d="M 97.5,46.5 C 104.989,45.3443 112.655,45.1777 120.5,46C 121.416,46.2784 122.082,46.7784 122.5,47.5C 122.663,49.8568 122.497,52.1902 122,54.5C 120.583,59.8506 118.416,64.8506 115.5,69.5C 107.966,71.3085 100.299,71.9752 92.5,71.5C 86.8063,71.1884 85.1397,68.5218 87.5,63.5C 87.0508,65.9775 87.7175,67.9775 89.5,69.5C 91.2982,67.668 93.1315,67.3346 95,68.5C 98.6442,66.9785 102.477,66.1452 106.5,66C 109.097,65.2208 109.097,64.7208 106.5,64.5C 107.866,61.768 109.199,59.1013 110.5,56.5C 110.415,57.9953 111.081,58.9953 112.5,59.5C 114.875,59.882 117.208,59.382 119.5,58C 117.5,57.6667 115.5,57.3333 113.5,57C 113.043,56.586 112.709,56.086 112.5,55.5C 115.134,54.8585 117.801,54.1918 120.5,53.5C 116.625,52.5135 116.625,51.3468 120.5,50C 116.755,50.0354 116.088,49.0354 118.5,47C 111.508,46.5004 104.508,46.3337 97.5,46.5 Z"/></g>
<g><path style="opacity:1" fill="#a99988" d="M 59.5,52.5 C 59.5,53.5 59.5,54.5 59.5,55.5C 63.162,55.9661 66.4954,55.2994 69.5,53.5C 69.5,54.8333 70.1667,55.5 71.5,55.5C 76.5161,54.1772 81.5161,54.1772 86.5,55.5C 86.5,56.1667 86.1667,56.5 85.5,56.5C 76.4754,56.1685 67.4754,56.5018 58.5,57.5C 58.9569,58.2975 59.6236,58.6309 60.5,58.5C 59.791,59.404 58.791,59.7373 57.5,59.5C 57.0338,61.2012 57.0338,62.7012 57.5,64C 58.8721,64.4017 60.2054,64.9017 61.5,65.5C 62.9049,65.24 64.2382,64.9066 65.5,64.5C 66.5,64.5 67.5,64.5 68.5,64.5C 73.1667,64.5 77.8333,64.5 82.5,64.5C 81.4336,66.7014 80.767,69.0347 80.5,71.5C 73.8333,71.5 67.1667,71.5 60.5,71.5C 57.2775,71.2759 55.2775,69.6093 54.5,66.5C 55.6538,61.5507 57.3204,56.884 59.5,52.5 Z"/></g>
<g><path style="opacity:1" fill="#5e5757" d="M 155.5,58.5 C 154.587,62.1594 153.254,65.6594 151.5,69C 148.091,69.9958 144.758,70.8292 141.5,71.5C 137.298,71.8168 133.298,71.4834 129.5,70.5C 131.75,70.8186 133.75,70.3186 135.5,69C 133.405,68.4444 133.238,67.9444 135,67.5C 142.618,69.3897 146.785,66.3897 147.5,58.5C 150.167,58.5 152.833,58.5 155.5,58.5 Z"/></g>
<g><path style="opacity:1" fill="#7a7368" d="M 171.5,64.5 C 176.833,64.5 182.167,64.5 187.5,64.5C 187.167,65.5 186.5,66.1667 185.5,66.5C 180.381,67.1031 175.715,66.4364 171.5,64.5 Z"/></g>
<g><path style="opacity:1" fill="#3f4043" d="M 296.5,72.5 C 295.711,72.2172 295.044,71.7172 294.5,71C 296.464,66.9409 298.13,62.7742 299.5,58.5C 300.117,58.3893 300.617,58.056 301,57.5C 300.431,62.7143 298.931,67.7143 296.5,72.5 Z"/></g>
<g><path style="opacity:1" fill="#958976" d="M 20.5,61.5 C 20.7135,63.1439 20.3802,64.6439 19.5,66C 22.146,66.4974 24.8127,66.6641 27.5,66.5C 26.962,68.1172 26.6287,69.7839 26.5,71.5C 23.1667,71.5 19.8333,71.5 16.5,71.5C 17.2667,67.8512 18.6001,64.5178 20.5,61.5 Z"/></g>
<g><path style="opacity:1" fill="#2a3b57" d="M 82.5,64.5 C 83.3764,64.3691 84.0431,64.7025 84.5,65.5C 83.4229,67.7294 82.7563,70.0628 82.5,72.5C 74.9809,72.825 67.6476,72.4916 60.5,71.5C 67.1667,71.5 73.8333,71.5 80.5,71.5C 80.767,69.0347 81.4336,66.7014 82.5,64.5 Z"/></g>
<g><path style="opacity:1" fill="#194580" d="M 187.5,64.5 C 188.043,64.56 188.376,64.8933 188.5,65.5C 187.628,67.4496 186.961,69.4496 186.5,71.5C 185.209,71.7373 184.209,71.404 183.5,70.5C 184.345,69.3285 185.011,67.9952 185.5,66.5C 186.5,66.1667 187.167,65.5 187.5,64.5 Z"/></g>
<g><path style="opacity:1" fill="#877d6e" d="M 31.5,56.5 C 31.56,55.9569 31.8933,55.6236 32.5,55.5C 33.4656,57.396 33.7989,59.396 33.5,61.5C 33.4385,69.7623 37.4385,72.7623 45.5,70.5C 42.7131,71.4767 39.7131,71.81 36.5,71.5C 32.9908,69.6568 31.6574,66.6568 32.5,62.5C 32.7947,60.2646 32.4614,58.2646 31.5,56.5 Z"/></g>
<g><path style="opacity:1" fill="#073672" d="M 275.5,46.5 C 275.5,48.5 275.5,50.5 275.5,52.5C 273.384,57.4104 271.218,62.4104 269,67.5C 267.457,69.3783 265.624,70.8783 263.5,72C 253.658,72.8246 243.991,72.658 234.5,71.5C 236.99,71.0228 238.99,69.6895 240.5,67.5C 241.812,68.4604 243.146,68.2937 244.5,67C 242.423,66.8078 240.423,66.3078 238.5,65.5C 239.167,65.1667 239.833,64.8333 240.5,64.5C 239.189,63.7425 238.689,62.7425 239,61.5C 241.11,62.3889 243.61,63.2222 246.5,64C 245.833,64.3333 245.167,64.6667 244.5,65C 245.252,65.6708 245.586,66.5041 245.5,67.5C 245.441,69.7645 246.274,70.0978 248,68.5C 249.722,68.6107 249.888,69.1107 248.5,70C 251.5,70.6667 254.5,70.6667 257.5,70C 258.833,69.3333 258.833,68.6667 257.5,68C 260.167,67.6667 262.833,67.3333 265.5,67C 259.825,66.5359 259.492,65.8693 264.5,65C 263.833,64.6667 263.167,64.3333 262.5,64C 264.5,63.6667 266.5,63.3333 268.5,63C 255.167,62.3333 255.167,61.6667 268.5,61C 270.754,56.0378 273.088,51.2045 275.5,46.5 Z"/></g>
<g><path style="opacity:1" fill="#252834" d="M 28.5,69.5 C 28.5,70.5 28.5,71.5 28.5,72.5C 24.2984,72.8168 20.2984,72.4834 16.5,71.5C 19.8333,71.5 23.1667,71.5 26.5,71.5C 27.1667,70.8333 27.8333,70.1667 28.5,69.5 Z"/></g>
<g><path style="opacity:1" fill="#0f2137" d="M 125.5,70.5 C 126.833,70.5 128.167,70.5 129.5,70.5C 133.298,71.4834 137.298,71.8168 141.5,71.5C 144.385,71.1936 147.052,71.5269 149.5,72.5C 142.492,72.6663 135.492,72.4996 128.5,72C 127.263,71.7679 126.263,71.2679 125.5,70.5 Z"/></g>
<g><path style="opacity:1" fill="#122645" d="M 161.5,70.5 C 168.833,70.5 176.167,70.5 183.5,70.5C 184.209,71.404 185.209,71.7373 186.5,71.5C 179.011,72.6557 171.345,72.8223 163.5,72C 162.584,71.7216 161.918,71.2216 161.5,70.5 Z"/></g>
</svg>
